%TF.GenerationSoftware,KiCad,Pcbnew,5.1.9+dfsg1-1~bpo10+1*%
%TF.CreationDate,2021-12-12T16:05:26+08:00*%
%TF.ProjectId,MiniVCA 1.0,4d696e69-5643-4412-9031-2e302e6b6963,rev?*%
%TF.SameCoordinates,Original*%
%TF.FileFunction,Legend,Bot*%
%TF.FilePolarity,Positive*%
%FSLAX46Y46*%
G04 Gerber Fmt 4.6, Leading zero omitted, Abs format (unit mm)*
G04 Created by KiCad (PCBNEW 5.1.9+dfsg1-1~bpo10+1) date 2021-12-12 16:05:26*
%MOMM*%
%LPD*%
G01*
G04 APERTURE LIST*
%ADD10C,0.150000*%
%ADD11C,0.200000*%
%ADD12C,0.120000*%
%ADD13C,0.130000*%
G04 APERTURE END LIST*
D10*
X108838095Y-108680952D02*
X108876190Y-108642857D01*
X108952380Y-108604761D01*
X109028571Y-108604761D01*
X109104761Y-108642857D01*
X109142857Y-108680952D01*
X109180952Y-108757142D01*
X109180952Y-108833333D01*
X109142857Y-108909523D01*
X109104761Y-108947619D01*
X109028571Y-108985714D01*
X108952380Y-108985714D01*
X108876190Y-108947619D01*
X108838095Y-108909523D01*
X108838095Y-108604761D02*
X108838095Y-108909523D01*
X108800000Y-108947619D01*
X108761904Y-108947619D01*
X108685714Y-108909523D01*
X108647619Y-108833333D01*
X108647619Y-108642857D01*
X108723809Y-108528571D01*
X108838095Y-108452380D01*
X108990476Y-108414285D01*
X109142857Y-108452380D01*
X109257142Y-108528571D01*
X109333333Y-108642857D01*
X109371428Y-108795238D01*
X109333333Y-108947619D01*
X109257142Y-109061904D01*
X109142857Y-109138095D01*
X108990476Y-109176190D01*
X108838095Y-109138095D01*
X108723809Y-109061904D01*
X108304761Y-109061904D02*
X108304761Y-108261904D01*
X108304761Y-108566666D02*
X108228571Y-108528571D01*
X108076190Y-108528571D01*
X108000000Y-108566666D01*
X107961904Y-108604761D01*
X107923809Y-108680952D01*
X107923809Y-108909523D01*
X107961904Y-108985714D01*
X108000000Y-109023809D01*
X108076190Y-109061904D01*
X108228571Y-109061904D01*
X108304761Y-109023809D01*
X107276190Y-109023809D02*
X107352380Y-109061904D01*
X107504761Y-109061904D01*
X107580952Y-109023809D01*
X107619047Y-108947619D01*
X107619047Y-108642857D01*
X107580952Y-108566666D01*
X107504761Y-108528571D01*
X107352380Y-108528571D01*
X107276190Y-108566666D01*
X107238095Y-108642857D01*
X107238095Y-108719047D01*
X107619047Y-108795238D01*
X106895238Y-108528571D02*
X106895238Y-109061904D01*
X106895238Y-108604761D02*
X106857142Y-108566666D01*
X106780952Y-108528571D01*
X106666666Y-108528571D01*
X106590476Y-108566666D01*
X106552380Y-108642857D01*
X106552380Y-109061904D01*
X106171428Y-108528571D02*
X106171428Y-109214285D01*
X106209523Y-109290476D01*
X106285714Y-109328571D01*
X106323809Y-109328571D01*
X106171428Y-108261904D02*
X106209523Y-108300000D01*
X106171428Y-108338095D01*
X106133333Y-108300000D01*
X106171428Y-108261904D01*
X106171428Y-108338095D01*
X105790476Y-109061904D02*
X105790476Y-108528571D01*
X105790476Y-108261904D02*
X105828571Y-108300000D01*
X105790476Y-108338095D01*
X105752380Y-108300000D01*
X105790476Y-108261904D01*
X105790476Y-108338095D01*
X105066666Y-109061904D02*
X105066666Y-108642857D01*
X105104761Y-108566666D01*
X105180952Y-108528571D01*
X105333333Y-108528571D01*
X105409523Y-108566666D01*
X105066666Y-109023809D02*
X105142857Y-109061904D01*
X105333333Y-109061904D01*
X105409523Y-109023809D01*
X105447619Y-108947619D01*
X105447619Y-108871428D01*
X105409523Y-108795238D01*
X105333333Y-108757142D01*
X105142857Y-108757142D01*
X105066666Y-108719047D01*
X104571428Y-109061904D02*
X104647619Y-109023809D01*
X104685714Y-108985714D01*
X104723809Y-108909523D01*
X104723809Y-108680952D01*
X104685714Y-108604761D01*
X104647619Y-108566666D01*
X104571428Y-108528571D01*
X104457142Y-108528571D01*
X104380952Y-108566666D01*
X104342857Y-108604761D01*
X104304761Y-108680952D01*
X104304761Y-108909523D01*
X104342857Y-108985714D01*
X104380952Y-109023809D01*
X104457142Y-109061904D01*
X104571428Y-109061904D01*
X103961904Y-109061904D02*
X103961904Y-108528571D01*
X103961904Y-108604761D02*
X103923809Y-108566666D01*
X103847619Y-108528571D01*
X103733333Y-108528571D01*
X103657142Y-108566666D01*
X103619047Y-108642857D01*
X103619047Y-109061904D01*
X103619047Y-108642857D02*
X103580952Y-108566666D01*
X103504761Y-108528571D01*
X103390476Y-108528571D01*
X103314285Y-108566666D01*
X103276190Y-108642857D01*
X103276190Y-109061904D01*
X102780952Y-109061904D02*
X102857142Y-109023809D01*
X102895238Y-108985714D01*
X102933333Y-108909523D01*
X102933333Y-108680952D01*
X102895238Y-108604761D01*
X102857142Y-108566666D01*
X102780952Y-108528571D01*
X102666666Y-108528571D01*
X102590476Y-108566666D01*
X102552380Y-108604761D01*
X102514285Y-108680952D01*
X102514285Y-108909523D01*
X102552380Y-108985714D01*
X102590476Y-109023809D01*
X102666666Y-109061904D01*
X102780952Y-109061904D01*
X101828571Y-109061904D02*
X101828571Y-108261904D01*
X101828571Y-109023809D02*
X101904761Y-109061904D01*
X102057142Y-109061904D01*
X102133333Y-109023809D01*
X102171428Y-108985714D01*
X102209523Y-108909523D01*
X102209523Y-108680952D01*
X102171428Y-108604761D01*
X102133333Y-108566666D01*
X102057142Y-108528571D01*
X101904761Y-108528571D01*
X101828571Y-108566666D01*
X101104761Y-108528571D02*
X101104761Y-109061904D01*
X101447619Y-108528571D02*
X101447619Y-108947619D01*
X101409523Y-109023809D01*
X101333333Y-109061904D01*
X101219047Y-109061904D01*
X101142857Y-109023809D01*
X101104761Y-108985714D01*
X100609523Y-109061904D02*
X100685714Y-109023809D01*
X100723809Y-108947619D01*
X100723809Y-108261904D01*
X99961904Y-109061904D02*
X99961904Y-108642857D01*
X100000000Y-108566666D01*
X100076190Y-108528571D01*
X100228571Y-108528571D01*
X100304761Y-108566666D01*
X99961904Y-109023809D02*
X100038095Y-109061904D01*
X100228571Y-109061904D01*
X100304761Y-109023809D01*
X100342857Y-108947619D01*
X100342857Y-108871428D01*
X100304761Y-108795238D01*
X100228571Y-108757142D01*
X100038095Y-108757142D01*
X99961904Y-108719047D01*
X99580952Y-109061904D02*
X99580952Y-108528571D01*
X99580952Y-108680952D02*
X99542857Y-108604761D01*
X99504761Y-108566666D01*
X99428571Y-108528571D01*
X99352380Y-108528571D01*
D11*
X95176190Y-114852380D02*
X95128571Y-114804761D01*
X95080952Y-114709523D01*
X95080952Y-114614285D01*
X95128571Y-114519047D01*
X95176190Y-114471428D01*
X95271428Y-114423809D01*
X95366666Y-114423809D01*
X95461904Y-114471428D01*
X95509523Y-114519047D01*
X95557142Y-114614285D01*
X95557142Y-114709523D01*
X95509523Y-114804761D01*
X95461904Y-114852380D01*
X95080952Y-114852380D02*
X95461904Y-114852380D01*
X95509523Y-114900000D01*
X95509523Y-114947619D01*
X95461904Y-115042857D01*
X95366666Y-115090476D01*
X95128571Y-115090476D01*
X94985714Y-114995238D01*
X94890476Y-114852380D01*
X94842857Y-114661904D01*
X94890476Y-114471428D01*
X94985714Y-114328571D01*
X95128571Y-114233333D01*
X95319047Y-114185714D01*
X95509523Y-114233333D01*
X95652380Y-114328571D01*
X95747619Y-114471428D01*
X95795238Y-114661904D01*
X95747619Y-114852380D01*
X95652380Y-114995238D01*
X95652380Y-115519047D02*
X94652380Y-115519047D01*
X95033333Y-115519047D02*
X94985714Y-115614285D01*
X94985714Y-115804761D01*
X95033333Y-115900000D01*
X95080952Y-115947619D01*
X95176190Y-115995238D01*
X95461904Y-115995238D01*
X95557142Y-115947619D01*
X95604761Y-115900000D01*
X95652380Y-115804761D01*
X95652380Y-115614285D01*
X95604761Y-115519047D01*
X95604761Y-116804761D02*
X95652380Y-116709523D01*
X95652380Y-116519047D01*
X95604761Y-116423809D01*
X95509523Y-116376190D01*
X95128571Y-116376190D01*
X95033333Y-116423809D01*
X94985714Y-116519047D01*
X94985714Y-116709523D01*
X95033333Y-116804761D01*
X95128571Y-116852380D01*
X95223809Y-116852380D01*
X95319047Y-116376190D01*
X94985714Y-117280952D02*
X95652380Y-117280952D01*
X95080952Y-117280952D02*
X95033333Y-117328571D01*
X94985714Y-117423809D01*
X94985714Y-117566666D01*
X95033333Y-117661904D01*
X95128571Y-117709523D01*
X95652380Y-117709523D01*
X94985714Y-118185714D02*
X95842857Y-118185714D01*
X95938095Y-118138095D01*
X95985714Y-118042857D01*
X95985714Y-117995238D01*
X94652380Y-118185714D02*
X94700000Y-118138095D01*
X94747619Y-118185714D01*
X94700000Y-118233333D01*
X94652380Y-118185714D01*
X94747619Y-118185714D01*
X95652380Y-118661904D02*
X94985714Y-118661904D01*
X94652380Y-118661904D02*
X94700000Y-118614285D01*
X94747619Y-118661904D01*
X94700000Y-118709523D01*
X94652380Y-118661904D01*
X94747619Y-118661904D01*
X95652380Y-119566666D02*
X95128571Y-119566666D01*
X95033333Y-119519047D01*
X94985714Y-119423809D01*
X94985714Y-119233333D01*
X95033333Y-119138095D01*
X95604761Y-119566666D02*
X95652380Y-119471428D01*
X95652380Y-119233333D01*
X95604761Y-119138095D01*
X95509523Y-119090476D01*
X95414285Y-119090476D01*
X95319047Y-119138095D01*
X95271428Y-119233333D01*
X95271428Y-119471428D01*
X95223809Y-119566666D01*
X95652380Y-120185714D02*
X95604761Y-120090476D01*
X95557142Y-120042857D01*
X95461904Y-119995238D01*
X95176190Y-119995238D01*
X95080952Y-120042857D01*
X95033333Y-120090476D01*
X94985714Y-120185714D01*
X94985714Y-120328571D01*
X95033333Y-120423809D01*
X95080952Y-120471428D01*
X95176190Y-120519047D01*
X95461904Y-120519047D01*
X95557142Y-120471428D01*
X95604761Y-120423809D01*
X95652380Y-120328571D01*
X95652380Y-120185714D01*
X95652380Y-120947619D02*
X94985714Y-120947619D01*
X95080952Y-120947619D02*
X95033333Y-120995238D01*
X94985714Y-121090476D01*
X94985714Y-121233333D01*
X95033333Y-121328571D01*
X95128571Y-121376190D01*
X95652380Y-121376190D01*
X95128571Y-121376190D02*
X95033333Y-121423809D01*
X94985714Y-121519047D01*
X94985714Y-121661904D01*
X95033333Y-121757142D01*
X95128571Y-121804761D01*
X95652380Y-121804761D01*
X95652380Y-122423809D02*
X95604761Y-122328571D01*
X95557142Y-122280952D01*
X95461904Y-122233333D01*
X95176190Y-122233333D01*
X95080952Y-122280952D01*
X95033333Y-122328571D01*
X94985714Y-122423809D01*
X94985714Y-122566666D01*
X95033333Y-122661904D01*
X95080952Y-122709523D01*
X95176190Y-122757142D01*
X95461904Y-122757142D01*
X95557142Y-122709523D01*
X95604761Y-122661904D01*
X95652380Y-122566666D01*
X95652380Y-122423809D01*
X95652380Y-123614285D02*
X94652380Y-123614285D01*
X95604761Y-123614285D02*
X95652380Y-123519047D01*
X95652380Y-123328571D01*
X95604761Y-123233333D01*
X95557142Y-123185714D01*
X95461904Y-123138095D01*
X95176190Y-123138095D01*
X95080952Y-123185714D01*
X95033333Y-123233333D01*
X94985714Y-123328571D01*
X94985714Y-123519047D01*
X95033333Y-123614285D01*
X94985714Y-124519047D02*
X95652380Y-124519047D01*
X94985714Y-124090476D02*
X95509523Y-124090476D01*
X95604761Y-124138095D01*
X95652380Y-124233333D01*
X95652380Y-124376190D01*
X95604761Y-124471428D01*
X95557142Y-124519047D01*
X95652380Y-125138095D02*
X95604761Y-125042857D01*
X95509523Y-124995238D01*
X94652380Y-124995238D01*
X95652380Y-125947619D02*
X95128571Y-125947619D01*
X95033333Y-125900000D01*
X94985714Y-125804761D01*
X94985714Y-125614285D01*
X95033333Y-125519047D01*
X95604761Y-125947619D02*
X95652380Y-125852380D01*
X95652380Y-125614285D01*
X95604761Y-125519047D01*
X95509523Y-125471428D01*
X95414285Y-125471428D01*
X95319047Y-125519047D01*
X95271428Y-125614285D01*
X95271428Y-125852380D01*
X95223809Y-125947619D01*
X95652380Y-126423809D02*
X94985714Y-126423809D01*
X95176190Y-126423809D02*
X95080952Y-126471428D01*
X95033333Y-126519047D01*
X94985714Y-126614285D01*
X94985714Y-126709523D01*
D10*
X100369047Y-100702380D02*
X100369047Y-99702380D01*
X100035714Y-100416666D01*
X99702380Y-99702380D01*
X99702380Y-100702380D01*
X99226190Y-100702380D02*
X99226190Y-100035714D01*
X99226190Y-99702380D02*
X99273809Y-99750000D01*
X99226190Y-99797619D01*
X99178571Y-99750000D01*
X99226190Y-99702380D01*
X99226190Y-99797619D01*
X98750000Y-100035714D02*
X98750000Y-100702380D01*
X98750000Y-100130952D02*
X98702380Y-100083333D01*
X98607142Y-100035714D01*
X98464285Y-100035714D01*
X98369047Y-100083333D01*
X98321428Y-100178571D01*
X98321428Y-100702380D01*
X97845238Y-100702380D02*
X97845238Y-100035714D01*
X97845238Y-99702380D02*
X97892857Y-99750000D01*
X97845238Y-99797619D01*
X97797619Y-99750000D01*
X97845238Y-99702380D01*
X97845238Y-99797619D01*
X97511904Y-99702380D02*
X97178571Y-100702380D01*
X96845238Y-99702380D01*
X95940476Y-100607142D02*
X95988095Y-100654761D01*
X96130952Y-100702380D01*
X96226190Y-100702380D01*
X96369047Y-100654761D01*
X96464285Y-100559523D01*
X96511904Y-100464285D01*
X96559523Y-100273809D01*
X96559523Y-100130952D01*
X96511904Y-99940476D01*
X96464285Y-99845238D01*
X96369047Y-99750000D01*
X96226190Y-99702380D01*
X96130952Y-99702380D01*
X95988095Y-99750000D01*
X95940476Y-99797619D01*
X95559523Y-100416666D02*
X95083333Y-100416666D01*
X95654761Y-100702380D02*
X95321428Y-99702380D01*
X94988095Y-100702380D01*
X100202380Y-101952380D02*
X100202380Y-101285714D01*
X100202380Y-101476190D02*
X100154761Y-101380952D01*
X100107142Y-101333333D01*
X100011904Y-101285714D01*
X99916666Y-101285714D01*
X99202380Y-101904761D02*
X99297619Y-101952380D01*
X99488095Y-101952380D01*
X99583333Y-101904761D01*
X99630952Y-101809523D01*
X99630952Y-101428571D01*
X99583333Y-101333333D01*
X99488095Y-101285714D01*
X99297619Y-101285714D01*
X99202380Y-101333333D01*
X99154761Y-101428571D01*
X99154761Y-101523809D01*
X99630952Y-101619047D01*
X98821428Y-101285714D02*
X98583333Y-101952380D01*
X98345238Y-101285714D01*
X96678571Y-101952380D02*
X97250000Y-101952380D01*
X96964285Y-101952380D02*
X96964285Y-100952380D01*
X97059523Y-101095238D01*
X97154761Y-101190476D01*
X97250000Y-101238095D01*
X96250000Y-101857142D02*
X96202380Y-101904761D01*
X96250000Y-101952380D01*
X96297619Y-101904761D01*
X96250000Y-101857142D01*
X96250000Y-101952380D01*
X95583333Y-100952380D02*
X95488095Y-100952380D01*
X95392857Y-101000000D01*
X95345238Y-101047619D01*
X95297619Y-101142857D01*
X95250000Y-101333333D01*
X95250000Y-101571428D01*
X95297619Y-101761904D01*
X95345238Y-101857142D01*
X95392857Y-101904761D01*
X95488095Y-101952380D01*
X95583333Y-101952380D01*
X95678571Y-101904761D01*
X95726190Y-101857142D01*
X95773809Y-101761904D01*
X95821428Y-101571428D01*
X95821428Y-101333333D01*
X95773809Y-101142857D01*
X95726190Y-101047619D01*
X95678571Y-101000000D01*
X95583333Y-100952380D01*
D12*
%TO.C,R10*%
X98320000Y-123370000D02*
X98320000Y-123040000D01*
X104860000Y-123370000D02*
X98320000Y-123370000D01*
X104860000Y-123040000D02*
X104860000Y-123370000D01*
X98320000Y-120630000D02*
X98320000Y-120960000D01*
X104860000Y-120630000D02*
X98320000Y-120630000D01*
X104860000Y-120960000D02*
X104860000Y-120630000D01*
%TO.C,R5*%
X104880000Y-126930000D02*
X104880000Y-127260000D01*
X98340000Y-126930000D02*
X104880000Y-126930000D01*
X98340000Y-127260000D02*
X98340000Y-126930000D01*
X104880000Y-129670000D02*
X104880000Y-129340000D01*
X98340000Y-129670000D02*
X104880000Y-129670000D01*
X98340000Y-129340000D02*
X98340000Y-129670000D01*
%TO.C,C6*%
X95580000Y-91830000D02*
X95580000Y-95870000D01*
X98420000Y-91830000D02*
X98420000Y-95870000D01*
X95580000Y-91830000D02*
X96205000Y-91830000D01*
X97795000Y-91830000D02*
X98420000Y-91830000D01*
X95580000Y-95870000D02*
X96205000Y-95870000D01*
X97795000Y-95870000D02*
X98420000Y-95870000D01*
%TO.C,U2*%
X105190000Y-86170000D02*
X106440000Y-86170000D01*
X106440000Y-86170000D02*
X106440000Y-96450000D01*
X106440000Y-96450000D02*
X101940000Y-96450000D01*
X101940000Y-96450000D02*
X101940000Y-86170000D01*
X101940000Y-86170000D02*
X103190000Y-86170000D01*
X109440000Y-86110000D02*
X109440000Y-96510000D01*
X109440000Y-96510000D02*
X98940000Y-96510000D01*
X98940000Y-96510000D02*
X98940000Y-86110000D01*
X98940000Y-86110000D02*
X109440000Y-86110000D01*
X103190000Y-86170000D02*
G75*
G03*
X105190000Y-86170000I1000000J0D01*
G01*
%TO.C,Q1*%
X107940000Y-101950000D02*
X111540000Y-101950000D01*
X112064184Y-102677205D02*
G75*
G03*
X111540000Y-101950000I-2324184J-1122795D01*
G01*
X112096400Y-104898807D02*
G75*
G02*
X109740000Y-106400000I-2356400J1098807D01*
G01*
X107383600Y-104898807D02*
G75*
G03*
X109740000Y-106400000I2356400J1098807D01*
G01*
X107415816Y-102677205D02*
G75*
G02*
X107940000Y-101950000I2324184J-1122795D01*
G01*
%TO.C,C1*%
X97695225Y-81725000D02*
X97695225Y-81225000D01*
X97445225Y-81475000D02*
X97945225Y-81475000D01*
X102851000Y-80284000D02*
X102851000Y-79716000D01*
X102811000Y-80518000D02*
X102811000Y-79482000D01*
X102771000Y-80677000D02*
X102771000Y-79323000D01*
X102731000Y-80805000D02*
X102731000Y-79195000D01*
X102691000Y-80915000D02*
X102691000Y-79085000D01*
X102651000Y-81011000D02*
X102651000Y-78989000D01*
X102611000Y-81098000D02*
X102611000Y-78902000D01*
X102571000Y-81178000D02*
X102571000Y-78822000D01*
X102531000Y-78960000D02*
X102531000Y-78749000D01*
X102531000Y-81251000D02*
X102531000Y-81040000D01*
X102491000Y-78960000D02*
X102491000Y-78681000D01*
X102491000Y-81319000D02*
X102491000Y-81040000D01*
X102451000Y-78960000D02*
X102451000Y-78617000D01*
X102451000Y-81383000D02*
X102451000Y-81040000D01*
X102411000Y-78960000D02*
X102411000Y-78557000D01*
X102411000Y-81443000D02*
X102411000Y-81040000D01*
X102371000Y-78960000D02*
X102371000Y-78500000D01*
X102371000Y-81500000D02*
X102371000Y-81040000D01*
X102331000Y-78960000D02*
X102331000Y-78446000D01*
X102331000Y-81554000D02*
X102331000Y-81040000D01*
X102291000Y-78960000D02*
X102291000Y-78395000D01*
X102291000Y-81605000D02*
X102291000Y-81040000D01*
X102251000Y-78960000D02*
X102251000Y-78347000D01*
X102251000Y-81653000D02*
X102251000Y-81040000D01*
X102211000Y-78960000D02*
X102211000Y-78301000D01*
X102211000Y-81699000D02*
X102211000Y-81040000D01*
X102171000Y-78960000D02*
X102171000Y-78257000D01*
X102171000Y-81743000D02*
X102171000Y-81040000D01*
X102131000Y-78960000D02*
X102131000Y-78215000D01*
X102131000Y-81785000D02*
X102131000Y-81040000D01*
X102091000Y-78960000D02*
X102091000Y-78174000D01*
X102091000Y-81826000D02*
X102091000Y-81040000D01*
X102051000Y-78960000D02*
X102051000Y-78136000D01*
X102051000Y-81864000D02*
X102051000Y-81040000D01*
X102011000Y-78960000D02*
X102011000Y-78099000D01*
X102011000Y-81901000D02*
X102011000Y-81040000D01*
X101971000Y-78960000D02*
X101971000Y-78063000D01*
X101971000Y-81937000D02*
X101971000Y-81040000D01*
X101931000Y-78960000D02*
X101931000Y-78029000D01*
X101931000Y-81971000D02*
X101931000Y-81040000D01*
X101891000Y-78960000D02*
X101891000Y-77996000D01*
X101891000Y-82004000D02*
X101891000Y-81040000D01*
X101851000Y-78960000D02*
X101851000Y-77965000D01*
X101851000Y-82035000D02*
X101851000Y-81040000D01*
X101811000Y-78960000D02*
X101811000Y-77935000D01*
X101811000Y-82065000D02*
X101811000Y-81040000D01*
X101771000Y-78960000D02*
X101771000Y-77905000D01*
X101771000Y-82095000D02*
X101771000Y-81040000D01*
X101731000Y-78960000D02*
X101731000Y-77878000D01*
X101731000Y-82122000D02*
X101731000Y-81040000D01*
X101691000Y-78960000D02*
X101691000Y-77851000D01*
X101691000Y-82149000D02*
X101691000Y-81040000D01*
X101651000Y-78960000D02*
X101651000Y-77825000D01*
X101651000Y-82175000D02*
X101651000Y-81040000D01*
X101611000Y-78960000D02*
X101611000Y-77800000D01*
X101611000Y-82200000D02*
X101611000Y-81040000D01*
X101571000Y-78960000D02*
X101571000Y-77776000D01*
X101571000Y-82224000D02*
X101571000Y-81040000D01*
X101531000Y-78960000D02*
X101531000Y-77753000D01*
X101531000Y-82247000D02*
X101531000Y-81040000D01*
X101491000Y-78960000D02*
X101491000Y-77732000D01*
X101491000Y-82268000D02*
X101491000Y-81040000D01*
X101451000Y-78960000D02*
X101451000Y-77710000D01*
X101451000Y-82290000D02*
X101451000Y-81040000D01*
X101411000Y-78960000D02*
X101411000Y-77690000D01*
X101411000Y-82310000D02*
X101411000Y-81040000D01*
X101371000Y-78960000D02*
X101371000Y-77671000D01*
X101371000Y-82329000D02*
X101371000Y-81040000D01*
X101331000Y-78960000D02*
X101331000Y-77652000D01*
X101331000Y-82348000D02*
X101331000Y-81040000D01*
X101291000Y-78960000D02*
X101291000Y-77635000D01*
X101291000Y-82365000D02*
X101291000Y-81040000D01*
X101251000Y-78960000D02*
X101251000Y-77618000D01*
X101251000Y-82382000D02*
X101251000Y-81040000D01*
X101211000Y-78960000D02*
X101211000Y-77602000D01*
X101211000Y-82398000D02*
X101211000Y-81040000D01*
X101171000Y-78960000D02*
X101171000Y-77586000D01*
X101171000Y-82414000D02*
X101171000Y-81040000D01*
X101131000Y-78960000D02*
X101131000Y-77572000D01*
X101131000Y-82428000D02*
X101131000Y-81040000D01*
X101091000Y-78960000D02*
X101091000Y-77558000D01*
X101091000Y-82442000D02*
X101091000Y-81040000D01*
X101051000Y-78960000D02*
X101051000Y-77545000D01*
X101051000Y-82455000D02*
X101051000Y-81040000D01*
X101011000Y-78960000D02*
X101011000Y-77532000D01*
X101011000Y-82468000D02*
X101011000Y-81040000D01*
X100971000Y-78960000D02*
X100971000Y-77520000D01*
X100971000Y-82480000D02*
X100971000Y-81040000D01*
X100930000Y-78960000D02*
X100930000Y-77509000D01*
X100930000Y-82491000D02*
X100930000Y-81040000D01*
X100890000Y-78960000D02*
X100890000Y-77499000D01*
X100890000Y-82501000D02*
X100890000Y-81040000D01*
X100850000Y-78960000D02*
X100850000Y-77489000D01*
X100850000Y-82511000D02*
X100850000Y-81040000D01*
X100810000Y-78960000D02*
X100810000Y-77480000D01*
X100810000Y-82520000D02*
X100810000Y-81040000D01*
X100770000Y-78960000D02*
X100770000Y-77472000D01*
X100770000Y-82528000D02*
X100770000Y-81040000D01*
X100730000Y-78960000D02*
X100730000Y-77464000D01*
X100730000Y-82536000D02*
X100730000Y-81040000D01*
X100690000Y-78960000D02*
X100690000Y-77457000D01*
X100690000Y-82543000D02*
X100690000Y-81040000D01*
X100650000Y-78960000D02*
X100650000Y-77450000D01*
X100650000Y-82550000D02*
X100650000Y-81040000D01*
X100610000Y-78960000D02*
X100610000Y-77444000D01*
X100610000Y-82556000D02*
X100610000Y-81040000D01*
X100570000Y-78960000D02*
X100570000Y-77439000D01*
X100570000Y-82561000D02*
X100570000Y-81040000D01*
X100530000Y-78960000D02*
X100530000Y-77435000D01*
X100530000Y-82565000D02*
X100530000Y-81040000D01*
X100490000Y-78960000D02*
X100490000Y-77431000D01*
X100490000Y-82569000D02*
X100490000Y-81040000D01*
X100450000Y-82573000D02*
X100450000Y-77427000D01*
X100410000Y-82576000D02*
X100410000Y-77424000D01*
X100370000Y-82578000D02*
X100370000Y-77422000D01*
X100330000Y-82579000D02*
X100330000Y-77421000D01*
X100290000Y-82580000D02*
X100290000Y-77420000D01*
X100250000Y-82580000D02*
X100250000Y-77420000D01*
X102870000Y-80000000D02*
G75*
G03*
X102870000Y-80000000I-2620000J0D01*
G01*
%TO.C,C2*%
X99870000Y-75000000D02*
G75*
G03*
X99870000Y-75000000I-2620000J0D01*
G01*
X97250000Y-72420000D02*
X97250000Y-77580000D01*
X97210000Y-72420000D02*
X97210000Y-77580000D01*
X97170000Y-72421000D02*
X97170000Y-77579000D01*
X97130000Y-72422000D02*
X97130000Y-77578000D01*
X97090000Y-72424000D02*
X97090000Y-77576000D01*
X97050000Y-72427000D02*
X97050000Y-77573000D01*
X97010000Y-72431000D02*
X97010000Y-73960000D01*
X97010000Y-76040000D02*
X97010000Y-77569000D01*
X96970000Y-72435000D02*
X96970000Y-73960000D01*
X96970000Y-76040000D02*
X96970000Y-77565000D01*
X96930000Y-72439000D02*
X96930000Y-73960000D01*
X96930000Y-76040000D02*
X96930000Y-77561000D01*
X96890000Y-72444000D02*
X96890000Y-73960000D01*
X96890000Y-76040000D02*
X96890000Y-77556000D01*
X96850000Y-72450000D02*
X96850000Y-73960000D01*
X96850000Y-76040000D02*
X96850000Y-77550000D01*
X96810000Y-72457000D02*
X96810000Y-73960000D01*
X96810000Y-76040000D02*
X96810000Y-77543000D01*
X96770000Y-72464000D02*
X96770000Y-73960000D01*
X96770000Y-76040000D02*
X96770000Y-77536000D01*
X96730000Y-72472000D02*
X96730000Y-73960000D01*
X96730000Y-76040000D02*
X96730000Y-77528000D01*
X96690000Y-72480000D02*
X96690000Y-73960000D01*
X96690000Y-76040000D02*
X96690000Y-77520000D01*
X96650000Y-72489000D02*
X96650000Y-73960000D01*
X96650000Y-76040000D02*
X96650000Y-77511000D01*
X96610000Y-72499000D02*
X96610000Y-73960000D01*
X96610000Y-76040000D02*
X96610000Y-77501000D01*
X96570000Y-72509000D02*
X96570000Y-73960000D01*
X96570000Y-76040000D02*
X96570000Y-77491000D01*
X96529000Y-72520000D02*
X96529000Y-73960000D01*
X96529000Y-76040000D02*
X96529000Y-77480000D01*
X96489000Y-72532000D02*
X96489000Y-73960000D01*
X96489000Y-76040000D02*
X96489000Y-77468000D01*
X96449000Y-72545000D02*
X96449000Y-73960000D01*
X96449000Y-76040000D02*
X96449000Y-77455000D01*
X96409000Y-72558000D02*
X96409000Y-73960000D01*
X96409000Y-76040000D02*
X96409000Y-77442000D01*
X96369000Y-72572000D02*
X96369000Y-73960000D01*
X96369000Y-76040000D02*
X96369000Y-77428000D01*
X96329000Y-72586000D02*
X96329000Y-73960000D01*
X96329000Y-76040000D02*
X96329000Y-77414000D01*
X96289000Y-72602000D02*
X96289000Y-73960000D01*
X96289000Y-76040000D02*
X96289000Y-77398000D01*
X96249000Y-72618000D02*
X96249000Y-73960000D01*
X96249000Y-76040000D02*
X96249000Y-77382000D01*
X96209000Y-72635000D02*
X96209000Y-73960000D01*
X96209000Y-76040000D02*
X96209000Y-77365000D01*
X96169000Y-72652000D02*
X96169000Y-73960000D01*
X96169000Y-76040000D02*
X96169000Y-77348000D01*
X96129000Y-72671000D02*
X96129000Y-73960000D01*
X96129000Y-76040000D02*
X96129000Y-77329000D01*
X96089000Y-72690000D02*
X96089000Y-73960000D01*
X96089000Y-76040000D02*
X96089000Y-77310000D01*
X96049000Y-72710000D02*
X96049000Y-73960000D01*
X96049000Y-76040000D02*
X96049000Y-77290000D01*
X96009000Y-72732000D02*
X96009000Y-73960000D01*
X96009000Y-76040000D02*
X96009000Y-77268000D01*
X95969000Y-72753000D02*
X95969000Y-73960000D01*
X95969000Y-76040000D02*
X95969000Y-77247000D01*
X95929000Y-72776000D02*
X95929000Y-73960000D01*
X95929000Y-76040000D02*
X95929000Y-77224000D01*
X95889000Y-72800000D02*
X95889000Y-73960000D01*
X95889000Y-76040000D02*
X95889000Y-77200000D01*
X95849000Y-72825000D02*
X95849000Y-73960000D01*
X95849000Y-76040000D02*
X95849000Y-77175000D01*
X95809000Y-72851000D02*
X95809000Y-73960000D01*
X95809000Y-76040000D02*
X95809000Y-77149000D01*
X95769000Y-72878000D02*
X95769000Y-73960000D01*
X95769000Y-76040000D02*
X95769000Y-77122000D01*
X95729000Y-72905000D02*
X95729000Y-73960000D01*
X95729000Y-76040000D02*
X95729000Y-77095000D01*
X95689000Y-72935000D02*
X95689000Y-73960000D01*
X95689000Y-76040000D02*
X95689000Y-77065000D01*
X95649000Y-72965000D02*
X95649000Y-73960000D01*
X95649000Y-76040000D02*
X95649000Y-77035000D01*
X95609000Y-72996000D02*
X95609000Y-73960000D01*
X95609000Y-76040000D02*
X95609000Y-77004000D01*
X95569000Y-73029000D02*
X95569000Y-73960000D01*
X95569000Y-76040000D02*
X95569000Y-76971000D01*
X95529000Y-73063000D02*
X95529000Y-73960000D01*
X95529000Y-76040000D02*
X95529000Y-76937000D01*
X95489000Y-73099000D02*
X95489000Y-73960000D01*
X95489000Y-76040000D02*
X95489000Y-76901000D01*
X95449000Y-73136000D02*
X95449000Y-73960000D01*
X95449000Y-76040000D02*
X95449000Y-76864000D01*
X95409000Y-73174000D02*
X95409000Y-73960000D01*
X95409000Y-76040000D02*
X95409000Y-76826000D01*
X95369000Y-73215000D02*
X95369000Y-73960000D01*
X95369000Y-76040000D02*
X95369000Y-76785000D01*
X95329000Y-73257000D02*
X95329000Y-73960000D01*
X95329000Y-76040000D02*
X95329000Y-76743000D01*
X95289000Y-73301000D02*
X95289000Y-73960000D01*
X95289000Y-76040000D02*
X95289000Y-76699000D01*
X95249000Y-73347000D02*
X95249000Y-73960000D01*
X95249000Y-76040000D02*
X95249000Y-76653000D01*
X95209000Y-73395000D02*
X95209000Y-73960000D01*
X95209000Y-76040000D02*
X95209000Y-76605000D01*
X95169000Y-73446000D02*
X95169000Y-73960000D01*
X95169000Y-76040000D02*
X95169000Y-76554000D01*
X95129000Y-73500000D02*
X95129000Y-73960000D01*
X95129000Y-76040000D02*
X95129000Y-76500000D01*
X95089000Y-73557000D02*
X95089000Y-73960000D01*
X95089000Y-76040000D02*
X95089000Y-76443000D01*
X95049000Y-73617000D02*
X95049000Y-73960000D01*
X95049000Y-76040000D02*
X95049000Y-76383000D01*
X95009000Y-73681000D02*
X95009000Y-73960000D01*
X95009000Y-76040000D02*
X95009000Y-76319000D01*
X94969000Y-73749000D02*
X94969000Y-73960000D01*
X94969000Y-76040000D02*
X94969000Y-76251000D01*
X94929000Y-73822000D02*
X94929000Y-76178000D01*
X94889000Y-73902000D02*
X94889000Y-76098000D01*
X94849000Y-73989000D02*
X94849000Y-76011000D01*
X94809000Y-74085000D02*
X94809000Y-75915000D01*
X94769000Y-74195000D02*
X94769000Y-75805000D01*
X94729000Y-74323000D02*
X94729000Y-75677000D01*
X94689000Y-74482000D02*
X94689000Y-75518000D01*
X94649000Y-74716000D02*
X94649000Y-75284000D01*
X100054775Y-73525000D02*
X99554775Y-73525000D01*
X99804775Y-73275000D02*
X99804775Y-73775000D01*
%TO.C,C3*%
X101720000Y-130130000D02*
X94280000Y-130130000D01*
X101720000Y-132870000D02*
X94280000Y-132870000D01*
X101720000Y-130130000D02*
X101720000Y-132870000D01*
X94280000Y-130130000D02*
X94280000Y-132870000D01*
%TO.C,C4*%
X109620000Y-132870000D02*
X109620000Y-130130000D01*
X102180000Y-132870000D02*
X102180000Y-130130000D01*
X102180000Y-130130000D02*
X109620000Y-130130000D01*
X102180000Y-132870000D02*
X109620000Y-132870000D01*
%TO.C,C5*%
X112295000Y-90270000D02*
X112920000Y-90270000D01*
X110080000Y-90270000D02*
X110705000Y-90270000D01*
X112295000Y-86230000D02*
X112920000Y-86230000D01*
X110080000Y-86230000D02*
X110705000Y-86230000D01*
X112920000Y-86230000D02*
X112920000Y-90270000D01*
X110080000Y-86230000D02*
X110080000Y-90270000D01*
%TO.C,C7*%
X98370000Y-83380000D02*
X95630000Y-83380000D01*
X98370000Y-90820000D02*
X95630000Y-90820000D01*
X95630000Y-90820000D02*
X95630000Y-83380000D01*
X98370000Y-90820000D02*
X98370000Y-83380000D01*
%TO.C,C8*%
X101780000Y-99870000D02*
X109220000Y-99870000D01*
X101780000Y-97130000D02*
X109220000Y-97130000D01*
X101780000Y-99870000D02*
X101780000Y-97130000D01*
X109220000Y-99870000D02*
X109220000Y-97130000D01*
%TO.C,J5*%
X100960000Y-71560000D02*
X94990000Y-71560000D01*
X94990000Y-71560000D02*
X94990000Y-53940000D01*
X94990000Y-53940000D02*
X100960000Y-53940000D01*
X100960000Y-53940000D02*
X100960000Y-71560000D01*
X100950000Y-68250000D02*
X100200000Y-68250000D01*
X100200000Y-68250000D02*
X100200000Y-57250000D01*
X100200000Y-57250000D02*
X100950000Y-57250000D01*
X100950000Y-57250000D02*
X100950000Y-68250000D01*
X100950000Y-71550000D02*
X100200000Y-71550000D01*
X100200000Y-71550000D02*
X100200000Y-69750000D01*
X100200000Y-69750000D02*
X100950000Y-69750000D01*
X100950000Y-69750000D02*
X100950000Y-71550000D01*
X100950000Y-55750000D02*
X100200000Y-55750000D01*
X100200000Y-55750000D02*
X100200000Y-53950000D01*
X100200000Y-53950000D02*
X100950000Y-53950000D01*
X100950000Y-53950000D02*
X100950000Y-55750000D01*
X98700000Y-71550000D02*
X98700000Y-70800000D01*
X98700000Y-70800000D02*
X95750000Y-70800000D01*
X95750000Y-70800000D02*
X95750000Y-62750000D01*
X98700000Y-53950000D02*
X98700000Y-54700000D01*
X98700000Y-54700000D02*
X95750000Y-54700000D01*
X95750000Y-54700000D02*
X95750000Y-62750000D01*
X101250000Y-70600000D02*
X101250000Y-71850000D01*
X101250000Y-71850000D02*
X100000000Y-71850000D01*
%TO.C,J6*%
X112790000Y-53790000D02*
X103670000Y-53790000D01*
X103670000Y-53790000D02*
X103670000Y-81990000D01*
X103670000Y-81990000D02*
X112790000Y-81990000D01*
X112790000Y-81990000D02*
X112790000Y-53790000D01*
X112790000Y-65840000D02*
X111480000Y-65840000D01*
X111480000Y-65840000D02*
X111480000Y-55090000D01*
X111480000Y-55090000D02*
X104980000Y-55090000D01*
X104980000Y-55090000D02*
X104980000Y-80690000D01*
X104980000Y-80690000D02*
X111480000Y-80690000D01*
X111480000Y-80690000D02*
X111480000Y-69940000D01*
X111480000Y-69940000D02*
X111480000Y-69940000D01*
X111480000Y-69940000D02*
X112790000Y-69940000D01*
X113180000Y-59000000D02*
X114180000Y-58500000D01*
X114180000Y-58500000D02*
X114180000Y-59500000D01*
X114180000Y-59500000D02*
X113180000Y-59000000D01*
%TO.C,R6*%
X104880000Y-117530000D02*
X104880000Y-117860000D01*
X98340000Y-117530000D02*
X104880000Y-117530000D01*
X98340000Y-117860000D02*
X98340000Y-117530000D01*
X104880000Y-120270000D02*
X104880000Y-119940000D01*
X98340000Y-120270000D02*
X104880000Y-120270000D01*
X98340000Y-119940000D02*
X98340000Y-120270000D01*
%TO.C,R7*%
X98320000Y-126570000D02*
X98320000Y-126240000D01*
X104860000Y-126570000D02*
X98320000Y-126570000D01*
X104860000Y-126240000D02*
X104860000Y-126570000D01*
X98320000Y-123830000D02*
X98320000Y-124160000D01*
X104860000Y-123830000D02*
X98320000Y-123830000D01*
X104860000Y-124160000D02*
X104860000Y-123830000D01*
%TO.C,R8*%
X104860000Y-111460000D02*
X104860000Y-111130000D01*
X104860000Y-111130000D02*
X98320000Y-111130000D01*
X98320000Y-111130000D02*
X98320000Y-111460000D01*
X104860000Y-113540000D02*
X104860000Y-113870000D01*
X104860000Y-113870000D02*
X98320000Y-113870000D01*
X98320000Y-113870000D02*
X98320000Y-113540000D01*
%TO.C,R9*%
X98340000Y-116740000D02*
X98340000Y-117070000D01*
X98340000Y-117070000D02*
X104880000Y-117070000D01*
X104880000Y-117070000D02*
X104880000Y-116740000D01*
X98340000Y-114660000D02*
X98340000Y-114330000D01*
X98340000Y-114330000D02*
X104880000Y-114330000D01*
X104880000Y-114330000D02*
X104880000Y-114660000D01*
%TO.C,U1*%
X97685000Y-133670000D02*
X99920000Y-133670000D01*
X97685000Y-154110000D02*
X97685000Y-133670000D01*
X104155000Y-154110000D02*
X97685000Y-154110000D01*
X104155000Y-133670000D02*
X104155000Y-154110000D01*
X101920000Y-133670000D02*
X104155000Y-133670000D01*
X99920000Y-133670000D02*
G75*
G03*
X101920000Y-133670000I1000000J0D01*
G01*
%TO.C,J7*%
X90830000Y-110770000D02*
X88170000Y-110770000D01*
X90830000Y-110770000D02*
X90830000Y-148930000D01*
X90830000Y-148930000D02*
X88170000Y-148930000D01*
X88170000Y-110770000D02*
X88170000Y-148930000D01*
X88170000Y-108170000D02*
X88170000Y-109500000D01*
X89500000Y-108170000D02*
X88170000Y-108170000D01*
%TO.C,R10*%
D10*
X108542857Y-122552380D02*
X108876190Y-122076190D01*
X109114285Y-122552380D02*
X109114285Y-121552380D01*
X108733333Y-121552380D01*
X108638095Y-121600000D01*
X108590476Y-121647619D01*
X108542857Y-121742857D01*
X108542857Y-121885714D01*
X108590476Y-121980952D01*
X108638095Y-122028571D01*
X108733333Y-122076190D01*
X109114285Y-122076190D01*
X107590476Y-122552380D02*
X108161904Y-122552380D01*
X107876190Y-122552380D02*
X107876190Y-121552380D01*
X107971428Y-121695238D01*
X108066666Y-121790476D01*
X108161904Y-121838095D01*
X106971428Y-121552380D02*
X106876190Y-121552380D01*
X106780952Y-121600000D01*
X106733333Y-121647619D01*
X106685714Y-121742857D01*
X106638095Y-121933333D01*
X106638095Y-122171428D01*
X106685714Y-122361904D01*
X106733333Y-122457142D01*
X106780952Y-122504761D01*
X106876190Y-122552380D01*
X106971428Y-122552380D01*
X107066666Y-122504761D01*
X107114285Y-122457142D01*
X107161904Y-122361904D01*
X107209523Y-122171428D01*
X107209523Y-121933333D01*
X107161904Y-121742857D01*
X107114285Y-121647619D01*
X107066666Y-121600000D01*
X106971428Y-121552380D01*
X102161904Y-121452380D02*
X102352380Y-121452380D01*
X102447619Y-121500000D01*
X102495238Y-121547619D01*
X102590476Y-121690476D01*
X102638095Y-121880952D01*
X102638095Y-122261904D01*
X102590476Y-122357142D01*
X102542857Y-122404761D01*
X102447619Y-122452380D01*
X102257142Y-122452380D01*
X102161904Y-122404761D01*
X102114285Y-122357142D01*
X102066666Y-122261904D01*
X102066666Y-122023809D01*
X102114285Y-121928571D01*
X102161904Y-121880952D01*
X102257142Y-121833333D01*
X102447619Y-121833333D01*
X102542857Y-121880952D01*
X102590476Y-121928571D01*
X102638095Y-122023809D01*
X101495238Y-121880952D02*
X101590476Y-121833333D01*
X101638095Y-121785714D01*
X101685714Y-121690476D01*
X101685714Y-121642857D01*
X101638095Y-121547619D01*
X101590476Y-121500000D01*
X101495238Y-121452380D01*
X101304761Y-121452380D01*
X101209523Y-121500000D01*
X101161904Y-121547619D01*
X101114285Y-121642857D01*
X101114285Y-121690476D01*
X101161904Y-121785714D01*
X101209523Y-121833333D01*
X101304761Y-121880952D01*
X101495238Y-121880952D01*
X101590476Y-121928571D01*
X101638095Y-121976190D01*
X101685714Y-122071428D01*
X101685714Y-122261904D01*
X101638095Y-122357142D01*
X101590476Y-122404761D01*
X101495238Y-122452380D01*
X101304761Y-122452380D01*
X101209523Y-122404761D01*
X101161904Y-122357142D01*
X101114285Y-122261904D01*
X101114285Y-122071428D01*
X101161904Y-121976190D01*
X101209523Y-121928571D01*
X101304761Y-121880952D01*
X100495238Y-121452380D02*
X100400000Y-121452380D01*
X100304761Y-121500000D01*
X100257142Y-121547619D01*
X100209523Y-121642857D01*
X100161904Y-121833333D01*
X100161904Y-122071428D01*
X100209523Y-122261904D01*
X100257142Y-122357142D01*
X100304761Y-122404761D01*
X100400000Y-122452380D01*
X100495238Y-122452380D01*
X100590476Y-122404761D01*
X100638095Y-122357142D01*
X100685714Y-122261904D01*
X100733333Y-122071428D01*
X100733333Y-121833333D01*
X100685714Y-121642857D01*
X100638095Y-121547619D01*
X100590476Y-121500000D01*
X100495238Y-121452380D01*
%TO.C,R5*%
X107566666Y-128752380D02*
X107900000Y-128276190D01*
X108138095Y-128752380D02*
X108138095Y-127752380D01*
X107757142Y-127752380D01*
X107661904Y-127800000D01*
X107614285Y-127847619D01*
X107566666Y-127942857D01*
X107566666Y-128085714D01*
X107614285Y-128180952D01*
X107661904Y-128228571D01*
X107757142Y-128276190D01*
X108138095Y-128276190D01*
X106661904Y-127752380D02*
X107138095Y-127752380D01*
X107185714Y-128228571D01*
X107138095Y-128180952D01*
X107042857Y-128133333D01*
X106804761Y-128133333D01*
X106709523Y-128180952D01*
X106661904Y-128228571D01*
X106614285Y-128323809D01*
X106614285Y-128561904D01*
X106661904Y-128657142D01*
X106709523Y-128704761D01*
X106804761Y-128752380D01*
X107042857Y-128752380D01*
X107138095Y-128704761D01*
X107185714Y-128657142D01*
X102276666Y-128752380D02*
X102848095Y-128752380D01*
X102562380Y-128752380D02*
X102562380Y-127752380D01*
X102657619Y-127895238D01*
X102752857Y-127990476D01*
X102848095Y-128038095D01*
X101657619Y-127752380D02*
X101562380Y-127752380D01*
X101467142Y-127800000D01*
X101419523Y-127847619D01*
X101371904Y-127942857D01*
X101324285Y-128133333D01*
X101324285Y-128371428D01*
X101371904Y-128561904D01*
X101419523Y-128657142D01*
X101467142Y-128704761D01*
X101562380Y-128752380D01*
X101657619Y-128752380D01*
X101752857Y-128704761D01*
X101800476Y-128657142D01*
X101848095Y-128561904D01*
X101895714Y-128371428D01*
X101895714Y-128133333D01*
X101848095Y-127942857D01*
X101800476Y-127847619D01*
X101752857Y-127800000D01*
X101657619Y-127752380D01*
X100705238Y-127752380D02*
X100610000Y-127752380D01*
X100514761Y-127800000D01*
X100467142Y-127847619D01*
X100419523Y-127942857D01*
X100371904Y-128133333D01*
X100371904Y-128371428D01*
X100419523Y-128561904D01*
X100467142Y-128657142D01*
X100514761Y-128704761D01*
X100610000Y-128752380D01*
X100705238Y-128752380D01*
X100800476Y-128704761D01*
X100848095Y-128657142D01*
X100895714Y-128561904D01*
X100943333Y-128371428D01*
X100943333Y-128133333D01*
X100895714Y-127942857D01*
X100848095Y-127847619D01*
X100800476Y-127800000D01*
X100705238Y-127752380D01*
%TO.C,C6*%
X97357142Y-96933333D02*
X97404761Y-96885714D01*
X97452380Y-96742857D01*
X97452380Y-96647619D01*
X97404761Y-96504761D01*
X97309523Y-96409523D01*
X97214285Y-96361904D01*
X97023809Y-96314285D01*
X96880952Y-96314285D01*
X96690476Y-96361904D01*
X96595238Y-96409523D01*
X96500000Y-96504761D01*
X96452380Y-96647619D01*
X96452380Y-96742857D01*
X96500000Y-96885714D01*
X96547619Y-96933333D01*
X96452380Y-97790476D02*
X96452380Y-97600000D01*
X96500000Y-97504761D01*
X96547619Y-97457142D01*
X96690476Y-97361904D01*
X96880952Y-97314285D01*
X97261904Y-97314285D01*
X97357142Y-97361904D01*
X97404761Y-97409523D01*
X97452380Y-97504761D01*
X97452380Y-97695238D01*
X97404761Y-97790476D01*
X97357142Y-97838095D01*
X97261904Y-97885714D01*
X97023809Y-97885714D01*
X96928571Y-97838095D01*
X96880952Y-97790476D01*
X96833333Y-97695238D01*
X96833333Y-97504761D01*
X96880952Y-97409523D01*
X96928571Y-97361904D01*
X97023809Y-97314285D01*
D13*
X95161904Y-92761904D02*
X95161904Y-92304761D01*
X95161904Y-92533333D02*
X94361904Y-92533333D01*
X94476190Y-92457142D01*
X94552380Y-92380952D01*
X94590476Y-92304761D01*
X94438095Y-93066666D02*
X94400000Y-93104761D01*
X94361904Y-93180952D01*
X94361904Y-93371428D01*
X94400000Y-93447619D01*
X94438095Y-93485714D01*
X94514285Y-93523809D01*
X94590476Y-93523809D01*
X94704761Y-93485714D01*
X95161904Y-93028571D01*
X95161904Y-93523809D01*
X94361904Y-94019047D02*
X94361904Y-94095238D01*
X94400000Y-94171428D01*
X94438095Y-94209523D01*
X94514285Y-94247619D01*
X94666666Y-94285714D01*
X94857142Y-94285714D01*
X95009523Y-94247619D01*
X95085714Y-94209523D01*
X95123809Y-94171428D01*
X95161904Y-94095238D01*
X95161904Y-94019047D01*
X95123809Y-93942857D01*
X95085714Y-93904761D01*
X95009523Y-93866666D01*
X94857142Y-93828571D01*
X94666666Y-93828571D01*
X94514285Y-93866666D01*
X94438095Y-93904761D01*
X94400000Y-93942857D01*
X94361904Y-94019047D01*
X94628571Y-94628571D02*
X95428571Y-94628571D01*
X94666666Y-94628571D02*
X94628571Y-94704761D01*
X94628571Y-94857142D01*
X94666666Y-94933333D01*
X94704761Y-94971428D01*
X94780952Y-95009523D01*
X95009523Y-95009523D01*
X95085714Y-94971428D01*
X95123809Y-94933333D01*
X95161904Y-94857142D01*
X95161904Y-94704761D01*
X95123809Y-94628571D01*
X94742857Y-95619047D02*
X94742857Y-95352380D01*
X95161904Y-95352380D02*
X94361904Y-95352380D01*
X94361904Y-95733333D01*
%TO.C,U2*%
D10*
X107761904Y-84452380D02*
X107761904Y-85261904D01*
X107714285Y-85357142D01*
X107666666Y-85404761D01*
X107571428Y-85452380D01*
X107380952Y-85452380D01*
X107285714Y-85404761D01*
X107238095Y-85357142D01*
X107190476Y-85261904D01*
X107190476Y-84452380D01*
X106761904Y-84547619D02*
X106714285Y-84500000D01*
X106619047Y-84452380D01*
X106380952Y-84452380D01*
X106285714Y-84500000D01*
X106238095Y-84547619D01*
X106190476Y-84642857D01*
X106190476Y-84738095D01*
X106238095Y-84880952D01*
X106809523Y-85452380D01*
X106190476Y-85452380D01*
X104619047Y-84452380D02*
X104047619Y-84452380D01*
X104333333Y-85452380D02*
X104333333Y-84452380D01*
X103238095Y-85452380D02*
X103714285Y-85452380D01*
X103714285Y-84452380D01*
X102714285Y-84452380D02*
X102619047Y-84452380D01*
X102523809Y-84500000D01*
X102476190Y-84547619D01*
X102428571Y-84642857D01*
X102380952Y-84833333D01*
X102380952Y-85071428D01*
X102428571Y-85261904D01*
X102476190Y-85357142D01*
X102523809Y-85404761D01*
X102619047Y-85452380D01*
X102714285Y-85452380D01*
X102809523Y-85404761D01*
X102857142Y-85357142D01*
X102904761Y-85261904D01*
X102952380Y-85071428D01*
X102952380Y-84833333D01*
X102904761Y-84642857D01*
X102857142Y-84547619D01*
X102809523Y-84500000D01*
X102714285Y-84452380D01*
X102047619Y-84452380D02*
X101380952Y-84452380D01*
X101809523Y-85452380D01*
X101047619Y-84547619D02*
X101000000Y-84500000D01*
X100904761Y-84452380D01*
X100666666Y-84452380D01*
X100571428Y-84500000D01*
X100523809Y-84547619D01*
X100476190Y-84642857D01*
X100476190Y-84738095D01*
X100523809Y-84880952D01*
X101095238Y-85452380D01*
X100476190Y-85452380D01*
%TO.C,Q1*%
X112295238Y-101347619D02*
X112390476Y-101300000D01*
X112485714Y-101204761D01*
X112628571Y-101061904D01*
X112723809Y-101014285D01*
X112819047Y-101014285D01*
X112771428Y-101252380D02*
X112866666Y-101204761D01*
X112961904Y-101109523D01*
X113009523Y-100919047D01*
X113009523Y-100585714D01*
X112961904Y-100395238D01*
X112866666Y-100300000D01*
X112771428Y-100252380D01*
X112580952Y-100252380D01*
X112485714Y-100300000D01*
X112390476Y-100395238D01*
X112342857Y-100585714D01*
X112342857Y-100919047D01*
X112390476Y-101109523D01*
X112485714Y-101204761D01*
X112580952Y-101252380D01*
X112771428Y-101252380D01*
X111390476Y-101252380D02*
X111961904Y-101252380D01*
X111676190Y-101252380D02*
X111676190Y-100252380D01*
X111771428Y-100395238D01*
X111866666Y-100490476D01*
X111961904Y-100538095D01*
X110327142Y-100938571D02*
X110184285Y-100986190D01*
X110136666Y-101033809D01*
X110089047Y-101129047D01*
X110089047Y-101271904D01*
X110136666Y-101367142D01*
X110184285Y-101414761D01*
X110279523Y-101462380D01*
X110660476Y-101462380D01*
X110660476Y-100462380D01*
X110327142Y-100462380D01*
X110231904Y-100510000D01*
X110184285Y-100557619D01*
X110136666Y-100652857D01*
X110136666Y-100748095D01*
X110184285Y-100843333D01*
X110231904Y-100890952D01*
X110327142Y-100938571D01*
X110660476Y-100938571D01*
X109089047Y-101367142D02*
X109136666Y-101414761D01*
X109279523Y-101462380D01*
X109374761Y-101462380D01*
X109517619Y-101414761D01*
X109612857Y-101319523D01*
X109660476Y-101224285D01*
X109708095Y-101033809D01*
X109708095Y-100890952D01*
X109660476Y-100700476D01*
X109612857Y-100605238D01*
X109517619Y-100510000D01*
X109374761Y-100462380D01*
X109279523Y-100462380D01*
X109136666Y-100510000D01*
X109089047Y-100557619D01*
X108184285Y-100462380D02*
X108660476Y-100462380D01*
X108708095Y-100938571D01*
X108660476Y-100890952D01*
X108565238Y-100843333D01*
X108327142Y-100843333D01*
X108231904Y-100890952D01*
X108184285Y-100938571D01*
X108136666Y-101033809D01*
X108136666Y-101271904D01*
X108184285Y-101367142D01*
X108231904Y-101414761D01*
X108327142Y-101462380D01*
X108565238Y-101462380D01*
X108660476Y-101414761D01*
X108708095Y-101367142D01*
X107231904Y-100462380D02*
X107708095Y-100462380D01*
X107755714Y-100938571D01*
X107708095Y-100890952D01*
X107612857Y-100843333D01*
X107374761Y-100843333D01*
X107279523Y-100890952D01*
X107231904Y-100938571D01*
X107184285Y-101033809D01*
X107184285Y-101271904D01*
X107231904Y-101367142D01*
X107279523Y-101414761D01*
X107374761Y-101462380D01*
X107612857Y-101462380D01*
X107708095Y-101414761D01*
X107755714Y-101367142D01*
X106708095Y-101462380D02*
X106517619Y-101462380D01*
X106422380Y-101414761D01*
X106374761Y-101367142D01*
X106279523Y-101224285D01*
X106231904Y-101033809D01*
X106231904Y-100652857D01*
X106279523Y-100557619D01*
X106327142Y-100510000D01*
X106422380Y-100462380D01*
X106612857Y-100462380D01*
X106708095Y-100510000D01*
X106755714Y-100557619D01*
X106803333Y-100652857D01*
X106803333Y-100890952D01*
X106755714Y-100986190D01*
X106708095Y-101033809D01*
X106612857Y-101081428D01*
X106422380Y-101081428D01*
X106327142Y-101033809D01*
X106279523Y-100986190D01*
X106231904Y-100890952D01*
%TO.C,C1*%
X103966666Y-79157142D02*
X104014285Y-79204761D01*
X104157142Y-79252380D01*
X104252380Y-79252380D01*
X104395238Y-79204761D01*
X104490476Y-79109523D01*
X104538095Y-79014285D01*
X104585714Y-78823809D01*
X104585714Y-78680952D01*
X104538095Y-78490476D01*
X104490476Y-78395238D01*
X104395238Y-78300000D01*
X104252380Y-78252380D01*
X104157142Y-78252380D01*
X104014285Y-78300000D01*
X103966666Y-78347619D01*
X103014285Y-79252380D02*
X103585714Y-79252380D01*
X103300000Y-79252380D02*
X103300000Y-78252380D01*
X103395238Y-78395238D01*
X103490476Y-78490476D01*
X103585714Y-78538095D01*
X105547619Y-77952380D02*
X106119047Y-77952380D01*
X105833333Y-77952380D02*
X105833333Y-76952380D01*
X105928571Y-77095238D01*
X106023809Y-77190476D01*
X106119047Y-77238095D01*
X104928571Y-76952380D02*
X104833333Y-76952380D01*
X104738095Y-77000000D01*
X104690476Y-77047619D01*
X104642857Y-77142857D01*
X104595238Y-77333333D01*
X104595238Y-77571428D01*
X104642857Y-77761904D01*
X104690476Y-77857142D01*
X104738095Y-77904761D01*
X104833333Y-77952380D01*
X104928571Y-77952380D01*
X105023809Y-77904761D01*
X105071428Y-77857142D01*
X105119047Y-77761904D01*
X105166666Y-77571428D01*
X105166666Y-77333333D01*
X105119047Y-77142857D01*
X105071428Y-77047619D01*
X105023809Y-77000000D01*
X104928571Y-76952380D01*
X103976190Y-76952380D02*
X103880952Y-76952380D01*
X103785714Y-77000000D01*
X103738095Y-77047619D01*
X103690476Y-77142857D01*
X103642857Y-77333333D01*
X103642857Y-77571428D01*
X103690476Y-77761904D01*
X103738095Y-77857142D01*
X103785714Y-77904761D01*
X103880952Y-77952380D01*
X103976190Y-77952380D01*
X104071428Y-77904761D01*
X104119047Y-77857142D01*
X104166666Y-77761904D01*
X104214285Y-77571428D01*
X104214285Y-77333333D01*
X104166666Y-77142857D01*
X104119047Y-77047619D01*
X104071428Y-77000000D01*
X103976190Y-76952380D01*
X102785714Y-77285714D02*
X102785714Y-77952380D01*
X103214285Y-77285714D02*
X103214285Y-77809523D01*
X103166666Y-77904761D01*
X103071428Y-77952380D01*
X102928571Y-77952380D01*
X102833333Y-77904761D01*
X102785714Y-77857142D01*
X101976190Y-77428571D02*
X102309523Y-77428571D01*
X102309523Y-77952380D02*
X102309523Y-76952380D01*
X101833333Y-76952380D01*
%TO.C,C2*%
X101166666Y-74357142D02*
X101214285Y-74404761D01*
X101357142Y-74452380D01*
X101452380Y-74452380D01*
X101595238Y-74404761D01*
X101690476Y-74309523D01*
X101738095Y-74214285D01*
X101785714Y-74023809D01*
X101785714Y-73880952D01*
X101738095Y-73690476D01*
X101690476Y-73595238D01*
X101595238Y-73500000D01*
X101452380Y-73452380D01*
X101357142Y-73452380D01*
X101214285Y-73500000D01*
X101166666Y-73547619D01*
X100785714Y-73547619D02*
X100738095Y-73500000D01*
X100642857Y-73452380D01*
X100404761Y-73452380D01*
X100309523Y-73500000D01*
X100261904Y-73547619D01*
X100214285Y-73642857D01*
X100214285Y-73738095D01*
X100261904Y-73880952D01*
X100833333Y-74452380D01*
X100214285Y-74452380D01*
X102547619Y-73252380D02*
X103119047Y-73252380D01*
X102833333Y-73252380D02*
X102833333Y-72252380D01*
X102928571Y-72395238D01*
X103023809Y-72490476D01*
X103119047Y-72538095D01*
X101928571Y-72252380D02*
X101833333Y-72252380D01*
X101738095Y-72300000D01*
X101690476Y-72347619D01*
X101642857Y-72442857D01*
X101595238Y-72633333D01*
X101595238Y-72871428D01*
X101642857Y-73061904D01*
X101690476Y-73157142D01*
X101738095Y-73204761D01*
X101833333Y-73252380D01*
X101928571Y-73252380D01*
X102023809Y-73204761D01*
X102071428Y-73157142D01*
X102119047Y-73061904D01*
X102166666Y-72871428D01*
X102166666Y-72633333D01*
X102119047Y-72442857D01*
X102071428Y-72347619D01*
X102023809Y-72300000D01*
X101928571Y-72252380D01*
X100976190Y-72252380D02*
X100880952Y-72252380D01*
X100785714Y-72300000D01*
X100738095Y-72347619D01*
X100690476Y-72442857D01*
X100642857Y-72633333D01*
X100642857Y-72871428D01*
X100690476Y-73061904D01*
X100738095Y-73157142D01*
X100785714Y-73204761D01*
X100880952Y-73252380D01*
X100976190Y-73252380D01*
X101071428Y-73204761D01*
X101119047Y-73157142D01*
X101166666Y-73061904D01*
X101214285Y-72871428D01*
X101214285Y-72633333D01*
X101166666Y-72442857D01*
X101119047Y-72347619D01*
X101071428Y-72300000D01*
X100976190Y-72252380D01*
X99785714Y-72585714D02*
X99785714Y-73252380D01*
X100214285Y-72585714D02*
X100214285Y-73109523D01*
X100166666Y-73204761D01*
X100071428Y-73252380D01*
X99928571Y-73252380D01*
X99833333Y-73204761D01*
X99785714Y-73157142D01*
X98976190Y-72728571D02*
X99309523Y-72728571D01*
X99309523Y-73252380D02*
X99309523Y-72252380D01*
X98833333Y-72252380D01*
%TO.C,C3*%
X95566666Y-129857142D02*
X95614285Y-129904761D01*
X95757142Y-129952380D01*
X95852380Y-129952380D01*
X95995238Y-129904761D01*
X96090476Y-129809523D01*
X96138095Y-129714285D01*
X96185714Y-129523809D01*
X96185714Y-129380952D01*
X96138095Y-129190476D01*
X96090476Y-129095238D01*
X95995238Y-129000000D01*
X95852380Y-128952380D01*
X95757142Y-128952380D01*
X95614285Y-129000000D01*
X95566666Y-129047619D01*
X95233333Y-128952380D02*
X94614285Y-128952380D01*
X94947619Y-129333333D01*
X94804761Y-129333333D01*
X94709523Y-129380952D01*
X94661904Y-129428571D01*
X94614285Y-129523809D01*
X94614285Y-129761904D01*
X94661904Y-129857142D01*
X94709523Y-129904761D01*
X94804761Y-129952380D01*
X95090476Y-129952380D01*
X95185714Y-129904761D01*
X95233333Y-129857142D01*
X99547619Y-131952380D02*
X100119047Y-131952380D01*
X99833333Y-131952380D02*
X99833333Y-130952380D01*
X99928571Y-131095238D01*
X100023809Y-131190476D01*
X100119047Y-131238095D01*
X98928571Y-130952380D02*
X98833333Y-130952380D01*
X98738095Y-131000000D01*
X98690476Y-131047619D01*
X98642857Y-131142857D01*
X98595238Y-131333333D01*
X98595238Y-131571428D01*
X98642857Y-131761904D01*
X98690476Y-131857142D01*
X98738095Y-131904761D01*
X98833333Y-131952380D01*
X98928571Y-131952380D01*
X99023809Y-131904761D01*
X99071428Y-131857142D01*
X99119047Y-131761904D01*
X99166666Y-131571428D01*
X99166666Y-131333333D01*
X99119047Y-131142857D01*
X99071428Y-131047619D01*
X99023809Y-131000000D01*
X98928571Y-130952380D01*
X97976190Y-130952380D02*
X97880952Y-130952380D01*
X97785714Y-131000000D01*
X97738095Y-131047619D01*
X97690476Y-131142857D01*
X97642857Y-131333333D01*
X97642857Y-131571428D01*
X97690476Y-131761904D01*
X97738095Y-131857142D01*
X97785714Y-131904761D01*
X97880952Y-131952380D01*
X97976190Y-131952380D01*
X98071428Y-131904761D01*
X98119047Y-131857142D01*
X98166666Y-131761904D01*
X98214285Y-131571428D01*
X98214285Y-131333333D01*
X98166666Y-131142857D01*
X98119047Y-131047619D01*
X98071428Y-131000000D01*
X97976190Y-130952380D01*
X97214285Y-131285714D02*
X97214285Y-131952380D01*
X97214285Y-131380952D02*
X97166666Y-131333333D01*
X97071428Y-131285714D01*
X96928571Y-131285714D01*
X96833333Y-131333333D01*
X96785714Y-131428571D01*
X96785714Y-131952380D01*
X95976190Y-131428571D02*
X96309523Y-131428571D01*
X96309523Y-131952380D02*
X96309523Y-130952380D01*
X95833333Y-130952380D01*
%TO.C,C4*%
X108866666Y-133857142D02*
X108914285Y-133904761D01*
X109057142Y-133952380D01*
X109152380Y-133952380D01*
X109295238Y-133904761D01*
X109390476Y-133809523D01*
X109438095Y-133714285D01*
X109485714Y-133523809D01*
X109485714Y-133380952D01*
X109438095Y-133190476D01*
X109390476Y-133095238D01*
X109295238Y-133000000D01*
X109152380Y-132952380D01*
X109057142Y-132952380D01*
X108914285Y-133000000D01*
X108866666Y-133047619D01*
X108009523Y-133285714D02*
X108009523Y-133952380D01*
X108247619Y-132904761D02*
X108485714Y-133619047D01*
X107866666Y-133619047D01*
X107447619Y-131952380D02*
X108019047Y-131952380D01*
X107733333Y-131952380D02*
X107733333Y-130952380D01*
X107828571Y-131095238D01*
X107923809Y-131190476D01*
X108019047Y-131238095D01*
X106828571Y-130952380D02*
X106733333Y-130952380D01*
X106638095Y-131000000D01*
X106590476Y-131047619D01*
X106542857Y-131142857D01*
X106495238Y-131333333D01*
X106495238Y-131571428D01*
X106542857Y-131761904D01*
X106590476Y-131857142D01*
X106638095Y-131904761D01*
X106733333Y-131952380D01*
X106828571Y-131952380D01*
X106923809Y-131904761D01*
X106971428Y-131857142D01*
X107019047Y-131761904D01*
X107066666Y-131571428D01*
X107066666Y-131333333D01*
X107019047Y-131142857D01*
X106971428Y-131047619D01*
X106923809Y-131000000D01*
X106828571Y-130952380D01*
X105876190Y-130952380D02*
X105780952Y-130952380D01*
X105685714Y-131000000D01*
X105638095Y-131047619D01*
X105590476Y-131142857D01*
X105542857Y-131333333D01*
X105542857Y-131571428D01*
X105590476Y-131761904D01*
X105638095Y-131857142D01*
X105685714Y-131904761D01*
X105780952Y-131952380D01*
X105876190Y-131952380D01*
X105971428Y-131904761D01*
X106019047Y-131857142D01*
X106066666Y-131761904D01*
X106114285Y-131571428D01*
X106114285Y-131333333D01*
X106066666Y-131142857D01*
X106019047Y-131047619D01*
X105971428Y-131000000D01*
X105876190Y-130952380D01*
X105114285Y-131285714D02*
X105114285Y-131952380D01*
X105114285Y-131380952D02*
X105066666Y-131333333D01*
X104971428Y-131285714D01*
X104828571Y-131285714D01*
X104733333Y-131333333D01*
X104685714Y-131428571D01*
X104685714Y-131952380D01*
X103876190Y-131428571D02*
X104209523Y-131428571D01*
X104209523Y-131952380D02*
X104209523Y-130952380D01*
X103733333Y-130952380D01*
%TO.C,C5*%
X111666666Y-85657142D02*
X111714285Y-85704761D01*
X111857142Y-85752380D01*
X111952380Y-85752380D01*
X112095238Y-85704761D01*
X112190476Y-85609523D01*
X112238095Y-85514285D01*
X112285714Y-85323809D01*
X112285714Y-85180952D01*
X112238095Y-84990476D01*
X112190476Y-84895238D01*
X112095238Y-84800000D01*
X111952380Y-84752380D01*
X111857142Y-84752380D01*
X111714285Y-84800000D01*
X111666666Y-84847619D01*
X110761904Y-84752380D02*
X111238095Y-84752380D01*
X111285714Y-85228571D01*
X111238095Y-85180952D01*
X111142857Y-85133333D01*
X110904761Y-85133333D01*
X110809523Y-85180952D01*
X110761904Y-85228571D01*
X110714285Y-85323809D01*
X110714285Y-85561904D01*
X110761904Y-85657142D01*
X110809523Y-85704761D01*
X110904761Y-85752380D01*
X111142857Y-85752380D01*
X111238095Y-85704761D01*
X111285714Y-85657142D01*
X112838095Y-91361904D02*
X113295238Y-91361904D01*
X113066666Y-91361904D02*
X113066666Y-90561904D01*
X113142857Y-90676190D01*
X113219047Y-90752380D01*
X113295238Y-90790476D01*
X112533333Y-90638095D02*
X112495238Y-90600000D01*
X112419047Y-90561904D01*
X112228571Y-90561904D01*
X112152380Y-90600000D01*
X112114285Y-90638095D01*
X112076190Y-90714285D01*
X112076190Y-90790476D01*
X112114285Y-90904761D01*
X112571428Y-91361904D01*
X112076190Y-91361904D01*
X111580952Y-90561904D02*
X111504761Y-90561904D01*
X111428571Y-90600000D01*
X111390476Y-90638095D01*
X111352380Y-90714285D01*
X111314285Y-90866666D01*
X111314285Y-91057142D01*
X111352380Y-91209523D01*
X111390476Y-91285714D01*
X111428571Y-91323809D01*
X111504761Y-91361904D01*
X111580952Y-91361904D01*
X111657142Y-91323809D01*
X111695238Y-91285714D01*
X111733333Y-91209523D01*
X111771428Y-91057142D01*
X111771428Y-90866666D01*
X111733333Y-90714285D01*
X111695238Y-90638095D01*
X111657142Y-90600000D01*
X111580952Y-90561904D01*
X110971428Y-90828571D02*
X110971428Y-91628571D01*
X110971428Y-90866666D02*
X110895238Y-90828571D01*
X110742857Y-90828571D01*
X110666666Y-90866666D01*
X110628571Y-90904761D01*
X110590476Y-90980952D01*
X110590476Y-91209523D01*
X110628571Y-91285714D01*
X110666666Y-91323809D01*
X110742857Y-91361904D01*
X110895238Y-91361904D01*
X110971428Y-91323809D01*
X109980952Y-90942857D02*
X110247619Y-90942857D01*
X110247619Y-91361904D02*
X110247619Y-90561904D01*
X109866666Y-90561904D01*
%TO.C,C7*%
X97166666Y-82957142D02*
X97214285Y-83004761D01*
X97357142Y-83052380D01*
X97452380Y-83052380D01*
X97595238Y-83004761D01*
X97690476Y-82909523D01*
X97738095Y-82814285D01*
X97785714Y-82623809D01*
X97785714Y-82480952D01*
X97738095Y-82290476D01*
X97690476Y-82195238D01*
X97595238Y-82100000D01*
X97452380Y-82052380D01*
X97357142Y-82052380D01*
X97214285Y-82100000D01*
X97166666Y-82147619D01*
X96833333Y-82052380D02*
X96166666Y-82052380D01*
X96595238Y-83052380D01*
X95452380Y-84052380D02*
X95452380Y-83480952D01*
X95452380Y-83766666D02*
X94452380Y-83766666D01*
X94595238Y-83671428D01*
X94690476Y-83576190D01*
X94738095Y-83480952D01*
X94452380Y-84671428D02*
X94452380Y-84766666D01*
X94500000Y-84861904D01*
X94547619Y-84909523D01*
X94642857Y-84957142D01*
X94833333Y-85004761D01*
X95071428Y-85004761D01*
X95261904Y-84957142D01*
X95357142Y-84909523D01*
X95404761Y-84861904D01*
X95452380Y-84766666D01*
X95452380Y-84671428D01*
X95404761Y-84576190D01*
X95357142Y-84528571D01*
X95261904Y-84480952D01*
X95071428Y-84433333D01*
X94833333Y-84433333D01*
X94642857Y-84480952D01*
X94547619Y-84528571D01*
X94500000Y-84576190D01*
X94452380Y-84671428D01*
X94452380Y-85623809D02*
X94452380Y-85719047D01*
X94500000Y-85814285D01*
X94547619Y-85861904D01*
X94642857Y-85909523D01*
X94833333Y-85957142D01*
X95071428Y-85957142D01*
X95261904Y-85909523D01*
X95357142Y-85861904D01*
X95404761Y-85814285D01*
X95452380Y-85719047D01*
X95452380Y-85623809D01*
X95404761Y-85528571D01*
X95357142Y-85480952D01*
X95261904Y-85433333D01*
X95071428Y-85385714D01*
X94833333Y-85385714D01*
X94642857Y-85433333D01*
X94547619Y-85480952D01*
X94500000Y-85528571D01*
X94452380Y-85623809D01*
X94785714Y-86385714D02*
X95452380Y-86385714D01*
X94880952Y-86385714D02*
X94833333Y-86433333D01*
X94785714Y-86528571D01*
X94785714Y-86671428D01*
X94833333Y-86766666D01*
X94928571Y-86814285D01*
X95452380Y-86814285D01*
X94928571Y-87623809D02*
X94928571Y-87290476D01*
X95452380Y-87290476D02*
X94452380Y-87290476D01*
X94452380Y-87766666D01*
%TO.C,C8*%
X108966666Y-96657142D02*
X109014285Y-96704761D01*
X109157142Y-96752380D01*
X109252380Y-96752380D01*
X109395238Y-96704761D01*
X109490476Y-96609523D01*
X109538095Y-96514285D01*
X109585714Y-96323809D01*
X109585714Y-96180952D01*
X109538095Y-95990476D01*
X109490476Y-95895238D01*
X109395238Y-95800000D01*
X109252380Y-95752380D01*
X109157142Y-95752380D01*
X109014285Y-95800000D01*
X108966666Y-95847619D01*
X108395238Y-96180952D02*
X108490476Y-96133333D01*
X108538095Y-96085714D01*
X108585714Y-95990476D01*
X108585714Y-95942857D01*
X108538095Y-95847619D01*
X108490476Y-95800000D01*
X108395238Y-95752380D01*
X108204761Y-95752380D01*
X108109523Y-95800000D01*
X108061904Y-95847619D01*
X108014285Y-95942857D01*
X108014285Y-95990476D01*
X108061904Y-96085714D01*
X108109523Y-96133333D01*
X108204761Y-96180952D01*
X108395238Y-96180952D01*
X108490476Y-96228571D01*
X108538095Y-96276190D01*
X108585714Y-96371428D01*
X108585714Y-96561904D01*
X108538095Y-96657142D01*
X108490476Y-96704761D01*
X108395238Y-96752380D01*
X108204761Y-96752380D01*
X108109523Y-96704761D01*
X108061904Y-96657142D01*
X108014285Y-96561904D01*
X108014285Y-96371428D01*
X108061904Y-96276190D01*
X108109523Y-96228571D01*
X108204761Y-96180952D01*
X106747619Y-96752380D02*
X107319047Y-96752380D01*
X107033333Y-96752380D02*
X107033333Y-95752380D01*
X107128571Y-95895238D01*
X107223809Y-95990476D01*
X107319047Y-96038095D01*
X106128571Y-95752380D02*
X106033333Y-95752380D01*
X105938095Y-95800000D01*
X105890476Y-95847619D01*
X105842857Y-95942857D01*
X105795238Y-96133333D01*
X105795238Y-96371428D01*
X105842857Y-96561904D01*
X105890476Y-96657142D01*
X105938095Y-96704761D01*
X106033333Y-96752380D01*
X106128571Y-96752380D01*
X106223809Y-96704761D01*
X106271428Y-96657142D01*
X106319047Y-96561904D01*
X106366666Y-96371428D01*
X106366666Y-96133333D01*
X106319047Y-95942857D01*
X106271428Y-95847619D01*
X106223809Y-95800000D01*
X106128571Y-95752380D01*
X105176190Y-95752380D02*
X105080952Y-95752380D01*
X104985714Y-95800000D01*
X104938095Y-95847619D01*
X104890476Y-95942857D01*
X104842857Y-96133333D01*
X104842857Y-96371428D01*
X104890476Y-96561904D01*
X104938095Y-96657142D01*
X104985714Y-96704761D01*
X105080952Y-96752380D01*
X105176190Y-96752380D01*
X105271428Y-96704761D01*
X105319047Y-96657142D01*
X105366666Y-96561904D01*
X105414285Y-96371428D01*
X105414285Y-96133333D01*
X105366666Y-95942857D01*
X105319047Y-95847619D01*
X105271428Y-95800000D01*
X105176190Y-95752380D01*
X104414285Y-96085714D02*
X104414285Y-96752380D01*
X104414285Y-96180952D02*
X104366666Y-96133333D01*
X104271428Y-96085714D01*
X104128571Y-96085714D01*
X104033333Y-96133333D01*
X103985714Y-96228571D01*
X103985714Y-96752380D01*
X103176190Y-96228571D02*
X103509523Y-96228571D01*
X103509523Y-96752380D02*
X103509523Y-95752380D01*
X103033333Y-95752380D01*
%TO.C,J5*%
X101252380Y-62466666D02*
X101966666Y-62466666D01*
X102109523Y-62419047D01*
X102204761Y-62323809D01*
X102252380Y-62180952D01*
X102252380Y-62085714D01*
X101252380Y-63419047D02*
X101252380Y-62942857D01*
X101728571Y-62895238D01*
X101680952Y-62942857D01*
X101633333Y-63038095D01*
X101633333Y-63276190D01*
X101680952Y-63371428D01*
X101728571Y-63419047D01*
X101823809Y-63466666D01*
X102061904Y-63466666D01*
X102157142Y-63419047D01*
X102204761Y-63371428D01*
X102252380Y-63276190D01*
X102252380Y-63038095D01*
X102204761Y-62942857D01*
X102157142Y-62895238D01*
X101252380Y-54604761D02*
X101966666Y-54604761D01*
X102109523Y-54557142D01*
X102204761Y-54461904D01*
X102252380Y-54319047D01*
X102252380Y-54223809D01*
X102204761Y-55033333D02*
X102252380Y-55176190D01*
X102252380Y-55414285D01*
X102204761Y-55509523D01*
X102157142Y-55557142D01*
X102061904Y-55604761D01*
X101966666Y-55604761D01*
X101871428Y-55557142D01*
X101823809Y-55509523D01*
X101776190Y-55414285D01*
X101728571Y-55223809D01*
X101680952Y-55128571D01*
X101633333Y-55080952D01*
X101538095Y-55033333D01*
X101442857Y-55033333D01*
X101347619Y-55080952D01*
X101300000Y-55128571D01*
X101252380Y-55223809D01*
X101252380Y-55461904D01*
X101300000Y-55604761D01*
X101252380Y-55890476D02*
X101252380Y-56461904D01*
X102252380Y-56176190D02*
X101252380Y-56176190D01*
X102347619Y-56557142D02*
X102347619Y-57319047D01*
X101728571Y-57890476D02*
X101776190Y-58033333D01*
X101823809Y-58080952D01*
X101919047Y-58128571D01*
X102061904Y-58128571D01*
X102157142Y-58080952D01*
X102204761Y-58033333D01*
X102252380Y-57938095D01*
X102252380Y-57557142D01*
X101252380Y-57557142D01*
X101252380Y-57890476D01*
X101300000Y-57985714D01*
X101347619Y-58033333D01*
X101442857Y-58080952D01*
X101538095Y-58080952D01*
X101633333Y-58033333D01*
X101680952Y-57985714D01*
X101728571Y-57890476D01*
X101728571Y-57557142D01*
X101252380Y-58557142D02*
X102061904Y-58557142D01*
X102157142Y-58604761D01*
X102204761Y-58652380D01*
X102252380Y-58747619D01*
X102252380Y-58938095D01*
X102204761Y-59033333D01*
X102157142Y-59080952D01*
X102061904Y-59128571D01*
X101252380Y-59128571D01*
X102204761Y-59557142D02*
X102252380Y-59700000D01*
X102252380Y-59938095D01*
X102204761Y-60033333D01*
X102157142Y-60080952D01*
X102061904Y-60128571D01*
X101966666Y-60128571D01*
X101871428Y-60080952D01*
X101823809Y-60033333D01*
X101776190Y-59938095D01*
X101728571Y-59747619D01*
X101680952Y-59652380D01*
X101633333Y-59604761D01*
X101538095Y-59557142D01*
X101442857Y-59557142D01*
X101347619Y-59604761D01*
X101300000Y-59652380D01*
X101252380Y-59747619D01*
X101252380Y-59985714D01*
X101300000Y-60128571D01*
%TO.C,J6*%
X112333333Y-82252380D02*
X112333333Y-82966666D01*
X112380952Y-83109523D01*
X112476190Y-83204761D01*
X112619047Y-83252380D01*
X112714285Y-83252380D01*
X111428571Y-82252380D02*
X111619047Y-82252380D01*
X111714285Y-82300000D01*
X111761904Y-82347619D01*
X111857142Y-82490476D01*
X111904761Y-82680952D01*
X111904761Y-83061904D01*
X111857142Y-83157142D01*
X111809523Y-83204761D01*
X111714285Y-83252380D01*
X111523809Y-83252380D01*
X111428571Y-83204761D01*
X111380952Y-83157142D01*
X111333333Y-83061904D01*
X111333333Y-82823809D01*
X111380952Y-82728571D01*
X111428571Y-82680952D01*
X111523809Y-82633333D01*
X111714285Y-82633333D01*
X111809523Y-82680952D01*
X111857142Y-82728571D01*
X111904761Y-82823809D01*
X109480952Y-83052380D02*
X109480952Y-82052380D01*
X109004761Y-83052380D02*
X109004761Y-82052380D01*
X108766666Y-82052380D01*
X108623809Y-82100000D01*
X108528571Y-82195238D01*
X108480952Y-82290476D01*
X108433333Y-82480952D01*
X108433333Y-82623809D01*
X108480952Y-82814285D01*
X108528571Y-82909523D01*
X108623809Y-83004761D01*
X108766666Y-83052380D01*
X109004761Y-83052380D01*
X107433333Y-82957142D02*
X107480952Y-83004761D01*
X107623809Y-83052380D01*
X107719047Y-83052380D01*
X107861904Y-83004761D01*
X107957142Y-82909523D01*
X108004761Y-82814285D01*
X108052380Y-82623809D01*
X108052380Y-82480952D01*
X108004761Y-82290476D01*
X107957142Y-82195238D01*
X107861904Y-82100000D01*
X107719047Y-82052380D01*
X107623809Y-82052380D01*
X107480952Y-82100000D01*
X107433333Y-82147619D01*
X107242857Y-83147619D02*
X106480952Y-83147619D01*
X105909523Y-82528571D02*
X105766666Y-82576190D01*
X105719047Y-82623809D01*
X105671428Y-82719047D01*
X105671428Y-82861904D01*
X105719047Y-82957142D01*
X105766666Y-83004761D01*
X105861904Y-83052380D01*
X106242857Y-83052380D01*
X106242857Y-82052380D01*
X105909523Y-82052380D01*
X105814285Y-82100000D01*
X105766666Y-82147619D01*
X105719047Y-82242857D01*
X105719047Y-82338095D01*
X105766666Y-82433333D01*
X105814285Y-82480952D01*
X105909523Y-82528571D01*
X106242857Y-82528571D01*
X105242857Y-82052380D02*
X105242857Y-82861904D01*
X105195238Y-82957142D01*
X105147619Y-83004761D01*
X105052380Y-83052380D01*
X104861904Y-83052380D01*
X104766666Y-83004761D01*
X104719047Y-82957142D01*
X104671428Y-82861904D01*
X104671428Y-82052380D01*
X104242857Y-83004761D02*
X104100000Y-83052380D01*
X103861904Y-83052380D01*
X103766666Y-83004761D01*
X103719047Y-82957142D01*
X103671428Y-82861904D01*
X103671428Y-82766666D01*
X103719047Y-82671428D01*
X103766666Y-82623809D01*
X103861904Y-82576190D01*
X104052380Y-82528571D01*
X104147619Y-82480952D01*
X104195238Y-82433333D01*
X104242857Y-82338095D01*
X104242857Y-82242857D01*
X104195238Y-82147619D01*
X104147619Y-82100000D01*
X104052380Y-82052380D01*
X103814285Y-82052380D01*
X103671428Y-82100000D01*
%TO.C,R6*%
X107566666Y-119352380D02*
X107900000Y-118876190D01*
X108138095Y-119352380D02*
X108138095Y-118352380D01*
X107757142Y-118352380D01*
X107661904Y-118400000D01*
X107614285Y-118447619D01*
X107566666Y-118542857D01*
X107566666Y-118685714D01*
X107614285Y-118780952D01*
X107661904Y-118828571D01*
X107757142Y-118876190D01*
X108138095Y-118876190D01*
X106709523Y-118352380D02*
X106900000Y-118352380D01*
X106995238Y-118400000D01*
X107042857Y-118447619D01*
X107138095Y-118590476D01*
X107185714Y-118780952D01*
X107185714Y-119161904D01*
X107138095Y-119257142D01*
X107090476Y-119304761D01*
X106995238Y-119352380D01*
X106804761Y-119352380D01*
X106709523Y-119304761D01*
X106661904Y-119257142D01*
X106614285Y-119161904D01*
X106614285Y-118923809D01*
X106661904Y-118828571D01*
X106709523Y-118780952D01*
X106804761Y-118733333D01*
X106995238Y-118733333D01*
X107090476Y-118780952D01*
X107138095Y-118828571D01*
X107185714Y-118923809D01*
X102466666Y-118447619D02*
X102419047Y-118400000D01*
X102323809Y-118352380D01*
X102085714Y-118352380D01*
X101990476Y-118400000D01*
X101942857Y-118447619D01*
X101895238Y-118542857D01*
X101895238Y-118638095D01*
X101942857Y-118780952D01*
X102514285Y-119352380D01*
X101895238Y-119352380D01*
X101276190Y-118352380D02*
X101180952Y-118352380D01*
X101085714Y-118400000D01*
X101038095Y-118447619D01*
X100990476Y-118542857D01*
X100942857Y-118733333D01*
X100942857Y-118971428D01*
X100990476Y-119161904D01*
X101038095Y-119257142D01*
X101085714Y-119304761D01*
X101180952Y-119352380D01*
X101276190Y-119352380D01*
X101371428Y-119304761D01*
X101419047Y-119257142D01*
X101466666Y-119161904D01*
X101514285Y-118971428D01*
X101514285Y-118733333D01*
X101466666Y-118542857D01*
X101419047Y-118447619D01*
X101371428Y-118400000D01*
X101276190Y-118352380D01*
X100514285Y-119352380D02*
X100514285Y-118352380D01*
X100419047Y-118971428D02*
X100133333Y-119352380D01*
X100133333Y-118685714D02*
X100514285Y-119066666D01*
%TO.C,R7*%
X107566666Y-125652380D02*
X107900000Y-125176190D01*
X108138095Y-125652380D02*
X108138095Y-124652380D01*
X107757142Y-124652380D01*
X107661904Y-124700000D01*
X107614285Y-124747619D01*
X107566666Y-124842857D01*
X107566666Y-124985714D01*
X107614285Y-125080952D01*
X107661904Y-125128571D01*
X107757142Y-125176190D01*
X108138095Y-125176190D01*
X107233333Y-124652380D02*
X106566666Y-124652380D01*
X106995238Y-125652380D01*
X102256666Y-125652380D02*
X102828095Y-125652380D01*
X102542380Y-125652380D02*
X102542380Y-124652380D01*
X102637619Y-124795238D01*
X102732857Y-124890476D01*
X102828095Y-124938095D01*
X101637619Y-124652380D02*
X101542380Y-124652380D01*
X101447142Y-124700000D01*
X101399523Y-124747619D01*
X101351904Y-124842857D01*
X101304285Y-125033333D01*
X101304285Y-125271428D01*
X101351904Y-125461904D01*
X101399523Y-125557142D01*
X101447142Y-125604761D01*
X101542380Y-125652380D01*
X101637619Y-125652380D01*
X101732857Y-125604761D01*
X101780476Y-125557142D01*
X101828095Y-125461904D01*
X101875714Y-125271428D01*
X101875714Y-125033333D01*
X101828095Y-124842857D01*
X101780476Y-124747619D01*
X101732857Y-124700000D01*
X101637619Y-124652380D01*
X100685238Y-124652380D02*
X100590000Y-124652380D01*
X100494761Y-124700000D01*
X100447142Y-124747619D01*
X100399523Y-124842857D01*
X100351904Y-125033333D01*
X100351904Y-125271428D01*
X100399523Y-125461904D01*
X100447142Y-125557142D01*
X100494761Y-125604761D01*
X100590000Y-125652380D01*
X100685238Y-125652380D01*
X100780476Y-125604761D01*
X100828095Y-125557142D01*
X100875714Y-125461904D01*
X100923333Y-125271428D01*
X100923333Y-125033333D01*
X100875714Y-124842857D01*
X100828095Y-124747619D01*
X100780476Y-124700000D01*
X100685238Y-124652380D01*
%TO.C,R8*%
X107566666Y-113052380D02*
X107900000Y-112576190D01*
X108138095Y-113052380D02*
X108138095Y-112052380D01*
X107757142Y-112052380D01*
X107661904Y-112100000D01*
X107614285Y-112147619D01*
X107566666Y-112242857D01*
X107566666Y-112385714D01*
X107614285Y-112480952D01*
X107661904Y-112528571D01*
X107757142Y-112576190D01*
X108138095Y-112576190D01*
X106995238Y-112480952D02*
X107090476Y-112433333D01*
X107138095Y-112385714D01*
X107185714Y-112290476D01*
X107185714Y-112242857D01*
X107138095Y-112147619D01*
X107090476Y-112100000D01*
X106995238Y-112052380D01*
X106804761Y-112052380D01*
X106709523Y-112100000D01*
X106661904Y-112147619D01*
X106614285Y-112242857D01*
X106614285Y-112290476D01*
X106661904Y-112385714D01*
X106709523Y-112433333D01*
X106804761Y-112480952D01*
X106995238Y-112480952D01*
X107090476Y-112528571D01*
X107138095Y-112576190D01*
X107185714Y-112671428D01*
X107185714Y-112861904D01*
X107138095Y-112957142D01*
X107090476Y-113004761D01*
X106995238Y-113052380D01*
X106804761Y-113052380D01*
X106709523Y-113004761D01*
X106661904Y-112957142D01*
X106614285Y-112861904D01*
X106614285Y-112671428D01*
X106661904Y-112576190D01*
X106709523Y-112528571D01*
X106804761Y-112480952D01*
X102756666Y-112047619D02*
X102709047Y-112000000D01*
X102613809Y-111952380D01*
X102375714Y-111952380D01*
X102280476Y-112000000D01*
X102232857Y-112047619D01*
X102185238Y-112142857D01*
X102185238Y-112238095D01*
X102232857Y-112380952D01*
X102804285Y-112952380D01*
X102185238Y-112952380D01*
X101566190Y-111952380D02*
X101470952Y-111952380D01*
X101375714Y-112000000D01*
X101328095Y-112047619D01*
X101280476Y-112142857D01*
X101232857Y-112333333D01*
X101232857Y-112571428D01*
X101280476Y-112761904D01*
X101328095Y-112857142D01*
X101375714Y-112904761D01*
X101470952Y-112952380D01*
X101566190Y-112952380D01*
X101661428Y-112904761D01*
X101709047Y-112857142D01*
X101756666Y-112761904D01*
X101804285Y-112571428D01*
X101804285Y-112333333D01*
X101756666Y-112142857D01*
X101709047Y-112047619D01*
X101661428Y-112000000D01*
X101566190Y-111952380D01*
X100804285Y-112952380D02*
X100804285Y-111952380D01*
X100709047Y-112571428D02*
X100423333Y-112952380D01*
X100423333Y-112285714D02*
X100804285Y-112666666D01*
%TO.C,R9*%
X107566666Y-116152380D02*
X107900000Y-115676190D01*
X108138095Y-116152380D02*
X108138095Y-115152380D01*
X107757142Y-115152380D01*
X107661904Y-115200000D01*
X107614285Y-115247619D01*
X107566666Y-115342857D01*
X107566666Y-115485714D01*
X107614285Y-115580952D01*
X107661904Y-115628571D01*
X107757142Y-115676190D01*
X108138095Y-115676190D01*
X107090476Y-116152380D02*
X106900000Y-116152380D01*
X106804761Y-116104761D01*
X106757142Y-116057142D01*
X106661904Y-115914285D01*
X106614285Y-115723809D01*
X106614285Y-115342857D01*
X106661904Y-115247619D01*
X106709523Y-115200000D01*
X106804761Y-115152380D01*
X106995238Y-115152380D01*
X107090476Y-115200000D01*
X107138095Y-115247619D01*
X107185714Y-115342857D01*
X107185714Y-115580952D01*
X107138095Y-115676190D01*
X107090476Y-115723809D01*
X106995238Y-115771428D01*
X106804761Y-115771428D01*
X106709523Y-115723809D01*
X106661904Y-115676190D01*
X106614285Y-115580952D01*
X102290476Y-115485714D02*
X102290476Y-116152380D01*
X102528571Y-115104761D02*
X102766666Y-115819047D01*
X102147619Y-115819047D01*
X101861904Y-115152380D02*
X101195238Y-115152380D01*
X101623809Y-116152380D01*
X100814285Y-116152380D02*
X100814285Y-115152380D01*
X100719047Y-115771428D02*
X100433333Y-116152380D01*
X100433333Y-115485714D02*
X100814285Y-115866666D01*
%TO.C,U1*%
X101761904Y-137952380D02*
X101761904Y-138761904D01*
X101714285Y-138857142D01*
X101666666Y-138904761D01*
X101571428Y-138952380D01*
X101380952Y-138952380D01*
X101285714Y-138904761D01*
X101238095Y-138857142D01*
X101190476Y-138761904D01*
X101190476Y-137952380D01*
X100190476Y-138952380D02*
X100761904Y-138952380D01*
X100476190Y-138952380D02*
X100476190Y-137952380D01*
X100571428Y-138095238D01*
X100666666Y-138190476D01*
X100761904Y-138238095D01*
X103562857Y-154952380D02*
X104039047Y-154952380D01*
X104039047Y-153952380D01*
X103229523Y-154952380D02*
X103229523Y-153952380D01*
X102896190Y-154666666D01*
X102562857Y-153952380D01*
X102562857Y-154952380D01*
X101562857Y-154952380D02*
X102134285Y-154952380D01*
X101848571Y-154952380D02*
X101848571Y-153952380D01*
X101943809Y-154095238D01*
X102039047Y-154190476D01*
X102134285Y-154238095D01*
X101229523Y-153952380D02*
X100610476Y-153952380D01*
X100943809Y-154333333D01*
X100800952Y-154333333D01*
X100705714Y-154380952D01*
X100658095Y-154428571D01*
X100610476Y-154523809D01*
X100610476Y-154761904D01*
X100658095Y-154857142D01*
X100705714Y-154904761D01*
X100800952Y-154952380D01*
X101086666Y-154952380D01*
X101181904Y-154904761D01*
X101229523Y-154857142D01*
X100277142Y-153952380D02*
X99610476Y-153952380D01*
X100039047Y-154952380D01*
X99039047Y-153952380D02*
X98943809Y-153952380D01*
X98848571Y-154000000D01*
X98800952Y-154047619D01*
X98753333Y-154142857D01*
X98705714Y-154333333D01*
X98705714Y-154571428D01*
X98753333Y-154761904D01*
X98800952Y-154857142D01*
X98848571Y-154904761D01*
X98943809Y-154952380D01*
X99039047Y-154952380D01*
X99134285Y-154904761D01*
X99181904Y-154857142D01*
X99229523Y-154761904D01*
X99277142Y-154571428D01*
X99277142Y-154333333D01*
X99229523Y-154142857D01*
X99181904Y-154047619D01*
X99134285Y-154000000D01*
X99039047Y-153952380D01*
X98086666Y-153952380D02*
X97991428Y-153952380D01*
X97896190Y-154000000D01*
X97848571Y-154047619D01*
X97800952Y-154142857D01*
X97753333Y-154333333D01*
X97753333Y-154571428D01*
X97800952Y-154761904D01*
X97848571Y-154857142D01*
X97896190Y-154904761D01*
X97991428Y-154952380D01*
X98086666Y-154952380D01*
X98181904Y-154904761D01*
X98229523Y-154857142D01*
X98277142Y-154761904D01*
X98324761Y-154571428D01*
X98324761Y-154333333D01*
X98277142Y-154142857D01*
X98229523Y-154047619D01*
X98181904Y-154000000D01*
X98086666Y-153952380D01*
%TO.C,J7*%
X89833333Y-106182380D02*
X89833333Y-106896666D01*
X89880952Y-107039523D01*
X89976190Y-107134761D01*
X90119047Y-107182380D01*
X90214285Y-107182380D01*
X89452380Y-106182380D02*
X88785714Y-106182380D01*
X89214285Y-107182380D01*
%TD*%
M02*
