%TF.GenerationSoftware,KiCad,Pcbnew,5.1.9+dfsg1-1~bpo10+1*%
%TF.CreationDate,2021-12-12T16:05:26+08:00*%
%TF.ProjectId,MiniVCA 1.0,4d696e69-5643-4412-9031-2e302e6b6963,rev?*%
%TF.SameCoordinates,Original*%
%TF.FileFunction,Profile,NP*%
%FSLAX46Y46*%
G04 Gerber Fmt 4.6, Leading zero omitted, Abs format (unit mm)*
G04 Created by KiCad (PCBNEW 5.1.9+dfsg1-1~bpo10+1) date 2021-12-12 16:05:26*
%MOMM*%
%LPD*%
G01*
G04 APERTURE LIST*
%TA.AperFunction,Profile*%
%ADD10C,0.100000*%
%TD*%
G04 APERTURE END LIST*
D10*
X61500000Y-109000000D02*
G75*
G03*
X61500000Y-109000000I-1500000J0D01*
G01*
X60541381Y-117958619D02*
G75*
G03*
X60541381Y-117958619I-3041381J0D01*
G01*
X60500000Y-149500000D02*
G75*
G03*
X60500000Y-149500000I-3000000J0D01*
G01*
X60500000Y-139000000D02*
G75*
G03*
X60500000Y-139000000I-3000000J0D01*
G01*
X60500000Y-128500000D02*
G75*
G03*
X60500000Y-128500000I-3000000J0D01*
G01*
X55000000Y-74200000D02*
G75*
G03*
X55000000Y-74200000I-1500000J0D01*
G01*
X55000000Y-99000000D02*
G75*
G03*
X55000000Y-99000000I-1500000J0D01*
G01*
X70000000Y-168500000D02*
X70000000Y-155500000D01*
X92000000Y-155500000D02*
X92000000Y-130000000D01*
X94000000Y-130000000D02*
X94000000Y-155500000D01*
X92000000Y-126000000D02*
X92000000Y-76000000D01*
X94000000Y-76000000D02*
X94000000Y-126000000D01*
X94000000Y-53000000D02*
X94000000Y-72000000D01*
X92000000Y-53000000D02*
X92000000Y-72000000D01*
X94000000Y-72000000D02*
G75*
G02*
X92000000Y-72000000I-1000000J0D01*
G01*
X92000000Y-76000000D02*
G75*
G02*
X94000000Y-76000000I1000000J0D01*
G01*
X94000000Y-126000000D02*
G75*
G02*
X92000000Y-126000000I-1000000J0D01*
G01*
X92000000Y-130000000D02*
G75*
G02*
X94000000Y-130000000I1000000J0D01*
G01*
X70000000Y-130000000D02*
G75*
G02*
X72000000Y-130000000I1000000J0D01*
G01*
X72000000Y-126000000D02*
G75*
G02*
X70000000Y-126000000I-1000000J0D01*
G01*
X70000000Y-76000000D02*
G75*
G02*
X72000000Y-76000000I1000000J0D01*
G01*
X72000000Y-126000000D02*
X72000000Y-76000000D01*
X72000000Y-155500000D02*
X72000000Y-130000000D01*
X70000000Y-130000000D02*
X70000000Y-155500000D01*
X70000000Y-76000000D02*
X70000000Y-126000000D01*
X72000000Y-72000000D02*
G75*
G02*
X70000000Y-72000000I-1000000J0D01*
G01*
X114000000Y-155500000D02*
X114000000Y-53000000D01*
X94000000Y-155500000D02*
X114000000Y-155500000D01*
X94000000Y-53000000D02*
X114000000Y-53000000D01*
X72000000Y-155500000D02*
X92000000Y-155500000D01*
X72000000Y-53000000D02*
X72000000Y-72000000D01*
X72000000Y-53000000D02*
X92000000Y-53000000D01*
X50000000Y-168500000D02*
X50000000Y-40000000D01*
X70000000Y-168500000D02*
X50000000Y-168500000D01*
X70000000Y-40000000D02*
X70000000Y-72000000D01*
X50000000Y-40000000D02*
X70000000Y-40000000D01*
X63750000Y-87750000D02*
G75*
G03*
X63750000Y-87750000I-3750000J0D01*
G01*
X63750000Y-63000000D02*
G75*
G03*
X63750000Y-63000000I-3750000J0D01*
G01*
M02*
