%TF.GenerationSoftware,KiCad,Pcbnew,5.1.9+dfsg1-1~bpo10+1*%
%TF.CreationDate,2021-12-28T01:34:00+08:00*%
%TF.ProjectId,MiniVCA 1.1,4d696e69-5643-4412-9031-2e312e6b6963,rev?*%
%TF.SameCoordinates,Original*%
%TF.FileFunction,Soldermask,Bot*%
%TF.FilePolarity,Negative*%
%FSLAX46Y46*%
G04 Gerber Fmt 4.6, Leading zero omitted, Abs format (unit mm)*
G04 Created by KiCad (PCBNEW 5.1.9+dfsg1-1~bpo10+1) date 2021-12-28 01:34:00*
%MOMM*%
%LPD*%
G01*
G04 APERTURE LIST*
%ADD10O,2.400000X1.600000*%
%ADD11R,2.400000X1.600000*%
%ADD12O,7.000000X4.200000*%
%ADD13C,0.500000*%
%ADD14O,1.600000X1.600000*%
%ADD15C,1.600000*%
%ADD16C,3.200000*%
%ADD17R,1.500000X1.500000*%
%ADD18C,1.500000*%
%ADD19R,1.600000X1.600000*%
%ADD20R,1.800000X1.800000*%
%ADD21C,1.800000*%
%ADD22R,1.830000X1.930000*%
%ADD23C,2.130000*%
%ADD24O,1.950000X1.700000*%
%ADD25C,1.700000*%
%ADD26O,2.720000X3.240000*%
%ADD27R,1.700000X1.700000*%
%ADD28O,1.700000X1.700000*%
G04 APERTURE END LIST*
D10*
%TO.C,U1*%
X97680000Y-134800000D03*
X105300000Y-152580000D03*
X97680000Y-137340000D03*
X105300000Y-150040000D03*
X97680000Y-139880000D03*
X105300000Y-147500000D03*
X97680000Y-142420000D03*
X105300000Y-144960000D03*
X97680000Y-144960000D03*
X105300000Y-142420000D03*
X97680000Y-147500000D03*
X105300000Y-139880000D03*
X97680000Y-150040000D03*
X105300000Y-137340000D03*
X97680000Y-152580000D03*
D11*
X105300000Y-134800000D03*
%TD*%
D12*
%TO.C,REF\u002A\u002A*%
X65000000Y-165500000D03*
X55000000Y-43000000D03*
%TD*%
D13*
%TO.C,REF\u002A\u002A*%
X93750000Y-127250000D03*
X93750000Y-128750000D03*
X92250000Y-128750000D03*
X92250000Y-127250000D03*
X93750000Y-128000000D03*
X92250000Y-128000000D03*
%TD*%
%TO.C,REF\u002A\u002A*%
X93750000Y-73250000D03*
X93750000Y-74750000D03*
X92250000Y-74750000D03*
X92250000Y-73250000D03*
X93750000Y-74000000D03*
X92250000Y-74000000D03*
%TD*%
D14*
%TO.C,R10*%
X97780000Y-122000000D03*
D15*
X105400000Y-122000000D03*
%TD*%
D14*
%TO.C,R5*%
X105420000Y-128300000D03*
D15*
X97800000Y-128300000D03*
%TD*%
%TO.C,C6*%
X97000000Y-92600000D03*
X97000000Y-95100000D03*
%TD*%
D11*
%TO.C,U2*%
X108000000Y-87500000D03*
D10*
X100380000Y-95120000D03*
X108000000Y-90040000D03*
X100380000Y-92580000D03*
X108000000Y-92580000D03*
X100380000Y-90040000D03*
X108000000Y-95120000D03*
X100380000Y-87500000D03*
%TD*%
D16*
%TO.C,REF\u002A\u002A*%
X98000000Y-106000000D03*
%TD*%
%TO.C,REF\u002A\u002A*%
X76000000Y-106000000D03*
%TD*%
D13*
%TO.C,REF\u002A\u002A*%
X71750000Y-127250000D03*
X71750000Y-128750000D03*
X70250000Y-128750000D03*
X70250000Y-127250000D03*
X71750000Y-128000000D03*
X70250000Y-128000000D03*
%TD*%
%TO.C,REF\u002A\u002A*%
X71750000Y-73250000D03*
X71750000Y-74750000D03*
X70250000Y-74750000D03*
X70250000Y-73250000D03*
X71750000Y-74000000D03*
X70250000Y-74000000D03*
%TD*%
D17*
%TO.C,Q1*%
X107200000Y-103800000D03*
D18*
X112280000Y-103800000D03*
X109740000Y-103800000D03*
%TD*%
D15*
%TO.C,C1*%
X101500000Y-80000000D03*
D19*
X99000000Y-80000000D03*
%TD*%
%TO.C,C2*%
X98500000Y-75000000D03*
D15*
X96000000Y-75000000D03*
%TD*%
%TO.C,C3*%
X100500000Y-131500000D03*
X95500000Y-131500000D03*
%TD*%
%TO.C,C4*%
X108400000Y-131500000D03*
X103400000Y-131500000D03*
%TD*%
%TO.C,C5*%
X111500000Y-89500000D03*
X111500000Y-87000000D03*
%TD*%
%TO.C,C7*%
X97000000Y-84600000D03*
X97000000Y-89600000D03*
%TD*%
%TO.C,C8*%
X103000000Y-98500000D03*
X108000000Y-98500000D03*
%TD*%
D20*
%TO.C,D1*%
X75500000Y-75450000D03*
D21*
X75500000Y-72910000D03*
%TD*%
%TO.C,D2*%
X75500000Y-97710000D03*
D20*
X75500000Y-100250000D03*
%TD*%
D22*
%TO.C,J1*%
X86000000Y-118000000D03*
D23*
X82900000Y-118000000D03*
X74600000Y-118000000D03*
%TD*%
%TO.C,J2*%
X74600000Y-128500000D03*
X82900000Y-128500000D03*
D22*
X86000000Y-128500000D03*
%TD*%
%TO.C,J3*%
X86000000Y-139000000D03*
D23*
X82900000Y-139000000D03*
X74600000Y-139000000D03*
%TD*%
%TO.C,J4*%
X74600000Y-149500000D03*
X82900000Y-149500000D03*
D22*
X86000000Y-149500000D03*
%TD*%
%TO.C,J5*%
G36*
G01*
X99225000Y-69850000D02*
X97775000Y-69850000D01*
G75*
G02*
X97525000Y-69600000I0J250000D01*
G01*
X97525000Y-68400000D01*
G75*
G02*
X97775000Y-68150000I250000J0D01*
G01*
X99225000Y-68150000D01*
G75*
G02*
X99475000Y-68400000I0J-250000D01*
G01*
X99475000Y-69600000D01*
G75*
G02*
X99225000Y-69850000I-250000J0D01*
G01*
G37*
D24*
X98500000Y-66500000D03*
X98500000Y-64000000D03*
X98500000Y-61500000D03*
X98500000Y-59000000D03*
X98500000Y-56500000D03*
%TD*%
%TO.C,J6*%
G36*
G01*
X110350000Y-58400000D02*
X110350000Y-59600000D01*
G75*
G02*
X110100000Y-59850000I-250000J0D01*
G01*
X108900000Y-59850000D01*
G75*
G02*
X108650000Y-59600000I0J250000D01*
G01*
X108650000Y-58400000D01*
G75*
G02*
X108900000Y-58150000I250000J0D01*
G01*
X110100000Y-58150000D01*
G75*
G02*
X110350000Y-58400000I0J-250000D01*
G01*
G37*
D25*
X109500000Y-61540000D03*
X109500000Y-64080000D03*
X109500000Y-66620000D03*
X109500000Y-69160000D03*
X109500000Y-71700000D03*
X109500000Y-74240000D03*
X109500000Y-76780000D03*
X106960000Y-59000000D03*
X106960000Y-61540000D03*
X106960000Y-64080000D03*
X106960000Y-66620000D03*
X106960000Y-69160000D03*
X106960000Y-71700000D03*
X106960000Y-74240000D03*
X106960000Y-76780000D03*
%TD*%
D15*
%TO.C,R1*%
X86700000Y-73500000D03*
D14*
X79080000Y-73500000D03*
%TD*%
D15*
%TO.C,R2*%
X89600000Y-98100000D03*
D14*
X81980000Y-98100000D03*
%TD*%
D15*
%TO.C,R3*%
X89600000Y-101300000D03*
D14*
X81980000Y-101300000D03*
%TD*%
D15*
%TO.C,R4*%
X86500000Y-77000000D03*
D14*
X78880000Y-77000000D03*
%TD*%
%TO.C,R6*%
X105420000Y-118900000D03*
D15*
X97800000Y-118900000D03*
%TD*%
D14*
%TO.C,R7*%
X97780000Y-125200000D03*
D15*
X105400000Y-125200000D03*
%TD*%
%TO.C,R8*%
X105400000Y-112500000D03*
D14*
X97780000Y-112500000D03*
%TD*%
D15*
%TO.C,R9*%
X97800000Y-115700000D03*
D14*
X105420000Y-115700000D03*
%TD*%
D26*
%TO.C,RV1*%
X77200000Y-63000000D03*
X86800000Y-63000000D03*
D21*
X82000000Y-70500000D03*
X84500000Y-70500000D03*
D20*
X79500000Y-70500000D03*
%TD*%
%TO.C,RV2*%
X79450000Y-95250000D03*
D21*
X84450000Y-95250000D03*
X81950000Y-95250000D03*
D26*
X86750000Y-87750000D03*
X77150000Y-87750000D03*
%TD*%
D20*
%TO.C,D3*%
X82000000Y-107700000D03*
D21*
X82000000Y-110240000D03*
%TD*%
D15*
%TO.C,R11*%
X82000000Y-104400000D03*
D14*
X89620000Y-104400000D03*
%TD*%
D27*
%TO.C,J7*%
X89500000Y-109500000D03*
D28*
X89500000Y-112040000D03*
X89500000Y-114580000D03*
X89500000Y-117120000D03*
X89500000Y-119660000D03*
X89500000Y-122200000D03*
X89500000Y-124740000D03*
X89500000Y-127280000D03*
X89500000Y-129820000D03*
X89500000Y-132360000D03*
X89500000Y-134900000D03*
X89500000Y-137440000D03*
X89500000Y-139980000D03*
X89500000Y-142520000D03*
X89500000Y-145060000D03*
X89500000Y-147600000D03*
%TD*%
D27*
%TO.C,J8*%
X111500000Y-109400000D03*
D28*
X111500000Y-111940000D03*
X111500000Y-114480000D03*
X111500000Y-117020000D03*
X111500000Y-119560000D03*
X111500000Y-122100000D03*
X111500000Y-124640000D03*
X111500000Y-127180000D03*
X111500000Y-129720000D03*
X111500000Y-132260000D03*
X111500000Y-134800000D03*
X111500000Y-137340000D03*
X111500000Y-139880000D03*
X111500000Y-142420000D03*
X111500000Y-144960000D03*
X111500000Y-147500000D03*
%TD*%
M02*
