%TF.GenerationSoftware,KiCad,Pcbnew,5.1.9+dfsg1-1~bpo10+1*%
%TF.CreationDate,2021-12-28T01:34:00+08:00*%
%TF.ProjectId,MiniVCA 1.1,4d696e69-5643-4412-9031-2e312e6b6963,rev?*%
%TF.SameCoordinates,Original*%
%TF.FileFunction,Legend,Top*%
%TF.FilePolarity,Positive*%
%FSLAX46Y46*%
G04 Gerber Fmt 4.6, Leading zero omitted, Abs format (unit mm)*
G04 Created by KiCad (PCBNEW 5.1.9+dfsg1-1~bpo10+1) date 2021-12-28 01:34:00*
%MOMM*%
%LPD*%
G01*
G04 APERTURE LIST*
%ADD10C,0.150000*%
%ADD11C,0.200000*%
%ADD12C,0.400000*%
%ADD13C,0.100000*%
%ADD14C,0.120000*%
G04 APERTURE END LIST*
D10*
X62503998Y-149500000D02*
G75*
G03*
X62503998Y-149500000I-5003998J0D01*
G01*
D11*
X89376190Y-93347619D02*
X89328571Y-93395238D01*
X89280952Y-93490476D01*
X89280952Y-93585714D01*
X89328571Y-93680952D01*
X89376190Y-93728571D01*
X89471428Y-93776190D01*
X89566666Y-93776190D01*
X89661904Y-93728571D01*
X89709523Y-93680952D01*
X89757142Y-93585714D01*
X89757142Y-93490476D01*
X89709523Y-93395238D01*
X89661904Y-93347619D01*
X89280952Y-93347619D02*
X89661904Y-93347619D01*
X89709523Y-93300000D01*
X89709523Y-93252380D01*
X89661904Y-93157142D01*
X89566666Y-93109523D01*
X89328571Y-93109523D01*
X89185714Y-93204761D01*
X89090476Y-93347619D01*
X89042857Y-93538095D01*
X89090476Y-93728571D01*
X89185714Y-93871428D01*
X89328571Y-93966666D01*
X89519047Y-94014285D01*
X89709523Y-93966666D01*
X89852380Y-93871428D01*
X89947619Y-93728571D01*
X89995238Y-93538095D01*
X89947619Y-93347619D01*
X89852380Y-93204761D01*
X89852380Y-92680952D02*
X88852380Y-92680952D01*
X89233333Y-92680952D02*
X89185714Y-92585714D01*
X89185714Y-92395238D01*
X89233333Y-92300000D01*
X89280952Y-92252380D01*
X89376190Y-92204761D01*
X89661904Y-92204761D01*
X89757142Y-92252380D01*
X89804761Y-92300000D01*
X89852380Y-92395238D01*
X89852380Y-92585714D01*
X89804761Y-92680952D01*
X89804761Y-91395238D02*
X89852380Y-91490476D01*
X89852380Y-91680952D01*
X89804761Y-91776190D01*
X89709523Y-91823809D01*
X89328571Y-91823809D01*
X89233333Y-91776190D01*
X89185714Y-91680952D01*
X89185714Y-91490476D01*
X89233333Y-91395238D01*
X89328571Y-91347619D01*
X89423809Y-91347619D01*
X89519047Y-91823809D01*
X89185714Y-90919047D02*
X89852380Y-90919047D01*
X89280952Y-90919047D02*
X89233333Y-90871428D01*
X89185714Y-90776190D01*
X89185714Y-90633333D01*
X89233333Y-90538095D01*
X89328571Y-90490476D01*
X89852380Y-90490476D01*
X89185714Y-90014285D02*
X90042857Y-90014285D01*
X90138095Y-90061904D01*
X90185714Y-90157142D01*
X90185714Y-90204761D01*
X88852380Y-90014285D02*
X88900000Y-90061904D01*
X88947619Y-90014285D01*
X88900000Y-89966666D01*
X88852380Y-90014285D01*
X88947619Y-90014285D01*
X89852380Y-89538095D02*
X89185714Y-89538095D01*
X88852380Y-89538095D02*
X88900000Y-89585714D01*
X88947619Y-89538095D01*
X88900000Y-89490476D01*
X88852380Y-89538095D01*
X88947619Y-89538095D01*
X89852380Y-88633333D02*
X89328571Y-88633333D01*
X89233333Y-88680952D01*
X89185714Y-88776190D01*
X89185714Y-88966666D01*
X89233333Y-89061904D01*
X89804761Y-88633333D02*
X89852380Y-88728571D01*
X89852380Y-88966666D01*
X89804761Y-89061904D01*
X89709523Y-89109523D01*
X89614285Y-89109523D01*
X89519047Y-89061904D01*
X89471428Y-88966666D01*
X89471428Y-88728571D01*
X89423809Y-88633333D01*
X89852380Y-88014285D02*
X89804761Y-88109523D01*
X89757142Y-88157142D01*
X89661904Y-88204761D01*
X89376190Y-88204761D01*
X89280952Y-88157142D01*
X89233333Y-88109523D01*
X89185714Y-88014285D01*
X89185714Y-87871428D01*
X89233333Y-87776190D01*
X89280952Y-87728571D01*
X89376190Y-87680952D01*
X89661904Y-87680952D01*
X89757142Y-87728571D01*
X89804761Y-87776190D01*
X89852380Y-87871428D01*
X89852380Y-88014285D01*
X89852380Y-87252380D02*
X89185714Y-87252380D01*
X89280952Y-87252380D02*
X89233333Y-87204761D01*
X89185714Y-87109523D01*
X89185714Y-86966666D01*
X89233333Y-86871428D01*
X89328571Y-86823809D01*
X89852380Y-86823809D01*
X89328571Y-86823809D02*
X89233333Y-86776190D01*
X89185714Y-86680952D01*
X89185714Y-86538095D01*
X89233333Y-86442857D01*
X89328571Y-86395238D01*
X89852380Y-86395238D01*
X89852380Y-85776190D02*
X89804761Y-85871428D01*
X89757142Y-85919047D01*
X89661904Y-85966666D01*
X89376190Y-85966666D01*
X89280952Y-85919047D01*
X89233333Y-85871428D01*
X89185714Y-85776190D01*
X89185714Y-85633333D01*
X89233333Y-85538095D01*
X89280952Y-85490476D01*
X89376190Y-85442857D01*
X89661904Y-85442857D01*
X89757142Y-85490476D01*
X89804761Y-85538095D01*
X89852380Y-85633333D01*
X89852380Y-85776190D01*
X89852380Y-84585714D02*
X88852380Y-84585714D01*
X89804761Y-84585714D02*
X89852380Y-84680952D01*
X89852380Y-84871428D01*
X89804761Y-84966666D01*
X89757142Y-85014285D01*
X89661904Y-85061904D01*
X89376190Y-85061904D01*
X89280952Y-85014285D01*
X89233333Y-84966666D01*
X89185714Y-84871428D01*
X89185714Y-84680952D01*
X89233333Y-84585714D01*
X89185714Y-83680952D02*
X89852380Y-83680952D01*
X89185714Y-84109523D02*
X89709523Y-84109523D01*
X89804761Y-84061904D01*
X89852380Y-83966666D01*
X89852380Y-83823809D01*
X89804761Y-83728571D01*
X89757142Y-83680952D01*
X89852380Y-83061904D02*
X89804761Y-83157142D01*
X89709523Y-83204761D01*
X88852380Y-83204761D01*
X89852380Y-82252380D02*
X89328571Y-82252380D01*
X89233333Y-82300000D01*
X89185714Y-82395238D01*
X89185714Y-82585714D01*
X89233333Y-82680952D01*
X89804761Y-82252380D02*
X89852380Y-82347619D01*
X89852380Y-82585714D01*
X89804761Y-82680952D01*
X89709523Y-82728571D01*
X89614285Y-82728571D01*
X89519047Y-82680952D01*
X89471428Y-82585714D01*
X89471428Y-82347619D01*
X89423809Y-82252380D01*
X89852380Y-81776190D02*
X89185714Y-81776190D01*
X89376190Y-81776190D02*
X89280952Y-81728571D01*
X89233333Y-81680952D01*
X89185714Y-81585714D01*
X89185714Y-81490476D01*
D10*
X73130952Y-55202380D02*
X73130952Y-54202380D01*
X73464285Y-54916666D01*
X73797619Y-54202380D01*
X73797619Y-55202380D01*
X74273809Y-55202380D02*
X74273809Y-54535714D01*
X74273809Y-54202380D02*
X74226190Y-54250000D01*
X74273809Y-54297619D01*
X74321428Y-54250000D01*
X74273809Y-54202380D01*
X74273809Y-54297619D01*
X74750000Y-54535714D02*
X74750000Y-55202380D01*
X74750000Y-54630952D02*
X74797619Y-54583333D01*
X74892857Y-54535714D01*
X75035714Y-54535714D01*
X75130952Y-54583333D01*
X75178571Y-54678571D01*
X75178571Y-55202380D01*
X75654761Y-55202380D02*
X75654761Y-54535714D01*
X75654761Y-54202380D02*
X75607142Y-54250000D01*
X75654761Y-54297619D01*
X75702380Y-54250000D01*
X75654761Y-54202380D01*
X75654761Y-54297619D01*
X75988095Y-54202380D02*
X76321428Y-55202380D01*
X76654761Y-54202380D01*
X77559523Y-55107142D02*
X77511904Y-55154761D01*
X77369047Y-55202380D01*
X77273809Y-55202380D01*
X77130952Y-55154761D01*
X77035714Y-55059523D01*
X76988095Y-54964285D01*
X76940476Y-54773809D01*
X76940476Y-54630952D01*
X76988095Y-54440476D01*
X77035714Y-54345238D01*
X77130952Y-54250000D01*
X77273809Y-54202380D01*
X77369047Y-54202380D01*
X77511904Y-54250000D01*
X77559523Y-54297619D01*
X77940476Y-54916666D02*
X78416666Y-54916666D01*
X77845238Y-55202380D02*
X78178571Y-54202380D01*
X78511904Y-55202380D01*
X69000000Y-107000000D02*
X60600000Y-115400000D01*
X69000000Y-87300000D02*
X69000000Y-107000000D01*
X69000000Y-69000000D02*
X66800000Y-67300000D01*
X69000000Y-87300000D02*
X69000000Y-69000000D01*
X51500000Y-102250000D02*
X52500000Y-100750000D01*
X51500000Y-123100000D02*
X51500000Y-102250000D01*
X54400000Y-126000000D02*
X51500000Y-123100000D01*
X73297619Y-56702380D02*
X73297619Y-56035714D01*
X73297619Y-56226190D02*
X73345238Y-56130952D01*
X73392857Y-56083333D01*
X73488095Y-56035714D01*
X73583333Y-56035714D01*
X74297619Y-56654761D02*
X74202380Y-56702380D01*
X74011904Y-56702380D01*
X73916666Y-56654761D01*
X73869047Y-56559523D01*
X73869047Y-56178571D01*
X73916666Y-56083333D01*
X74011904Y-56035714D01*
X74202380Y-56035714D01*
X74297619Y-56083333D01*
X74345238Y-56178571D01*
X74345238Y-56273809D01*
X73869047Y-56369047D01*
X74678571Y-56035714D02*
X74916666Y-56702380D01*
X75154761Y-56035714D01*
X76821428Y-56702380D02*
X76250000Y-56702380D01*
X76535714Y-56702380D02*
X76535714Y-55702380D01*
X76440476Y-55845238D01*
X76345238Y-55940476D01*
X76250000Y-55988095D01*
X77250000Y-56607142D02*
X77297619Y-56654761D01*
X77250000Y-56702380D01*
X77202380Y-56654761D01*
X77250000Y-56607142D01*
X77250000Y-56702380D01*
X78250000Y-56702380D02*
X77678571Y-56702380D01*
X77964285Y-56702380D02*
X77964285Y-55702380D01*
X77869047Y-55845238D01*
X77773809Y-55940476D01*
X77678571Y-55988095D01*
D12*
X62101087Y-149500000D02*
G75*
G03*
X62101087Y-149500000I-4601087J0D01*
G01*
D10*
X61500000Y-139000000D02*
G75*
G03*
X61500000Y-139000000I-4000000J0D01*
G01*
X61500000Y-128500000D02*
G75*
G03*
X61500000Y-128500000I-4000000J0D01*
G01*
X61500000Y-118000000D02*
G75*
G03*
X61500000Y-118000000I-4000000J0D01*
G01*
X62000000Y-109000000D02*
G75*
G03*
X62000000Y-109000000I-2000000J0D01*
G01*
X54450000Y-72400000D02*
X55800000Y-69800000D01*
X54500000Y-97250000D02*
X56000000Y-94750000D01*
X68000000Y-87750000D02*
G75*
G03*
X68000000Y-87750000I-8000000J0D01*
G01*
X68000000Y-63000000D02*
G75*
G03*
X68000000Y-63000000I-8000000J0D01*
G01*
X55500000Y-74200000D02*
G75*
G03*
X55500000Y-74200000I-2000000J0D01*
G01*
X55500000Y-99000000D02*
G75*
G03*
X55500000Y-99000000I-2000000J0D01*
G01*
D13*
%TO.C,REF\u002A\u002A*%
X92000000Y-126000000D02*
G75*
G03*
X94000000Y-126000000I1000000J0D01*
G01*
X94000000Y-130000000D02*
G75*
G03*
X92000000Y-130000000I-1000000J0D01*
G01*
X92000000Y-72000000D02*
G75*
G03*
X94000000Y-72000000I1000000J0D01*
G01*
X94000000Y-76000000D02*
G75*
G03*
X92000000Y-76000000I-1000000J0D01*
G01*
X70000000Y-126000000D02*
G75*
G03*
X72000000Y-126000000I1000000J0D01*
G01*
X72000000Y-130000000D02*
G75*
G03*
X70000000Y-130000000I-1000000J0D01*
G01*
X70000000Y-72000000D02*
G75*
G03*
X72000000Y-72000000I1000000J0D01*
G01*
X72000000Y-76000000D02*
G75*
G03*
X70000000Y-76000000I-1000000J0D01*
G01*
D14*
%TO.C,D1*%
X76580000Y-75740000D02*
X76736000Y-75740000D01*
X74264000Y-75740000D02*
X74420000Y-75740000D01*
X74421392Y-72507665D02*
G75*
G03*
X74264484Y-75740000I1078608J-1672335D01*
G01*
X76578608Y-72507665D02*
G75*
G02*
X76735516Y-75740000I-1078608J-1672335D01*
G01*
X74420163Y-73138870D02*
G75*
G03*
X74420000Y-75220961I1079837J-1041130D01*
G01*
X76579837Y-73138870D02*
G75*
G02*
X76580000Y-75220961I-1079837J-1041130D01*
G01*
%TO.C,D2*%
X74264000Y-100540000D02*
X74420000Y-100540000D01*
X76580000Y-100540000D02*
X76736000Y-100540000D01*
X76579837Y-97938870D02*
G75*
G02*
X76580000Y-100020961I-1079837J-1041130D01*
G01*
X74420163Y-97938870D02*
G75*
G03*
X74420000Y-100020961I1079837J-1041130D01*
G01*
X76578608Y-97307665D02*
G75*
G02*
X76735516Y-100540000I-1078608J-1672335D01*
G01*
X74421392Y-97307665D02*
G75*
G03*
X74264484Y-100540000I1078608J-1672335D01*
G01*
%TO.C,J1*%
X87000000Y-116940000D02*
X87000000Y-117800000D01*
X73520000Y-117500000D02*
X73520000Y-113500000D01*
X73520000Y-122500000D02*
X73520000Y-118500000D01*
X84020000Y-113500000D02*
X73520000Y-113500000D01*
X81320000Y-118000000D02*
G75*
G03*
X81320000Y-118000000I-1800000J0D01*
G01*
X84020000Y-117650000D02*
X84020000Y-113500000D01*
X84020000Y-122500000D02*
X84020000Y-118350000D01*
X84020000Y-122500000D02*
X73520000Y-122500000D01*
X87000000Y-116940000D02*
X86200000Y-116940000D01*
%TO.C,J2*%
X87000000Y-127440000D02*
X86200000Y-127440000D01*
X84020000Y-133000000D02*
X73520000Y-133000000D01*
X84020000Y-133000000D02*
X84020000Y-128850000D01*
X84020000Y-128150000D02*
X84020000Y-124000000D01*
X81320000Y-128500000D02*
G75*
G03*
X81320000Y-128500000I-1800000J0D01*
G01*
X84020000Y-124000000D02*
X73520000Y-124000000D01*
X73520000Y-133000000D02*
X73520000Y-129000000D01*
X73520000Y-128000000D02*
X73520000Y-124000000D01*
X87000000Y-127440000D02*
X87000000Y-128300000D01*
%TO.C,J3*%
X87000000Y-137940000D02*
X87000000Y-138800000D01*
X73520000Y-138500000D02*
X73520000Y-134500000D01*
X73520000Y-143500000D02*
X73520000Y-139500000D01*
X84020000Y-134500000D02*
X73520000Y-134500000D01*
X81320000Y-139000000D02*
G75*
G03*
X81320000Y-139000000I-1800000J0D01*
G01*
X84020000Y-138650000D02*
X84020000Y-134500000D01*
X84020000Y-143500000D02*
X84020000Y-139350000D01*
X84020000Y-143500000D02*
X73520000Y-143500000D01*
X87000000Y-137940000D02*
X86200000Y-137940000D01*
%TO.C,J4*%
X87000000Y-148440000D02*
X86200000Y-148440000D01*
X84020000Y-154000000D02*
X73520000Y-154000000D01*
X84020000Y-154000000D02*
X84020000Y-149850000D01*
X84020000Y-149150000D02*
X84020000Y-145000000D01*
X81320000Y-149500000D02*
G75*
G03*
X81320000Y-149500000I-1800000J0D01*
G01*
X84020000Y-145000000D02*
X73520000Y-145000000D01*
X73520000Y-154000000D02*
X73520000Y-150000000D01*
X73520000Y-149000000D02*
X73520000Y-145000000D01*
X87000000Y-148440000D02*
X87000000Y-149300000D01*
%TO.C,R1*%
X79620000Y-72130000D02*
X79620000Y-72460000D01*
X86160000Y-72130000D02*
X79620000Y-72130000D01*
X86160000Y-72460000D02*
X86160000Y-72130000D01*
X79620000Y-74870000D02*
X79620000Y-74540000D01*
X86160000Y-74870000D02*
X79620000Y-74870000D01*
X86160000Y-74540000D02*
X86160000Y-74870000D01*
%TO.C,R2*%
X82520000Y-96730000D02*
X82520000Y-97060000D01*
X89060000Y-96730000D02*
X82520000Y-96730000D01*
X89060000Y-97060000D02*
X89060000Y-96730000D01*
X82520000Y-99470000D02*
X82520000Y-99140000D01*
X89060000Y-99470000D02*
X82520000Y-99470000D01*
X89060000Y-99140000D02*
X89060000Y-99470000D01*
%TO.C,R3*%
X82520000Y-99930000D02*
X82520000Y-100260000D01*
X89060000Y-99930000D02*
X82520000Y-99930000D01*
X89060000Y-100260000D02*
X89060000Y-99930000D01*
X82520000Y-102670000D02*
X82520000Y-102340000D01*
X89060000Y-102670000D02*
X82520000Y-102670000D01*
X89060000Y-102340000D02*
X89060000Y-102670000D01*
%TO.C,R4*%
X79420000Y-75630000D02*
X79420000Y-75960000D01*
X85960000Y-75630000D02*
X79420000Y-75630000D01*
X85960000Y-75960000D02*
X85960000Y-75630000D01*
X79420000Y-78370000D02*
X79420000Y-78040000D01*
X85960000Y-78370000D02*
X79420000Y-78370000D01*
X85960000Y-78040000D02*
X85960000Y-78370000D01*
%TO.C,RV1*%
X86870000Y-69620000D02*
X86870000Y-64900000D01*
X86870000Y-69620000D02*
X85380000Y-69620000D01*
X83660000Y-69620000D02*
X82830000Y-69620000D01*
X78310000Y-69620000D02*
X77130000Y-69620000D01*
X86870000Y-58030000D02*
X77130000Y-58030000D01*
X86870000Y-61090000D02*
X86870000Y-58030000D01*
X77120000Y-69620000D02*
X77120000Y-64900000D01*
X77130000Y-61090000D02*
X77130000Y-58030000D01*
X81210000Y-69620000D02*
X80680000Y-69620000D01*
%TO.C,RV2*%
X81160000Y-94370000D02*
X80630000Y-94370000D01*
X77080000Y-85840000D02*
X77080000Y-82780000D01*
X77070000Y-94370000D02*
X77070000Y-89650000D01*
X86820000Y-85840000D02*
X86820000Y-82780000D01*
X86820000Y-82780000D02*
X77080000Y-82780000D01*
X78260000Y-94370000D02*
X77080000Y-94370000D01*
X83610000Y-94370000D02*
X82780000Y-94370000D01*
X86820000Y-94370000D02*
X85330000Y-94370000D01*
X86820000Y-94370000D02*
X86820000Y-89650000D01*
%TO.C,D3*%
X80920000Y-107410000D02*
X80764000Y-107410000D01*
X83236000Y-107410000D02*
X83080000Y-107410000D01*
X83078608Y-110642335D02*
G75*
G03*
X83235516Y-107410000I-1078608J1672335D01*
G01*
X80921392Y-110642335D02*
G75*
G02*
X80764484Y-107410000I1078608J1672335D01*
G01*
X83079837Y-110011130D02*
G75*
G03*
X83080000Y-107929039I-1079837J1041130D01*
G01*
X80920163Y-110011130D02*
G75*
G02*
X80920000Y-107929039I1079837J1041130D01*
G01*
%TO.C,R11*%
X89080000Y-105770000D02*
X89080000Y-105440000D01*
X82540000Y-105770000D02*
X89080000Y-105770000D01*
X82540000Y-105440000D02*
X82540000Y-105770000D01*
X89080000Y-103030000D02*
X89080000Y-103360000D01*
X82540000Y-103030000D02*
X89080000Y-103030000D01*
X82540000Y-103360000D02*
X82540000Y-103030000D01*
%TO.C,J8*%
X110170000Y-108070000D02*
X111500000Y-108070000D01*
X110170000Y-109400000D02*
X110170000Y-108070000D01*
X110170000Y-110670000D02*
X112830000Y-110670000D01*
X112830000Y-110670000D02*
X112830000Y-148830000D01*
X110170000Y-110670000D02*
X110170000Y-148830000D01*
X110170000Y-148830000D02*
X112830000Y-148830000D01*
%TO.C,D1*%
D10*
X74861904Y-77802380D02*
X74861904Y-76802380D01*
X75100000Y-76802380D01*
X75242857Y-76850000D01*
X75338095Y-76945238D01*
X75385714Y-77040476D01*
X75433333Y-77230952D01*
X75433333Y-77373809D01*
X75385714Y-77564285D01*
X75338095Y-77659523D01*
X75242857Y-77754761D01*
X75100000Y-77802380D01*
X74861904Y-77802380D01*
X76385714Y-77802380D02*
X75814285Y-77802380D01*
X76100000Y-77802380D02*
X76100000Y-76802380D01*
X76004761Y-76945238D01*
X75909523Y-77040476D01*
X75814285Y-77088095D01*
%TO.C,D2*%
X74761904Y-102602380D02*
X74761904Y-101602380D01*
X75000000Y-101602380D01*
X75142857Y-101650000D01*
X75238095Y-101745238D01*
X75285714Y-101840476D01*
X75333333Y-102030952D01*
X75333333Y-102173809D01*
X75285714Y-102364285D01*
X75238095Y-102459523D01*
X75142857Y-102554761D01*
X75000000Y-102602380D01*
X74761904Y-102602380D01*
X75714285Y-101697619D02*
X75761904Y-101650000D01*
X75857142Y-101602380D01*
X76095238Y-101602380D01*
X76190476Y-101650000D01*
X76238095Y-101697619D01*
X76285714Y-101792857D01*
X76285714Y-101888095D01*
X76238095Y-102030952D01*
X75666666Y-102602380D01*
X76285714Y-102602380D01*
%TO.C,J1*%
X84952380Y-118333333D02*
X85666666Y-118333333D01*
X85809523Y-118380952D01*
X85904761Y-118476190D01*
X85952380Y-118619047D01*
X85952380Y-118714285D01*
X85952380Y-117333333D02*
X85952380Y-117904761D01*
X85952380Y-117619047D02*
X84952380Y-117619047D01*
X85095238Y-117714285D01*
X85190476Y-117809523D01*
X85238095Y-117904761D01*
%TO.C,J2*%
X84952380Y-128833333D02*
X85666666Y-128833333D01*
X85809523Y-128880952D01*
X85904761Y-128976190D01*
X85952380Y-129119047D01*
X85952380Y-129214285D01*
X85047619Y-128404761D02*
X85000000Y-128357142D01*
X84952380Y-128261904D01*
X84952380Y-128023809D01*
X85000000Y-127928571D01*
X85047619Y-127880952D01*
X85142857Y-127833333D01*
X85238095Y-127833333D01*
X85380952Y-127880952D01*
X85952380Y-128452380D01*
X85952380Y-127833333D01*
%TO.C,J3*%
X84952380Y-139333333D02*
X85666666Y-139333333D01*
X85809523Y-139380952D01*
X85904761Y-139476190D01*
X85952380Y-139619047D01*
X85952380Y-139714285D01*
X84952380Y-138952380D02*
X84952380Y-138333333D01*
X85333333Y-138666666D01*
X85333333Y-138523809D01*
X85380952Y-138428571D01*
X85428571Y-138380952D01*
X85523809Y-138333333D01*
X85761904Y-138333333D01*
X85857142Y-138380952D01*
X85904761Y-138428571D01*
X85952380Y-138523809D01*
X85952380Y-138809523D01*
X85904761Y-138904761D01*
X85857142Y-138952380D01*
%TO.C,J4*%
X84952380Y-149833333D02*
X85666666Y-149833333D01*
X85809523Y-149880952D01*
X85904761Y-149976190D01*
X85952380Y-150119047D01*
X85952380Y-150214285D01*
X85285714Y-148928571D02*
X85952380Y-148928571D01*
X84904761Y-149166666D02*
X85619047Y-149404761D01*
X85619047Y-148785714D01*
%TO.C,R1*%
X88533333Y-74202380D02*
X88200000Y-73726190D01*
X87961904Y-74202380D02*
X87961904Y-73202380D01*
X88342857Y-73202380D01*
X88438095Y-73250000D01*
X88485714Y-73297619D01*
X88533333Y-73392857D01*
X88533333Y-73535714D01*
X88485714Y-73630952D01*
X88438095Y-73678571D01*
X88342857Y-73726190D01*
X87961904Y-73726190D01*
X89485714Y-74202380D02*
X88914285Y-74202380D01*
X89200000Y-74202380D02*
X89200000Y-73202380D01*
X89104761Y-73345238D01*
X89009523Y-73440476D01*
X88914285Y-73488095D01*
X82294761Y-73952380D02*
X81723333Y-73952380D01*
X82009047Y-73952380D02*
X82009047Y-72952380D01*
X81913809Y-73095238D01*
X81818571Y-73190476D01*
X81723333Y-73238095D01*
X82913809Y-72952380D02*
X83009047Y-72952380D01*
X83104285Y-73000000D01*
X83151904Y-73047619D01*
X83199523Y-73142857D01*
X83247142Y-73333333D01*
X83247142Y-73571428D01*
X83199523Y-73761904D01*
X83151904Y-73857142D01*
X83104285Y-73904761D01*
X83009047Y-73952380D01*
X82913809Y-73952380D01*
X82818571Y-73904761D01*
X82770952Y-73857142D01*
X82723333Y-73761904D01*
X82675714Y-73571428D01*
X82675714Y-73333333D01*
X82723333Y-73142857D01*
X82770952Y-73047619D01*
X82818571Y-73000000D01*
X82913809Y-72952380D01*
X83675714Y-73952380D02*
X83675714Y-72952380D01*
X83770952Y-73571428D02*
X84056666Y-73952380D01*
X84056666Y-73285714D02*
X83675714Y-73666666D01*
%TO.C,R2*%
X79833333Y-98452380D02*
X79500000Y-97976190D01*
X79261904Y-98452380D02*
X79261904Y-97452380D01*
X79642857Y-97452380D01*
X79738095Y-97500000D01*
X79785714Y-97547619D01*
X79833333Y-97642857D01*
X79833333Y-97785714D01*
X79785714Y-97880952D01*
X79738095Y-97928571D01*
X79642857Y-97976190D01*
X79261904Y-97976190D01*
X80214285Y-97547619D02*
X80261904Y-97500000D01*
X80357142Y-97452380D01*
X80595238Y-97452380D01*
X80690476Y-97500000D01*
X80738095Y-97547619D01*
X80785714Y-97642857D01*
X80785714Y-97738095D01*
X80738095Y-97880952D01*
X80166666Y-98452380D01*
X80785714Y-98452380D01*
X85194761Y-98552380D02*
X84623333Y-98552380D01*
X84909047Y-98552380D02*
X84909047Y-97552380D01*
X84813809Y-97695238D01*
X84718571Y-97790476D01*
X84623333Y-97838095D01*
X85813809Y-97552380D02*
X85909047Y-97552380D01*
X86004285Y-97600000D01*
X86051904Y-97647619D01*
X86099523Y-97742857D01*
X86147142Y-97933333D01*
X86147142Y-98171428D01*
X86099523Y-98361904D01*
X86051904Y-98457142D01*
X86004285Y-98504761D01*
X85909047Y-98552380D01*
X85813809Y-98552380D01*
X85718571Y-98504761D01*
X85670952Y-98457142D01*
X85623333Y-98361904D01*
X85575714Y-98171428D01*
X85575714Y-97933333D01*
X85623333Y-97742857D01*
X85670952Y-97647619D01*
X85718571Y-97600000D01*
X85813809Y-97552380D01*
X86575714Y-98552380D02*
X86575714Y-97552380D01*
X86670952Y-98171428D02*
X86956666Y-98552380D01*
X86956666Y-97885714D02*
X86575714Y-98266666D01*
%TO.C,R3*%
X79833333Y-101752380D02*
X79500000Y-101276190D01*
X79261904Y-101752380D02*
X79261904Y-100752380D01*
X79642857Y-100752380D01*
X79738095Y-100800000D01*
X79785714Y-100847619D01*
X79833333Y-100942857D01*
X79833333Y-101085714D01*
X79785714Y-101180952D01*
X79738095Y-101228571D01*
X79642857Y-101276190D01*
X79261904Y-101276190D01*
X80166666Y-100752380D02*
X80785714Y-100752380D01*
X80452380Y-101133333D01*
X80595238Y-101133333D01*
X80690476Y-101180952D01*
X80738095Y-101228571D01*
X80785714Y-101323809D01*
X80785714Y-101561904D01*
X80738095Y-101657142D01*
X80690476Y-101704761D01*
X80595238Y-101752380D01*
X80309523Y-101752380D01*
X80214285Y-101704761D01*
X80166666Y-101657142D01*
X84623333Y-100847619D02*
X84670952Y-100800000D01*
X84766190Y-100752380D01*
X85004285Y-100752380D01*
X85099523Y-100800000D01*
X85147142Y-100847619D01*
X85194761Y-100942857D01*
X85194761Y-101038095D01*
X85147142Y-101180952D01*
X84575714Y-101752380D01*
X85194761Y-101752380D01*
X85813809Y-100752380D02*
X85909047Y-100752380D01*
X86004285Y-100800000D01*
X86051904Y-100847619D01*
X86099523Y-100942857D01*
X86147142Y-101133333D01*
X86147142Y-101371428D01*
X86099523Y-101561904D01*
X86051904Y-101657142D01*
X86004285Y-101704761D01*
X85909047Y-101752380D01*
X85813809Y-101752380D01*
X85718571Y-101704761D01*
X85670952Y-101657142D01*
X85623333Y-101561904D01*
X85575714Y-101371428D01*
X85575714Y-101133333D01*
X85623333Y-100942857D01*
X85670952Y-100847619D01*
X85718571Y-100800000D01*
X85813809Y-100752380D01*
X86575714Y-101752380D02*
X86575714Y-100752380D01*
X86670952Y-101371428D02*
X86956666Y-101752380D01*
X86956666Y-101085714D02*
X86575714Y-101466666D01*
%TO.C,R4*%
X88333333Y-77452380D02*
X88000000Y-76976190D01*
X87761904Y-77452380D02*
X87761904Y-76452380D01*
X88142857Y-76452380D01*
X88238095Y-76500000D01*
X88285714Y-76547619D01*
X88333333Y-76642857D01*
X88333333Y-76785714D01*
X88285714Y-76880952D01*
X88238095Y-76928571D01*
X88142857Y-76976190D01*
X87761904Y-76976190D01*
X89190476Y-76785714D02*
X89190476Y-77452380D01*
X88952380Y-76404761D02*
X88714285Y-77119047D01*
X89333333Y-77119047D01*
X81583333Y-76547619D02*
X81630952Y-76500000D01*
X81726190Y-76452380D01*
X81964285Y-76452380D01*
X82059523Y-76500000D01*
X82107142Y-76547619D01*
X82154761Y-76642857D01*
X82154761Y-76738095D01*
X82107142Y-76880952D01*
X81535714Y-77452380D01*
X82154761Y-77452380D01*
X82773809Y-76452380D02*
X82869047Y-76452380D01*
X82964285Y-76500000D01*
X83011904Y-76547619D01*
X83059523Y-76642857D01*
X83107142Y-76833333D01*
X83107142Y-77071428D01*
X83059523Y-77261904D01*
X83011904Y-77357142D01*
X82964285Y-77404761D01*
X82869047Y-77452380D01*
X82773809Y-77452380D01*
X82678571Y-77404761D01*
X82630952Y-77357142D01*
X82583333Y-77261904D01*
X82535714Y-77071428D01*
X82535714Y-76833333D01*
X82583333Y-76642857D01*
X82630952Y-76547619D01*
X82678571Y-76500000D01*
X82773809Y-76452380D01*
X83535714Y-77452380D02*
X83535714Y-76452380D01*
X83630952Y-77071428D02*
X83916666Y-77452380D01*
X83916666Y-76785714D02*
X83535714Y-77166666D01*
%TO.C,RV1*%
X80828571Y-63452380D02*
X80257142Y-63452380D01*
X80542857Y-63452380D02*
X80542857Y-62452380D01*
X80447619Y-62595238D01*
X80352380Y-62690476D01*
X80257142Y-62738095D01*
X81447619Y-62452380D02*
X81542857Y-62452380D01*
X81638095Y-62500000D01*
X81685714Y-62547619D01*
X81733333Y-62642857D01*
X81780952Y-62833333D01*
X81780952Y-63071428D01*
X81733333Y-63261904D01*
X81685714Y-63357142D01*
X81638095Y-63404761D01*
X81542857Y-63452380D01*
X81447619Y-63452380D01*
X81352380Y-63404761D01*
X81304761Y-63357142D01*
X81257142Y-63261904D01*
X81209523Y-63071428D01*
X81209523Y-62833333D01*
X81257142Y-62642857D01*
X81304761Y-62547619D01*
X81352380Y-62500000D01*
X81447619Y-62452380D01*
X82400000Y-62452380D02*
X82495238Y-62452380D01*
X82590476Y-62500000D01*
X82638095Y-62547619D01*
X82685714Y-62642857D01*
X82733333Y-62833333D01*
X82733333Y-63071428D01*
X82685714Y-63261904D01*
X82638095Y-63357142D01*
X82590476Y-63404761D01*
X82495238Y-63452380D01*
X82400000Y-63452380D01*
X82304761Y-63404761D01*
X82257142Y-63357142D01*
X82209523Y-63261904D01*
X82161904Y-63071428D01*
X82161904Y-62833333D01*
X82209523Y-62642857D01*
X82257142Y-62547619D01*
X82304761Y-62500000D01*
X82400000Y-62452380D01*
X83161904Y-63452380D02*
X83161904Y-62452380D01*
X83257142Y-63071428D02*
X83542857Y-63452380D01*
X83542857Y-62785714D02*
X83161904Y-63166666D01*
X86604761Y-57752380D02*
X86271428Y-57276190D01*
X86033333Y-57752380D02*
X86033333Y-56752380D01*
X86414285Y-56752380D01*
X86509523Y-56800000D01*
X86557142Y-56847619D01*
X86604761Y-56942857D01*
X86604761Y-57085714D01*
X86557142Y-57180952D01*
X86509523Y-57228571D01*
X86414285Y-57276190D01*
X86033333Y-57276190D01*
X86890476Y-56752380D02*
X87223809Y-57752380D01*
X87557142Y-56752380D01*
X88414285Y-57752380D02*
X87842857Y-57752380D01*
X88128571Y-57752380D02*
X88128571Y-56752380D01*
X88033333Y-56895238D01*
X87938095Y-56990476D01*
X87842857Y-57038095D01*
%TO.C,RV2*%
X86504761Y-82452380D02*
X86171428Y-81976190D01*
X85933333Y-82452380D02*
X85933333Y-81452380D01*
X86314285Y-81452380D01*
X86409523Y-81500000D01*
X86457142Y-81547619D01*
X86504761Y-81642857D01*
X86504761Y-81785714D01*
X86457142Y-81880952D01*
X86409523Y-81928571D01*
X86314285Y-81976190D01*
X85933333Y-81976190D01*
X86790476Y-81452380D02*
X87123809Y-82452380D01*
X87457142Y-81452380D01*
X87742857Y-81547619D02*
X87790476Y-81500000D01*
X87885714Y-81452380D01*
X88123809Y-81452380D01*
X88219047Y-81500000D01*
X88266666Y-81547619D01*
X88314285Y-81642857D01*
X88314285Y-81738095D01*
X88266666Y-81880952D01*
X87695238Y-82452380D01*
X88314285Y-82452380D01*
X80928571Y-88452380D02*
X80357142Y-88452380D01*
X80642857Y-88452380D02*
X80642857Y-87452380D01*
X80547619Y-87595238D01*
X80452380Y-87690476D01*
X80357142Y-87738095D01*
X81547619Y-87452380D02*
X81642857Y-87452380D01*
X81738095Y-87500000D01*
X81785714Y-87547619D01*
X81833333Y-87642857D01*
X81880952Y-87833333D01*
X81880952Y-88071428D01*
X81833333Y-88261904D01*
X81785714Y-88357142D01*
X81738095Y-88404761D01*
X81642857Y-88452380D01*
X81547619Y-88452380D01*
X81452380Y-88404761D01*
X81404761Y-88357142D01*
X81357142Y-88261904D01*
X81309523Y-88071428D01*
X81309523Y-87833333D01*
X81357142Y-87642857D01*
X81404761Y-87547619D01*
X81452380Y-87500000D01*
X81547619Y-87452380D01*
X82500000Y-87452380D02*
X82595238Y-87452380D01*
X82690476Y-87500000D01*
X82738095Y-87547619D01*
X82785714Y-87642857D01*
X82833333Y-87833333D01*
X82833333Y-88071428D01*
X82785714Y-88261904D01*
X82738095Y-88357142D01*
X82690476Y-88404761D01*
X82595238Y-88452380D01*
X82500000Y-88452380D01*
X82404761Y-88404761D01*
X82357142Y-88357142D01*
X82309523Y-88261904D01*
X82261904Y-88071428D01*
X82261904Y-87833333D01*
X82309523Y-87642857D01*
X82357142Y-87547619D01*
X82404761Y-87500000D01*
X82500000Y-87452380D01*
X83261904Y-88452380D02*
X83261904Y-87452380D01*
X83357142Y-88071428D02*
X83642857Y-88452380D01*
X83642857Y-87785714D02*
X83261904Y-88166666D01*
%TO.C,D3*%
X85412380Y-109708095D02*
X84412380Y-109708095D01*
X84412380Y-109470000D01*
X84460000Y-109327142D01*
X84555238Y-109231904D01*
X84650476Y-109184285D01*
X84840952Y-109136666D01*
X84983809Y-109136666D01*
X85174285Y-109184285D01*
X85269523Y-109231904D01*
X85364761Y-109327142D01*
X85412380Y-109470000D01*
X85412380Y-109708095D01*
X84412380Y-108803333D02*
X84412380Y-108184285D01*
X84793333Y-108517619D01*
X84793333Y-108374761D01*
X84840952Y-108279523D01*
X84888571Y-108231904D01*
X84983809Y-108184285D01*
X85221904Y-108184285D01*
X85317142Y-108231904D01*
X85364761Y-108279523D01*
X85412380Y-108374761D01*
X85412380Y-108660476D01*
X85364761Y-108755714D01*
X85317142Y-108803333D01*
%TO.C,R11*%
X79357142Y-104852380D02*
X79023809Y-104376190D01*
X78785714Y-104852380D02*
X78785714Y-103852380D01*
X79166666Y-103852380D01*
X79261904Y-103900000D01*
X79309523Y-103947619D01*
X79357142Y-104042857D01*
X79357142Y-104185714D01*
X79309523Y-104280952D01*
X79261904Y-104328571D01*
X79166666Y-104376190D01*
X78785714Y-104376190D01*
X80309523Y-104852380D02*
X79738095Y-104852380D01*
X80023809Y-104852380D02*
X80023809Y-103852380D01*
X79928571Y-103995238D01*
X79833333Y-104090476D01*
X79738095Y-104138095D01*
X81261904Y-104852380D02*
X80690476Y-104852380D01*
X80976190Y-104852380D02*
X80976190Y-103852380D01*
X80880952Y-103995238D01*
X80785714Y-104090476D01*
X80690476Y-104138095D01*
X85214761Y-104852380D02*
X84643333Y-104852380D01*
X84929047Y-104852380D02*
X84929047Y-103852380D01*
X84833809Y-103995238D01*
X84738571Y-104090476D01*
X84643333Y-104138095D01*
X85833809Y-103852380D02*
X85929047Y-103852380D01*
X86024285Y-103900000D01*
X86071904Y-103947619D01*
X86119523Y-104042857D01*
X86167142Y-104233333D01*
X86167142Y-104471428D01*
X86119523Y-104661904D01*
X86071904Y-104757142D01*
X86024285Y-104804761D01*
X85929047Y-104852380D01*
X85833809Y-104852380D01*
X85738571Y-104804761D01*
X85690952Y-104757142D01*
X85643333Y-104661904D01*
X85595714Y-104471428D01*
X85595714Y-104233333D01*
X85643333Y-104042857D01*
X85690952Y-103947619D01*
X85738571Y-103900000D01*
X85833809Y-103852380D01*
X86595714Y-104852380D02*
X86595714Y-103852380D01*
X86690952Y-104471428D02*
X86976666Y-104852380D01*
X86976666Y-104185714D02*
X86595714Y-104566666D01*
%TO.C,J8*%
X111166666Y-106522380D02*
X111166666Y-107236666D01*
X111119047Y-107379523D01*
X111023809Y-107474761D01*
X110880952Y-107522380D01*
X110785714Y-107522380D01*
X111785714Y-106950952D02*
X111690476Y-106903333D01*
X111642857Y-106855714D01*
X111595238Y-106760476D01*
X111595238Y-106712857D01*
X111642857Y-106617619D01*
X111690476Y-106570000D01*
X111785714Y-106522380D01*
X111976190Y-106522380D01*
X112071428Y-106570000D01*
X112119047Y-106617619D01*
X112166666Y-106712857D01*
X112166666Y-106760476D01*
X112119047Y-106855714D01*
X112071428Y-106903333D01*
X111976190Y-106950952D01*
X111785714Y-106950952D01*
X111690476Y-106998571D01*
X111642857Y-107046190D01*
X111595238Y-107141428D01*
X111595238Y-107331904D01*
X111642857Y-107427142D01*
X111690476Y-107474761D01*
X111785714Y-107522380D01*
X111976190Y-107522380D01*
X112071428Y-107474761D01*
X112119047Y-107427142D01*
X112166666Y-107331904D01*
X112166666Y-107141428D01*
X112119047Y-107046190D01*
X112071428Y-106998571D01*
X111976190Y-106950952D01*
%TD*%
M02*
