M48
; DRILL file {KiCad 5.1.9+dfsg1-1~bpo10+1} date Tue Dec 28 01:34:04 2021
; FORMAT={2:4/ absolute / inch / suppress leading zeros}
; #@! TF.CreationDate,2021-12-28T01:34:04+08:00
; #@! TF.GenerationSoftware,Kicad,Pcbnew,5.1.9+dfsg1-1~bpo10+1
FMAT,2
INCH,TZ
T1C0.0315
T2C0.0354
T3C0.0374
T4C0.0394
T5C0.0433
T6C0.0480
T7C0.0559
T8C0.0563
T9C0.1260
T10C0.0197
T11C0.1260
%
G90
G05
T1
X31055Y-30315
X31134Y-28937
X32276Y-38622
X32276Y-39882
X32283Y-41102
X34055Y-30315
X34134Y-28937
X35276Y-38622
X35276Y-39882
X35283Y-41102
X37598Y-51772
X37795Y-29528
X38189Y-33307
X38189Y-35276
X38189Y-36457
X38189Y-37441
X38457Y-53071
X38457Y-54071
X38457Y-55071
X38457Y-56071
X38457Y-57071
X38457Y-58071
X38457Y-59071
X38457Y-60071
X38496Y-44291
X38496Y-48031
X38496Y-49291
X38504Y-45551
X38504Y-46811
X38504Y-50512
X38780Y-29528
X38976Y-31496
X39520Y-34449
X39520Y-35449
X39520Y-36449
X39520Y-37449
X39567Y-51772
X39961Y-31496
X40551Y-38780
X40709Y-51772
X41457Y-53071
X41457Y-54071
X41457Y-55071
X41457Y-56071
X41457Y-57071
X41457Y-58071
X41457Y-59071
X41457Y-60071
X41496Y-44291
X41496Y-48031
X41496Y-49291
X41504Y-45551
X41504Y-46811
X41504Y-50512
X42205Y-40866
X42520Y-34449
X42520Y-35449
X42520Y-36449
X42520Y-37449
X42520Y-38780
X42677Y-51772
X43205Y-40866
X43898Y-34252
X43898Y-35236
X44205Y-40866
T2
X29724Y-28705
X29724Y-29705
X29724Y-38469
X29724Y-39469
X32283Y-42402
X32283Y-43402
T3
X38780Y-22244
X38780Y-23228
X38780Y-24213
X38780Y-25197
X38780Y-26181
X38780Y-27165
T4
X31280Y-37500
X31299Y-27756
X32264Y-37500
X32283Y-27756
X33248Y-37500
X33268Y-27756
X35236Y-43110
X35236Y-44110
X35236Y-45110
X35236Y-46110
X35236Y-47110
X35236Y-48110
X35236Y-49110
X35236Y-50110
X35236Y-51110
X35236Y-52110
X35236Y-53110
X35236Y-54110
X35236Y-55110
X35236Y-56110
X35236Y-57110
X35236Y-58110
X42110Y-23228
X42110Y-24228
X42110Y-25228
X42110Y-26228
X42110Y-27228
X42110Y-28228
X42110Y-29228
X42110Y-30228
X43110Y-23228
X43110Y-24228
X43110Y-25228
X43110Y-26228
X43110Y-27228
X43110Y-28228
X43110Y-29228
X43110Y-30228
X43898Y-43071
X43898Y-44071
X43898Y-45071
X43898Y-46071
X43898Y-47071
X43898Y-48071
X43898Y-49071
X43898Y-50071
X43898Y-51071
X43898Y-52071
X43898Y-53071
X43898Y-54071
X43898Y-55071
X43898Y-56071
X43898Y-57071
X43898Y-58071
T6
X33858Y-46457
X33858Y-50591
X33858Y-54724
X33858Y-58858
T7
X32638Y-46457
X32638Y-50591
X32638Y-54724
X32638Y-58858
T8
X29370Y-46457
X29370Y-50591
X29370Y-54724
X29370Y-58858
T10
X27657Y-28839
X27657Y-29134
X27657Y-29429
X27657Y-50098
X27657Y-50394
X27657Y-50689
X28248Y-28839
X28248Y-29134
X28248Y-29429
X28248Y-50098
X28248Y-50394
X28248Y-50689
X36319Y-28839
X36319Y-29134
X36319Y-29429
X36319Y-50098
X36319Y-50394
X36319Y-50689
X36909Y-28839
X36909Y-29134
X36909Y-29429
X36909Y-50098
X36909Y-50394
X36909Y-50689
T11
X29921Y-41732
X38583Y-41732
T5
G00X30374Y-34783
M15
G01X30374Y-34311
M16
G05
G00X30394Y-25039
M15
G01X30394Y-24567
M16
G05
G00X34154Y-34783
M15
G01X34154Y-34311
M16
G05
G00X34173Y-25039
M15
G01X34173Y-24567
M16
G05
T9
G00X21102Y-16929
M15
G01X22205Y-16929
M16
G05
G00X25039Y-65157
M15
G01X26142Y-65157
M16
G05
T0
M30
