%FSLAX45Y45*%
G04 Gerber Fmt 4.5, Leading zero omitted, Abs format (unit mm)*
G04 Created by KiCad (PCBNEW 5.1.9+dfsg1-1~bpo10+1) date 2022-05-13 01:17:32*
%MOMM*%
%LPD*%
G01*
G04 APERTURE LIST*
%TA.AperFunction,Profile*%
%ADD10C,0.100000*%
%TD*%
%ADD11C,0.200000*%
%ADD12C,0.300000*%
G04 APERTURE END LIST*
D10*
X6150000Y-10900000D02*
G75*
G03*
X6150000Y-10900000I-150000J0D01*
G01*
X6054138Y-11795862D02*
G75*
G03*
X6054138Y-11795862I-304138J0D01*
G01*
X6050000Y-14950000D02*
G75*
G03*
X6050000Y-14950000I-300000J0D01*
G01*
X6050000Y-13900000D02*
G75*
G03*
X6050000Y-13900000I-300000J0D01*
G01*
X6050000Y-12850000D02*
G75*
G03*
X6050000Y-12850000I-300000J0D01*
G01*
X5500000Y-7420000D02*
G75*
G03*
X5500000Y-7420000I-150000J0D01*
G01*
X5500000Y-9900000D02*
G75*
G03*
X5500000Y-9900000I-150000J0D01*
G01*
X7000000Y-16850000D02*
X7000000Y-15550000D01*
X7000000Y-13000000D02*
X7000000Y-15550000D01*
X7000000Y-7600000D02*
X7000000Y-13000000D01*
X5000000Y-16850000D02*
X5000000Y-4000000D01*
X7000000Y-16850000D02*
X5000000Y-16850000D01*
X7000000Y-4000000D02*
X7000000Y-7600000D01*
X5000000Y-4000000D02*
X7000000Y-4000000D01*
X6375000Y-8775000D02*
G75*
G03*
X6375000Y-8775000I-375000J0D01*
G01*
X6375000Y-6300000D02*
G75*
G03*
X6375000Y-6300000I-375000J0D01*
G01*
D11*
X5590000Y-4140000D02*
X5910000Y-4460000D01*
X5910000Y-4140000D02*
X5590000Y-4460000D01*
X5610000Y-4450000D02*
X5890000Y-4450000D01*
X5610000Y-4150000D02*
X5890000Y-4150000D01*
X5890000Y-4450000D02*
G75*
G03*
X5890000Y-4150000I0J150000D01*
G01*
X5610000Y-4150000D02*
G75*
G03*
X5610000Y-4450000I0J-150000D01*
G01*
X5590000Y-16390000D02*
X5910000Y-16710000D01*
X5910000Y-16390000D02*
X5590000Y-16710000D01*
X5610000Y-16700000D02*
X5890000Y-16700000D01*
X5610000Y-16400000D02*
X5890000Y-16400000D01*
X5890000Y-16700000D02*
G75*
G03*
X5890000Y-16400000I0J150000D01*
G01*
X5610000Y-16400000D02*
G75*
G03*
X5610000Y-16700000I0J-150000D01*
G01*
D12*
X5281428Y-17320714D02*
X5281428Y-17020714D01*
X5352857Y-17020714D01*
X5395714Y-17035000D01*
X5424286Y-17063572D01*
X5438571Y-17092143D01*
X5452857Y-17149286D01*
X5452857Y-17192143D01*
X5438571Y-17249286D01*
X5424286Y-17277857D01*
X5395714Y-17306429D01*
X5352857Y-17320714D01*
X5281428Y-17320714D01*
X5581428Y-17320714D02*
X5581428Y-17120714D01*
X5581428Y-17177857D02*
X5595714Y-17149286D01*
X5610000Y-17135000D01*
X5638571Y-17120714D01*
X5667143Y-17120714D01*
X5767143Y-17320714D02*
X5767143Y-17120714D01*
X5767143Y-17020714D02*
X5752857Y-17035000D01*
X5767143Y-17049286D01*
X5781428Y-17035000D01*
X5767143Y-17020714D01*
X5767143Y-17049286D01*
X5952857Y-17320714D02*
X5924286Y-17306429D01*
X5910000Y-17277857D01*
X5910000Y-17020714D01*
X6110000Y-17320714D02*
X6081428Y-17306429D01*
X6067143Y-17277857D01*
X6067143Y-17020714D01*
X6452857Y-17320714D02*
X6452857Y-17020714D01*
X6552857Y-17235000D01*
X6652857Y-17020714D01*
X6652857Y-17320714D01*
X6924286Y-17320714D02*
X6924286Y-17163572D01*
X6910000Y-17135000D01*
X6881428Y-17120714D01*
X6824286Y-17120714D01*
X6795714Y-17135000D01*
X6924286Y-17306429D02*
X6895714Y-17320714D01*
X6824286Y-17320714D01*
X6795714Y-17306429D01*
X6781428Y-17277857D01*
X6781428Y-17249286D01*
X6795714Y-17220714D01*
X6824286Y-17206429D01*
X6895714Y-17206429D01*
X6924286Y-17192143D01*
X7067143Y-17120714D02*
X7067143Y-17420714D01*
X7067143Y-17135000D02*
X7095714Y-17120714D01*
X7152857Y-17120714D01*
X7181428Y-17135000D01*
X7195714Y-17149286D01*
X7210000Y-17177857D01*
X7210000Y-17263572D01*
X7195714Y-17292143D01*
X7181428Y-17306429D01*
X7152857Y-17320714D01*
X7095714Y-17320714D01*
X7067143Y-17306429D01*
X7338571Y-17292143D02*
X7352857Y-17306429D01*
X7338571Y-17320714D01*
X7324286Y-17306429D01*
X7338571Y-17292143D01*
X7338571Y-17320714D01*
X7338571Y-17135000D02*
X7352857Y-17149286D01*
X7338571Y-17163572D01*
X7324286Y-17149286D01*
X7338571Y-17135000D01*
X7338571Y-17163572D01*
X4675000Y-17655000D02*
X4995000Y-17975000D01*
X4995000Y-17655000D02*
X4675000Y-17975000D01*
X5252857Y-17650714D02*
X5438571Y-17650714D01*
X5338571Y-17765000D01*
X5381428Y-17765000D01*
X5410000Y-17779286D01*
X5424286Y-17793572D01*
X5438571Y-17822143D01*
X5438571Y-17893572D01*
X5424286Y-17922143D01*
X5410000Y-17936429D01*
X5381428Y-17950714D01*
X5295714Y-17950714D01*
X5267143Y-17936429D01*
X5252857Y-17922143D01*
X5567143Y-17922143D02*
X5581428Y-17936429D01*
X5567143Y-17950714D01*
X5552857Y-17936429D01*
X5567143Y-17922143D01*
X5567143Y-17950714D01*
X5695714Y-17679286D02*
X5710000Y-17665000D01*
X5738571Y-17650714D01*
X5810000Y-17650714D01*
X5838571Y-17665000D01*
X5852857Y-17679286D01*
X5867143Y-17707857D01*
X5867143Y-17736429D01*
X5852857Y-17779286D01*
X5681428Y-17950714D01*
X5867143Y-17950714D01*
X6052857Y-17650714D02*
X6081428Y-17650714D01*
X6110000Y-17665000D01*
X6124286Y-17679286D01*
X6138571Y-17707857D01*
X6152857Y-17765000D01*
X6152857Y-17836429D01*
X6138571Y-17893572D01*
X6124286Y-17922143D01*
X6110000Y-17936429D01*
X6081428Y-17950714D01*
X6052857Y-17950714D01*
X6024286Y-17936429D01*
X6010000Y-17922143D01*
X5995714Y-17893572D01*
X5981428Y-17836429D01*
X5981428Y-17765000D01*
X5995714Y-17707857D01*
X6010000Y-17679286D01*
X6024286Y-17665000D01*
X6052857Y-17650714D01*
X6281428Y-17950714D02*
X6281428Y-17750714D01*
X6281428Y-17779286D02*
X6295714Y-17765000D01*
X6324286Y-17750714D01*
X6367143Y-17750714D01*
X6395714Y-17765000D01*
X6410000Y-17793572D01*
X6410000Y-17950714D01*
X6410000Y-17793572D02*
X6424286Y-17765000D01*
X6452857Y-17750714D01*
X6495714Y-17750714D01*
X6524286Y-17765000D01*
X6538571Y-17793572D01*
X6538571Y-17950714D01*
X6681428Y-17950714D02*
X6681428Y-17750714D01*
X6681428Y-17779286D02*
X6695714Y-17765000D01*
X6724286Y-17750714D01*
X6767143Y-17750714D01*
X6795714Y-17765000D01*
X6810000Y-17793572D01*
X6810000Y-17950714D01*
X6810000Y-17793572D02*
X6824286Y-17765000D01*
X6852857Y-17750714D01*
X6895714Y-17750714D01*
X6924286Y-17765000D01*
X6938571Y-17793572D01*
X6938571Y-17950714D01*
X7524286Y-17636429D02*
X7267143Y-18022143D01*
X7910000Y-17650714D02*
X7938571Y-17650714D01*
X7967143Y-17665000D01*
X7981428Y-17679286D01*
X7995714Y-17707857D01*
X8010000Y-17765000D01*
X8010000Y-17836429D01*
X7995714Y-17893572D01*
X7981428Y-17922143D01*
X7967143Y-17936429D01*
X7938571Y-17950714D01*
X7910000Y-17950714D01*
X7881428Y-17936429D01*
X7867143Y-17922143D01*
X7852857Y-17893572D01*
X7838571Y-17836429D01*
X7838571Y-17765000D01*
X7852857Y-17707857D01*
X7867143Y-17679286D01*
X7881428Y-17665000D01*
X7910000Y-17650714D01*
X8138571Y-17922143D02*
X8152857Y-17936429D01*
X8138571Y-17950714D01*
X8124286Y-17936429D01*
X8138571Y-17922143D01*
X8138571Y-17950714D01*
X8438571Y-17950714D02*
X8267143Y-17950714D01*
X8352857Y-17950714D02*
X8352857Y-17650714D01*
X8324286Y-17693572D01*
X8295714Y-17722143D01*
X8267143Y-17736429D01*
X8552857Y-17679286D02*
X8567143Y-17665000D01*
X8595714Y-17650714D01*
X8667143Y-17650714D01*
X8695714Y-17665000D01*
X8710000Y-17679286D01*
X8724286Y-17707857D01*
X8724286Y-17736429D01*
X8710000Y-17779286D01*
X8538571Y-17950714D01*
X8724286Y-17950714D01*
X8981428Y-17650714D02*
X8924286Y-17650714D01*
X8895714Y-17665000D01*
X8881428Y-17679286D01*
X8852857Y-17722143D01*
X8838571Y-17779286D01*
X8838571Y-17893572D01*
X8852857Y-17922143D01*
X8867143Y-17936429D01*
X8895714Y-17950714D01*
X8952857Y-17950714D01*
X8981428Y-17936429D01*
X8995714Y-17922143D01*
X9010000Y-17893572D01*
X9010000Y-17822143D01*
X8995714Y-17793572D01*
X8981428Y-17779286D01*
X8952857Y-17765000D01*
X8895714Y-17765000D01*
X8867143Y-17779286D01*
X8852857Y-17793572D01*
X8838571Y-17822143D01*
X9124286Y-17650714D02*
X9124286Y-17707857D01*
X9238571Y-17650714D02*
X9238571Y-17707857D01*
X9681428Y-18065000D02*
X9667143Y-18050714D01*
X9638571Y-18007857D01*
X9624286Y-17979286D01*
X9610000Y-17936429D01*
X9595714Y-17865000D01*
X9595714Y-17807857D01*
X9610000Y-17736429D01*
X9624286Y-17693572D01*
X9638571Y-17665000D01*
X9667143Y-17622143D01*
X9681428Y-17607857D01*
X9852857Y-17650714D02*
X9881428Y-17650714D01*
X9910000Y-17665000D01*
X9924286Y-17679286D01*
X9938571Y-17707857D01*
X9952857Y-17765000D01*
X9952857Y-17836429D01*
X9938571Y-17893572D01*
X9924286Y-17922143D01*
X9910000Y-17936429D01*
X9881428Y-17950714D01*
X9852857Y-17950714D01*
X9824286Y-17936429D01*
X9810000Y-17922143D01*
X9795714Y-17893572D01*
X9781428Y-17836429D01*
X9781428Y-17765000D01*
X9795714Y-17707857D01*
X9810000Y-17679286D01*
X9824286Y-17665000D01*
X9852857Y-17650714D01*
X10310000Y-17950714D02*
X10310000Y-17650714D01*
X10438571Y-17950714D02*
X10438571Y-17793572D01*
X10424286Y-17765000D01*
X10395714Y-17750714D01*
X10352857Y-17750714D01*
X10324286Y-17765000D01*
X10310000Y-17779286D01*
X10624286Y-17950714D02*
X10595714Y-17936429D01*
X10581428Y-17922143D01*
X10567143Y-17893572D01*
X10567143Y-17807857D01*
X10581428Y-17779286D01*
X10595714Y-17765000D01*
X10624286Y-17750714D01*
X10667143Y-17750714D01*
X10695714Y-17765000D01*
X10710000Y-17779286D01*
X10724286Y-17807857D01*
X10724286Y-17893572D01*
X10710000Y-17922143D01*
X10695714Y-17936429D01*
X10667143Y-17950714D01*
X10624286Y-17950714D01*
X10895714Y-17950714D02*
X10867143Y-17936429D01*
X10852857Y-17907857D01*
X10852857Y-17650714D01*
X11124286Y-17936429D02*
X11095714Y-17950714D01*
X11038571Y-17950714D01*
X11010000Y-17936429D01*
X10995714Y-17907857D01*
X10995714Y-17793572D01*
X11010000Y-17765000D01*
X11038571Y-17750714D01*
X11095714Y-17750714D01*
X11124286Y-17765000D01*
X11138571Y-17793572D01*
X11138571Y-17822143D01*
X10995714Y-17850714D01*
X11252857Y-17936429D02*
X11281428Y-17950714D01*
X11338571Y-17950714D01*
X11367143Y-17936429D01*
X11381428Y-17907857D01*
X11381428Y-17893572D01*
X11367143Y-17865000D01*
X11338571Y-17850714D01*
X11295714Y-17850714D01*
X11267143Y-17836429D01*
X11252857Y-17807857D01*
X11252857Y-17793572D01*
X11267143Y-17765000D01*
X11295714Y-17750714D01*
X11338571Y-17750714D01*
X11367143Y-17765000D01*
X11738571Y-17836429D02*
X11967143Y-17836429D01*
X11852857Y-17950714D02*
X11852857Y-17722143D01*
X12324286Y-17679286D02*
X12338571Y-17665000D01*
X12367143Y-17650714D01*
X12438571Y-17650714D01*
X12467143Y-17665000D01*
X12481428Y-17679286D01*
X12495714Y-17707857D01*
X12495714Y-17736429D01*
X12481428Y-17779286D01*
X12310000Y-17950714D01*
X12495714Y-17950714D01*
X12838571Y-17936429D02*
X12867143Y-17950714D01*
X12924286Y-17950714D01*
X12952857Y-17936429D01*
X12967143Y-17907857D01*
X12967143Y-17893572D01*
X12952857Y-17865000D01*
X12924286Y-17850714D01*
X12881428Y-17850714D01*
X12852857Y-17836429D01*
X12838571Y-17807857D01*
X12838571Y-17793572D01*
X12852857Y-17765000D01*
X12881428Y-17750714D01*
X12924286Y-17750714D01*
X12952857Y-17765000D01*
X13138571Y-17950714D02*
X13110000Y-17936429D01*
X13095714Y-17907857D01*
X13095714Y-17650714D01*
X13295714Y-17950714D02*
X13267143Y-17936429D01*
X13252857Y-17922143D01*
X13238571Y-17893572D01*
X13238571Y-17807857D01*
X13252857Y-17779286D01*
X13267143Y-17765000D01*
X13295714Y-17750714D01*
X13338571Y-17750714D01*
X13367143Y-17765000D01*
X13381428Y-17779286D01*
X13395714Y-17807857D01*
X13395714Y-17893572D01*
X13381428Y-17922143D01*
X13367143Y-17936429D01*
X13338571Y-17950714D01*
X13295714Y-17950714D01*
X13481428Y-17750714D02*
X13595714Y-17750714D01*
X13524286Y-17650714D02*
X13524286Y-17907857D01*
X13538571Y-17936429D01*
X13567143Y-17950714D01*
X13595714Y-17950714D01*
X13681428Y-17936429D02*
X13710000Y-17950714D01*
X13767143Y-17950714D01*
X13795714Y-17936429D01*
X13810000Y-17907857D01*
X13810000Y-17893572D01*
X13795714Y-17865000D01*
X13767143Y-17850714D01*
X13724286Y-17850714D01*
X13695714Y-17836429D01*
X13681428Y-17807857D01*
X13681428Y-17793572D01*
X13695714Y-17765000D01*
X13724286Y-17750714D01*
X13767143Y-17750714D01*
X13795714Y-17765000D01*
X13910000Y-18065000D02*
X13924286Y-18050714D01*
X13952857Y-18007857D01*
X13967143Y-17979286D01*
X13981428Y-17936429D01*
X13995714Y-17865000D01*
X13995714Y-17807857D01*
X13981428Y-17736429D01*
X13967143Y-17693572D01*
X13952857Y-17665000D01*
X13924286Y-17622143D01*
X13910000Y-17607857D01*
M02*
