%TF.GenerationSoftware,KiCad,Pcbnew,5.1.9+dfsg1-1~bpo10+1*%
%TF.CreationDate,2022-05-13T01:17:35+08:00*%
%TF.ProjectId,MiniVCA 1.2 - Front,4d696e69-5643-4412-9031-2e32202d2046,rev?*%
%TF.SameCoordinates,Original*%
%TF.FileFunction,Soldermask,Top*%
%TF.FilePolarity,Negative*%
%FSLAX46Y46*%
G04 Gerber Fmt 4.6, Leading zero omitted, Abs format (unit mm)*
G04 Created by KiCad (PCBNEW 5.1.9+dfsg1-1~bpo10+1) date 2022-05-13 01:17:35*
%MOMM*%
%LPD*%
G01*
G04 APERTURE LIST*
%ADD10C,0.400000*%
%ADD11C,0.600000*%
%ADD12C,0.300000*%
%ADD13C,0.350000*%
%ADD14C,0.150000*%
%ADD15O,7.000000X4.200000*%
G04 APERTURE END LIST*
D10*
X69000000Y-107000000D02*
X60600000Y-115400000D01*
X69000000Y-87300000D02*
X69000000Y-107000000D01*
X69000000Y-69000000D02*
X66800000Y-67300000D01*
X69000000Y-87300000D02*
X69000000Y-69000000D01*
X51500000Y-102250000D02*
X52500000Y-100750000D01*
X51500000Y-123100000D02*
X51500000Y-102250000D01*
X54400000Y-126000000D02*
X51500000Y-123100000D01*
D11*
X61500000Y-149500000D02*
G75*
G03*
X61500000Y-149500000I-4000000J0D01*
G01*
D10*
X61500000Y-128500000D02*
G75*
G03*
X61500000Y-128500000I-4000000J0D01*
G01*
X61500000Y-118000000D02*
G75*
G03*
X61500000Y-118000000I-4000000J0D01*
G01*
X62000000Y-109000000D02*
G75*
G03*
X62000000Y-109000000I-2000000J0D01*
G01*
X54450000Y-72400000D02*
X55800000Y-69800000D01*
X54500000Y-97250000D02*
X56000000Y-94750000D01*
X68000000Y-87750000D02*
G75*
G03*
X68000000Y-87750000I-8000000J0D01*
G01*
X68000000Y-63000000D02*
G75*
G03*
X68000000Y-63000000I-8000000J0D01*
G01*
X55500000Y-74200000D02*
G75*
G03*
X55500000Y-74200000I-2000000J0D01*
G01*
X55500000Y-99000000D02*
G75*
G03*
X55500000Y-99000000I-2000000J0D01*
G01*
D12*
X57559523Y-101964285D02*
X57464285Y-102059523D01*
X57178571Y-102154761D01*
X56988095Y-102154761D01*
X56702380Y-102059523D01*
X56511904Y-101869047D01*
X56416666Y-101678571D01*
X56321428Y-101297619D01*
X56321428Y-101011904D01*
X56416666Y-100630952D01*
X56511904Y-100440476D01*
X56702380Y-100250000D01*
X56988095Y-100154761D01*
X57178571Y-100154761D01*
X57464285Y-100250000D01*
X57559523Y-100345238D01*
X58130952Y-100154761D02*
X58797619Y-102154761D01*
X59464285Y-100154761D01*
X60035714Y-100345238D02*
X60130952Y-100250000D01*
X60321428Y-100154761D01*
X60797619Y-100154761D01*
X60988095Y-100250000D01*
X61083333Y-100345238D01*
X61178571Y-100535714D01*
X61178571Y-100726190D01*
X61083333Y-101011904D01*
X59940476Y-102154761D01*
X61178571Y-102154761D01*
X57559523Y-76714285D02*
X57464285Y-76809523D01*
X57178571Y-76904761D01*
X56988095Y-76904761D01*
X56702380Y-76809523D01*
X56511904Y-76619047D01*
X56416666Y-76428571D01*
X56321428Y-76047619D01*
X56321428Y-75761904D01*
X56416666Y-75380952D01*
X56511904Y-75190476D01*
X56702380Y-75000000D01*
X56988095Y-74904761D01*
X57178571Y-74904761D01*
X57464285Y-75000000D01*
X57559523Y-75095238D01*
X58130952Y-74904761D02*
X58797619Y-76904761D01*
X59464285Y-74904761D01*
X61178571Y-76904761D02*
X60035714Y-76904761D01*
X60607142Y-76904761D02*
X60607142Y-74904761D01*
X60416666Y-75190476D01*
X60226190Y-75380952D01*
X60035714Y-75476190D01*
X64000000Y-148404761D02*
X64380952Y-148404761D01*
X64571428Y-148500000D01*
X64761904Y-148690476D01*
X64857142Y-149071428D01*
X64857142Y-149738095D01*
X64761904Y-150119047D01*
X64571428Y-150309523D01*
X64380952Y-150404761D01*
X64000000Y-150404761D01*
X63809523Y-150309523D01*
X63619047Y-150119047D01*
X63523809Y-149738095D01*
X63523809Y-149071428D01*
X63619047Y-148690476D01*
X63809523Y-148500000D01*
X64000000Y-148404761D01*
X65714285Y-148404761D02*
X65714285Y-150023809D01*
X65809523Y-150214285D01*
X65904761Y-150309523D01*
X66095238Y-150404761D01*
X66476190Y-150404761D01*
X66666666Y-150309523D01*
X66761904Y-150214285D01*
X66857142Y-150023809D01*
X66857142Y-148404761D01*
X67523809Y-148404761D02*
X68666666Y-148404761D01*
X68095238Y-150404761D02*
X68095238Y-148404761D01*
X63452380Y-139904761D02*
X63452380Y-137904761D01*
X64404761Y-139904761D02*
X64404761Y-137904761D01*
X65547619Y-139904761D01*
X65547619Y-137904761D01*
X63809523Y-129214285D02*
X63714285Y-129309523D01*
X63428571Y-129404761D01*
X63238095Y-129404761D01*
X62952380Y-129309523D01*
X62761904Y-129119047D01*
X62666666Y-128928571D01*
X62571428Y-128547619D01*
X62571428Y-128261904D01*
X62666666Y-127880952D01*
X62761904Y-127690476D01*
X62952380Y-127500000D01*
X63238095Y-127404761D01*
X63428571Y-127404761D01*
X63714285Y-127500000D01*
X63809523Y-127595238D01*
X64380952Y-127404761D02*
X65047619Y-129404761D01*
X65714285Y-127404761D01*
X66285714Y-127595238D02*
X66380952Y-127500000D01*
X66571428Y-127404761D01*
X67047619Y-127404761D01*
X67238095Y-127500000D01*
X67333333Y-127595238D01*
X67428571Y-127785714D01*
X67428571Y-127976190D01*
X67333333Y-128261904D01*
X66190476Y-129404761D01*
X67428571Y-129404761D01*
X63809523Y-118714285D02*
X63714285Y-118809523D01*
X63428571Y-118904761D01*
X63238095Y-118904761D01*
X62952380Y-118809523D01*
X62761904Y-118619047D01*
X62666666Y-118428571D01*
X62571428Y-118047619D01*
X62571428Y-117761904D01*
X62666666Y-117380952D01*
X62761904Y-117190476D01*
X62952380Y-117000000D01*
X63238095Y-116904761D01*
X63428571Y-116904761D01*
X63714285Y-117000000D01*
X63809523Y-117095238D01*
X64380952Y-116904761D02*
X65047619Y-118904761D01*
X65714285Y-116904761D01*
X67428571Y-118904761D02*
X66285714Y-118904761D01*
X66857142Y-118904761D02*
X66857142Y-116904761D01*
X66666666Y-117190476D01*
X66476190Y-117380952D01*
X66285714Y-117476190D01*
D13*
X54761904Y-49404761D02*
X54761904Y-47404761D01*
X55428571Y-48833333D01*
X56095238Y-47404761D01*
X56095238Y-49404761D01*
X57047619Y-49404761D02*
X57047619Y-48071428D01*
X57047619Y-47404761D02*
X56952380Y-47500000D01*
X57047619Y-47595238D01*
X57142857Y-47500000D01*
X57047619Y-47404761D01*
X57047619Y-47595238D01*
X58000000Y-48071428D02*
X58000000Y-49404761D01*
X58000000Y-48261904D02*
X58095238Y-48166666D01*
X58285714Y-48071428D01*
X58571428Y-48071428D01*
X58761904Y-48166666D01*
X58857142Y-48357142D01*
X58857142Y-49404761D01*
X59809523Y-49404761D02*
X59809523Y-48071428D01*
X59809523Y-47404761D02*
X59714285Y-47500000D01*
X59809523Y-47595238D01*
X59904761Y-47500000D01*
X59809523Y-47404761D01*
X59809523Y-47595238D01*
X60476190Y-47404761D02*
X61142857Y-49404761D01*
X61809523Y-47404761D01*
X63619047Y-49214285D02*
X63523809Y-49309523D01*
X63238095Y-49404761D01*
X63047619Y-49404761D01*
X62761904Y-49309523D01*
X62571428Y-49119047D01*
X62476190Y-48928571D01*
X62380952Y-48547619D01*
X62380952Y-48261904D01*
X62476190Y-47880952D01*
X62571428Y-47690476D01*
X62761904Y-47500000D01*
X63047619Y-47404761D01*
X63238095Y-47404761D01*
X63523809Y-47500000D01*
X63619047Y-47595238D01*
X64380952Y-48833333D02*
X65333333Y-48833333D01*
X64190476Y-49404761D02*
X64857142Y-47404761D01*
X65523809Y-49404761D01*
D14*
X53065476Y-158970238D02*
X53005952Y-158910714D01*
X52886904Y-158851190D01*
X52767857Y-158851190D01*
X52648809Y-158910714D01*
X52589285Y-158970238D01*
X52529761Y-159089285D01*
X52529761Y-159208333D01*
X52589285Y-159327380D01*
X52648809Y-159386904D01*
X52767857Y-159446428D01*
X52886904Y-159446428D01*
X53005952Y-159386904D01*
X53065476Y-159327380D01*
X53065476Y-158851190D02*
X53065476Y-159327380D01*
X53125000Y-159386904D01*
X53184523Y-159386904D01*
X53303571Y-159327380D01*
X53363095Y-159208333D01*
X53363095Y-158910714D01*
X53244047Y-158732142D01*
X53065476Y-158613095D01*
X52827380Y-158553571D01*
X52589285Y-158613095D01*
X52410714Y-158732142D01*
X52291666Y-158910714D01*
X52232142Y-159148809D01*
X52291666Y-159386904D01*
X52410714Y-159565476D01*
X52589285Y-159684523D01*
X52827380Y-159744047D01*
X53065476Y-159684523D01*
X53244047Y-159565476D01*
X53898809Y-159565476D02*
X53898809Y-158315476D01*
X53898809Y-158791666D02*
X54017857Y-158732142D01*
X54255952Y-158732142D01*
X54375000Y-158791666D01*
X54434523Y-158851190D01*
X54494047Y-158970238D01*
X54494047Y-159327380D01*
X54434523Y-159446428D01*
X54375000Y-159505952D01*
X54255952Y-159565476D01*
X54017857Y-159565476D01*
X53898809Y-159505952D01*
X55505952Y-159505952D02*
X55386904Y-159565476D01*
X55148809Y-159565476D01*
X55029761Y-159505952D01*
X54970238Y-159386904D01*
X54970238Y-158910714D01*
X55029761Y-158791666D01*
X55148809Y-158732142D01*
X55386904Y-158732142D01*
X55505952Y-158791666D01*
X55565476Y-158910714D01*
X55565476Y-159029761D01*
X54970238Y-159148809D01*
X56101190Y-158732142D02*
X56101190Y-159565476D01*
X56101190Y-158851190D02*
X56160714Y-158791666D01*
X56279761Y-158732142D01*
X56458333Y-158732142D01*
X56577380Y-158791666D01*
X56636904Y-158910714D01*
X56636904Y-159565476D01*
X57232142Y-158732142D02*
X57232142Y-159803571D01*
X57172619Y-159922619D01*
X57053571Y-159982142D01*
X56994047Y-159982142D01*
X57232142Y-158315476D02*
X57172619Y-158375000D01*
X57232142Y-158434523D01*
X57291666Y-158375000D01*
X57232142Y-158315476D01*
X57232142Y-158434523D01*
X57827380Y-159565476D02*
X57827380Y-158732142D01*
X57827380Y-158315476D02*
X57767857Y-158375000D01*
X57827380Y-158434523D01*
X57886904Y-158375000D01*
X57827380Y-158315476D01*
X57827380Y-158434523D01*
X58958333Y-159565476D02*
X58958333Y-158910714D01*
X58898809Y-158791666D01*
X58779761Y-158732142D01*
X58541666Y-158732142D01*
X58422619Y-158791666D01*
X58958333Y-159505952D02*
X58839285Y-159565476D01*
X58541666Y-159565476D01*
X58422619Y-159505952D01*
X58363095Y-159386904D01*
X58363095Y-159267857D01*
X58422619Y-159148809D01*
X58541666Y-159089285D01*
X58839285Y-159089285D01*
X58958333Y-159029761D01*
X59732142Y-159565476D02*
X59613095Y-159505952D01*
X59553571Y-159446428D01*
X59494047Y-159327380D01*
X59494047Y-158970238D01*
X59553571Y-158851190D01*
X59613095Y-158791666D01*
X59732142Y-158732142D01*
X59910714Y-158732142D01*
X60029761Y-158791666D01*
X60089285Y-158851190D01*
X60148809Y-158970238D01*
X60148809Y-159327380D01*
X60089285Y-159446428D01*
X60029761Y-159505952D01*
X59910714Y-159565476D01*
X59732142Y-159565476D01*
X60684523Y-159565476D02*
X60684523Y-158732142D01*
X60684523Y-158851190D02*
X60744047Y-158791666D01*
X60863095Y-158732142D01*
X61041666Y-158732142D01*
X61160714Y-158791666D01*
X61220238Y-158910714D01*
X61220238Y-159565476D01*
X61220238Y-158910714D02*
X61279761Y-158791666D01*
X61398809Y-158732142D01*
X61577380Y-158732142D01*
X61696428Y-158791666D01*
X61755952Y-158910714D01*
X61755952Y-159565476D01*
X62529761Y-159565476D02*
X62410714Y-159505952D01*
X62351190Y-159446428D01*
X62291666Y-159327380D01*
X62291666Y-158970238D01*
X62351190Y-158851190D01*
X62410714Y-158791666D01*
X62529761Y-158732142D01*
X62708333Y-158732142D01*
X62827380Y-158791666D01*
X62886904Y-158851190D01*
X62946428Y-158970238D01*
X62946428Y-159327380D01*
X62886904Y-159446428D01*
X62827380Y-159505952D01*
X62708333Y-159565476D01*
X62529761Y-159565476D01*
X64017857Y-159565476D02*
X64017857Y-158315476D01*
X64017857Y-159505952D02*
X63898809Y-159565476D01*
X63660714Y-159565476D01*
X63541666Y-159505952D01*
X63482142Y-159446428D01*
X63422619Y-159327380D01*
X63422619Y-158970238D01*
X63482142Y-158851190D01*
X63541666Y-158791666D01*
X63660714Y-158732142D01*
X63898809Y-158732142D01*
X64017857Y-158791666D01*
X65148809Y-158732142D02*
X65148809Y-159565476D01*
X64613095Y-158732142D02*
X64613095Y-159386904D01*
X64672619Y-159505952D01*
X64791666Y-159565476D01*
X64970238Y-159565476D01*
X65089285Y-159505952D01*
X65148809Y-159446428D01*
X65922619Y-159565476D02*
X65803571Y-159505952D01*
X65744047Y-159386904D01*
X65744047Y-158315476D01*
X66934523Y-159565476D02*
X66934523Y-158910714D01*
X66875000Y-158791666D01*
X66755952Y-158732142D01*
X66517857Y-158732142D01*
X66398809Y-158791666D01*
X66934523Y-159505952D02*
X66815476Y-159565476D01*
X66517857Y-159565476D01*
X66398809Y-159505952D01*
X66339285Y-159386904D01*
X66339285Y-159267857D01*
X66398809Y-159148809D01*
X66517857Y-159089285D01*
X66815476Y-159089285D01*
X66934523Y-159029761D01*
X67529761Y-159565476D02*
X67529761Y-158732142D01*
X67529761Y-158970238D02*
X67589285Y-158851190D01*
X67648809Y-158791666D01*
X67767857Y-158732142D01*
X67886904Y-158732142D01*
D15*
%TO.C,REF\u002A\u002A*%
X57500000Y-165500000D03*
X57500000Y-43000000D03*
%TD*%
M02*
