%TF.GenerationSoftware,KiCad,Pcbnew,5.1.9+dfsg1-1~bpo10+1*%
%TF.CreationDate,2022-05-13T01:17:35+08:00*%
%TF.ProjectId,MiniVCA 1.2 - Front,4d696e69-5643-4412-9031-2e32202d2046,rev?*%
%TF.SameCoordinates,Original*%
%TF.FileFunction,Copper,L1,Top*%
%TF.FilePolarity,Positive*%
%FSLAX46Y46*%
G04 Gerber Fmt 4.6, Leading zero omitted, Abs format (unit mm)*
G04 Created by KiCad (PCBNEW 5.1.9+dfsg1-1~bpo10+1) date 2022-05-13 01:17:35*
%MOMM*%
%LPD*%
G01*
G04 APERTURE LIST*
%TA.AperFunction,ComponentPad*%
%ADD10O,7.000000X4.200000*%
%TD*%
%TA.AperFunction,NonConductor*%
%ADD11C,0.254000*%
%TD*%
%TA.AperFunction,NonConductor*%
%ADD12C,0.100000*%
%TD*%
G04 APERTURE END LIST*
D10*
%TO.P,REF\u002A\u002A,*%
%TO.N,*%
X57500000Y-165500000D03*
X57500000Y-43000000D03*
%TD*%
D11*
X54573164Y-40714928D02*
X54156706Y-41056706D01*
X53814928Y-41473164D01*
X53560964Y-41948297D01*
X53404574Y-42463846D01*
X53351767Y-43000000D01*
X53404574Y-43536154D01*
X53560964Y-44051703D01*
X53814928Y-44526836D01*
X54156706Y-44943294D01*
X54573164Y-45285072D01*
X55048297Y-45539036D01*
X55563846Y-45695426D01*
X55965644Y-45735000D01*
X59034356Y-45735000D01*
X59436154Y-45695426D01*
X59951703Y-45539036D01*
X60426836Y-45285072D01*
X60843294Y-44943294D01*
X61185072Y-44526836D01*
X61439036Y-44051703D01*
X61595426Y-43536154D01*
X61648233Y-43000000D01*
X61595426Y-42463846D01*
X61439036Y-41948297D01*
X61185072Y-41473164D01*
X60843294Y-41056706D01*
X60426836Y-40714928D01*
X60370845Y-40685000D01*
X69315000Y-40685000D01*
X69315001Y-75966344D01*
X69315000Y-75966354D01*
X69315001Y-129966344D01*
X69315000Y-129966354D01*
X69315001Y-155466353D01*
X69315000Y-167815000D01*
X60370845Y-167815000D01*
X60426836Y-167785072D01*
X60843294Y-167443294D01*
X61185072Y-167026836D01*
X61439036Y-166551703D01*
X61595426Y-166036154D01*
X61648233Y-165500000D01*
X61595426Y-164963846D01*
X61439036Y-164448297D01*
X61185072Y-163973164D01*
X60843294Y-163556706D01*
X60426836Y-163214928D01*
X59951703Y-162960964D01*
X59436154Y-162804574D01*
X59034356Y-162765000D01*
X55965644Y-162765000D01*
X55563846Y-162804574D01*
X55048297Y-162960964D01*
X54573164Y-163214928D01*
X54156706Y-163556706D01*
X53814928Y-163973164D01*
X53560964Y-164448297D01*
X53404574Y-164963846D01*
X53351767Y-165500000D01*
X53404574Y-166036154D01*
X53560964Y-166551703D01*
X53814928Y-167026836D01*
X54156706Y-167443294D01*
X54573164Y-167785072D01*
X54629155Y-167815000D01*
X50685000Y-167815000D01*
X50685000Y-149136846D01*
X53812841Y-149136846D01*
X53812841Y-149863154D01*
X53954536Y-150575505D01*
X54232482Y-151246525D01*
X54635996Y-151850427D01*
X55149573Y-152364004D01*
X55753475Y-152767518D01*
X56424495Y-153045464D01*
X57136846Y-153187159D01*
X57863154Y-153187159D01*
X58575505Y-153045464D01*
X59246525Y-152767518D01*
X59850427Y-152364004D01*
X60364004Y-151850427D01*
X60767518Y-151246525D01*
X61045464Y-150575505D01*
X61187159Y-149863154D01*
X61187159Y-149136846D01*
X61045464Y-148424495D01*
X60767518Y-147753475D01*
X60364004Y-147149573D01*
X59850427Y-146635996D01*
X59246525Y-146232482D01*
X58575505Y-145954536D01*
X57863154Y-145812841D01*
X57136846Y-145812841D01*
X56424495Y-145954536D01*
X55753475Y-146232482D01*
X55149573Y-146635996D01*
X54635996Y-147149573D01*
X54232482Y-147753475D01*
X53954536Y-148424495D01*
X53812841Y-149136846D01*
X50685000Y-149136846D01*
X50685000Y-138636846D01*
X53812841Y-138636846D01*
X53812841Y-139363154D01*
X53954536Y-140075505D01*
X54232482Y-140746525D01*
X54635996Y-141350427D01*
X55149573Y-141864004D01*
X55753475Y-142267518D01*
X56424495Y-142545464D01*
X57136846Y-142687159D01*
X57863154Y-142687159D01*
X58575505Y-142545464D01*
X59246525Y-142267518D01*
X59850427Y-141864004D01*
X60364004Y-141350427D01*
X60767518Y-140746525D01*
X61045464Y-140075505D01*
X61187159Y-139363154D01*
X61187159Y-138636846D01*
X61045464Y-137924495D01*
X60767518Y-137253475D01*
X60364004Y-136649573D01*
X59850427Y-136135996D01*
X59246525Y-135732482D01*
X58575505Y-135454536D01*
X57863154Y-135312841D01*
X57136846Y-135312841D01*
X56424495Y-135454536D01*
X55753475Y-135732482D01*
X55149573Y-136135996D01*
X54635996Y-136649573D01*
X54232482Y-137253475D01*
X53954536Y-137924495D01*
X53812841Y-138636846D01*
X50685000Y-138636846D01*
X50685000Y-128136846D01*
X53812841Y-128136846D01*
X53812841Y-128863154D01*
X53954536Y-129575505D01*
X54232482Y-130246525D01*
X54635996Y-130850427D01*
X55149573Y-131364004D01*
X55753475Y-131767518D01*
X56424495Y-132045464D01*
X57136846Y-132187159D01*
X57863154Y-132187159D01*
X58575505Y-132045464D01*
X59246525Y-131767518D01*
X59850427Y-131364004D01*
X60364004Y-130850427D01*
X60767518Y-130246525D01*
X61045464Y-129575505D01*
X61187159Y-128863154D01*
X61187159Y-128136846D01*
X61045464Y-127424495D01*
X60767518Y-126753475D01*
X60364004Y-126149573D01*
X59850427Y-125635996D01*
X59246525Y-125232482D01*
X58575505Y-124954536D01*
X57863154Y-124812841D01*
X57136846Y-124812841D01*
X56424495Y-124954536D01*
X55753475Y-125232482D01*
X55149573Y-125635996D01*
X54635996Y-126149573D01*
X54232482Y-126753475D01*
X53954536Y-127424495D01*
X53812841Y-128136846D01*
X50685000Y-128136846D01*
X50685000Y-117591409D01*
X53771659Y-117591409D01*
X53771659Y-118325829D01*
X53914937Y-119046136D01*
X54195987Y-119724651D01*
X54604008Y-120335298D01*
X55123321Y-120854611D01*
X55733968Y-121262632D01*
X56412483Y-121543682D01*
X57132790Y-121686960D01*
X57867210Y-121686960D01*
X58587517Y-121543682D01*
X59266032Y-121262632D01*
X59876679Y-120854611D01*
X60395992Y-120335298D01*
X60804013Y-119724651D01*
X61085063Y-119046136D01*
X61228341Y-118325829D01*
X61228341Y-117591409D01*
X61085063Y-116871102D01*
X60804013Y-116192587D01*
X60395992Y-115581940D01*
X59876679Y-115062627D01*
X59266032Y-114654606D01*
X58587517Y-114373556D01*
X57867210Y-114230278D01*
X57132790Y-114230278D01*
X56412483Y-114373556D01*
X55733968Y-114654606D01*
X55123321Y-115062627D01*
X54604008Y-115581940D01*
X54195987Y-116192587D01*
X53914937Y-116871102D01*
X53771659Y-117591409D01*
X50685000Y-117591409D01*
X50685000Y-108783872D01*
X57805618Y-108783872D01*
X57805618Y-109216128D01*
X57889947Y-109640078D01*
X58055364Y-110039430D01*
X58295512Y-110398837D01*
X58601163Y-110704488D01*
X58960570Y-110944636D01*
X59359922Y-111110053D01*
X59783872Y-111194382D01*
X60216128Y-111194382D01*
X60640078Y-111110053D01*
X61039430Y-110944636D01*
X61398837Y-110704488D01*
X61704488Y-110398837D01*
X61944636Y-110039430D01*
X62110053Y-109640078D01*
X62194382Y-109216128D01*
X62194382Y-108783872D01*
X62110053Y-108359922D01*
X61944636Y-107960570D01*
X61704488Y-107601163D01*
X61398837Y-107295512D01*
X61039430Y-107055364D01*
X60640078Y-106889947D01*
X60216128Y-106805618D01*
X59783872Y-106805618D01*
X59359922Y-106889947D01*
X58960570Y-107055364D01*
X58601163Y-107295512D01*
X58295512Y-107601163D01*
X58055364Y-107960570D01*
X57889947Y-108359922D01*
X57805618Y-108783872D01*
X50685000Y-108783872D01*
X50685000Y-98783872D01*
X51305618Y-98783872D01*
X51305618Y-99216128D01*
X51389947Y-99640078D01*
X51555364Y-100039430D01*
X51795512Y-100398837D01*
X52101163Y-100704488D01*
X52460570Y-100944636D01*
X52859922Y-101110053D01*
X53283872Y-101194382D01*
X53716128Y-101194382D01*
X54140078Y-101110053D01*
X54539430Y-100944636D01*
X54898837Y-100704488D01*
X55204488Y-100398837D01*
X55444636Y-100039430D01*
X55610053Y-99640078D01*
X55694382Y-99216128D01*
X55694382Y-98783872D01*
X55610053Y-98359922D01*
X55444636Y-97960570D01*
X55204488Y-97601163D01*
X54898837Y-97295512D01*
X54539430Y-97055364D01*
X54140078Y-96889947D01*
X53716128Y-96805618D01*
X53283872Y-96805618D01*
X52859922Y-96889947D01*
X52460570Y-97055364D01*
X52101163Y-97295512D01*
X51795512Y-97601163D01*
X51555364Y-97960570D01*
X51389947Y-98359922D01*
X51305618Y-98783872D01*
X50685000Y-98783872D01*
X50685000Y-87313334D01*
X55566452Y-87313334D01*
X55566452Y-88186666D01*
X55736831Y-89043218D01*
X56071041Y-89850072D01*
X56556238Y-90576222D01*
X57173778Y-91193762D01*
X57899928Y-91678959D01*
X58706782Y-92013169D01*
X59563334Y-92183548D01*
X60436666Y-92183548D01*
X61293218Y-92013169D01*
X62100072Y-91678959D01*
X62826222Y-91193762D01*
X63443762Y-90576222D01*
X63928959Y-89850072D01*
X64263169Y-89043218D01*
X64433548Y-88186666D01*
X64433548Y-87313334D01*
X64263169Y-86456782D01*
X63928959Y-85649928D01*
X63443762Y-84923778D01*
X62826222Y-84306238D01*
X62100072Y-83821041D01*
X61293218Y-83486831D01*
X60436666Y-83316452D01*
X59563334Y-83316452D01*
X58706782Y-83486831D01*
X57899928Y-83821041D01*
X57173778Y-84306238D01*
X56556238Y-84923778D01*
X56071041Y-85649928D01*
X55736831Y-86456782D01*
X55566452Y-87313334D01*
X50685000Y-87313334D01*
X50685000Y-73983872D01*
X51305618Y-73983872D01*
X51305618Y-74416128D01*
X51389947Y-74840078D01*
X51555364Y-75239430D01*
X51795512Y-75598837D01*
X52101163Y-75904488D01*
X52460570Y-76144636D01*
X52859922Y-76310053D01*
X53283872Y-76394382D01*
X53716128Y-76394382D01*
X54140078Y-76310053D01*
X54539430Y-76144636D01*
X54898837Y-75904488D01*
X55204488Y-75598837D01*
X55444636Y-75239430D01*
X55610053Y-74840078D01*
X55694382Y-74416128D01*
X55694382Y-73983872D01*
X55610053Y-73559922D01*
X55444636Y-73160570D01*
X55204488Y-72801163D01*
X54898837Y-72495512D01*
X54539430Y-72255364D01*
X54140078Y-72089947D01*
X53716128Y-72005618D01*
X53283872Y-72005618D01*
X52859922Y-72089947D01*
X52460570Y-72255364D01*
X52101163Y-72495512D01*
X51795512Y-72801163D01*
X51555364Y-73160570D01*
X51389947Y-73559922D01*
X51305618Y-73983872D01*
X50685000Y-73983872D01*
X50685000Y-62563334D01*
X55566452Y-62563334D01*
X55566452Y-63436666D01*
X55736831Y-64293218D01*
X56071041Y-65100072D01*
X56556238Y-65826222D01*
X57173778Y-66443762D01*
X57899928Y-66928959D01*
X58706782Y-67263169D01*
X59563334Y-67433548D01*
X60436666Y-67433548D01*
X61293218Y-67263169D01*
X62100072Y-66928959D01*
X62826222Y-66443762D01*
X63443762Y-65826222D01*
X63928959Y-65100072D01*
X64263169Y-64293218D01*
X64433548Y-63436666D01*
X64433548Y-62563334D01*
X64263169Y-61706782D01*
X63928959Y-60899928D01*
X63443762Y-60173778D01*
X62826222Y-59556238D01*
X62100072Y-59071041D01*
X61293218Y-58736831D01*
X60436666Y-58566452D01*
X59563334Y-58566452D01*
X58706782Y-58736831D01*
X57899928Y-59071041D01*
X57173778Y-59556238D01*
X56556238Y-60173778D01*
X56071041Y-60899928D01*
X55736831Y-61706782D01*
X55566452Y-62563334D01*
X50685000Y-62563334D01*
X50685000Y-40685000D01*
X54629155Y-40685000D01*
X54573164Y-40714928D01*
%TA.AperFunction,NonConductor*%
D12*
G36*
X54573164Y-40714928D02*
G01*
X54156706Y-41056706D01*
X53814928Y-41473164D01*
X53560964Y-41948297D01*
X53404574Y-42463846D01*
X53351767Y-43000000D01*
X53404574Y-43536154D01*
X53560964Y-44051703D01*
X53814928Y-44526836D01*
X54156706Y-44943294D01*
X54573164Y-45285072D01*
X55048297Y-45539036D01*
X55563846Y-45695426D01*
X55965644Y-45735000D01*
X59034356Y-45735000D01*
X59436154Y-45695426D01*
X59951703Y-45539036D01*
X60426836Y-45285072D01*
X60843294Y-44943294D01*
X61185072Y-44526836D01*
X61439036Y-44051703D01*
X61595426Y-43536154D01*
X61648233Y-43000000D01*
X61595426Y-42463846D01*
X61439036Y-41948297D01*
X61185072Y-41473164D01*
X60843294Y-41056706D01*
X60426836Y-40714928D01*
X60370845Y-40685000D01*
X69315000Y-40685000D01*
X69315001Y-75966344D01*
X69315000Y-75966354D01*
X69315001Y-129966344D01*
X69315000Y-129966354D01*
X69315001Y-155466353D01*
X69315000Y-167815000D01*
X60370845Y-167815000D01*
X60426836Y-167785072D01*
X60843294Y-167443294D01*
X61185072Y-167026836D01*
X61439036Y-166551703D01*
X61595426Y-166036154D01*
X61648233Y-165500000D01*
X61595426Y-164963846D01*
X61439036Y-164448297D01*
X61185072Y-163973164D01*
X60843294Y-163556706D01*
X60426836Y-163214928D01*
X59951703Y-162960964D01*
X59436154Y-162804574D01*
X59034356Y-162765000D01*
X55965644Y-162765000D01*
X55563846Y-162804574D01*
X55048297Y-162960964D01*
X54573164Y-163214928D01*
X54156706Y-163556706D01*
X53814928Y-163973164D01*
X53560964Y-164448297D01*
X53404574Y-164963846D01*
X53351767Y-165500000D01*
X53404574Y-166036154D01*
X53560964Y-166551703D01*
X53814928Y-167026836D01*
X54156706Y-167443294D01*
X54573164Y-167785072D01*
X54629155Y-167815000D01*
X50685000Y-167815000D01*
X50685000Y-149136846D01*
X53812841Y-149136846D01*
X53812841Y-149863154D01*
X53954536Y-150575505D01*
X54232482Y-151246525D01*
X54635996Y-151850427D01*
X55149573Y-152364004D01*
X55753475Y-152767518D01*
X56424495Y-153045464D01*
X57136846Y-153187159D01*
X57863154Y-153187159D01*
X58575505Y-153045464D01*
X59246525Y-152767518D01*
X59850427Y-152364004D01*
X60364004Y-151850427D01*
X60767518Y-151246525D01*
X61045464Y-150575505D01*
X61187159Y-149863154D01*
X61187159Y-149136846D01*
X61045464Y-148424495D01*
X60767518Y-147753475D01*
X60364004Y-147149573D01*
X59850427Y-146635996D01*
X59246525Y-146232482D01*
X58575505Y-145954536D01*
X57863154Y-145812841D01*
X57136846Y-145812841D01*
X56424495Y-145954536D01*
X55753475Y-146232482D01*
X55149573Y-146635996D01*
X54635996Y-147149573D01*
X54232482Y-147753475D01*
X53954536Y-148424495D01*
X53812841Y-149136846D01*
X50685000Y-149136846D01*
X50685000Y-138636846D01*
X53812841Y-138636846D01*
X53812841Y-139363154D01*
X53954536Y-140075505D01*
X54232482Y-140746525D01*
X54635996Y-141350427D01*
X55149573Y-141864004D01*
X55753475Y-142267518D01*
X56424495Y-142545464D01*
X57136846Y-142687159D01*
X57863154Y-142687159D01*
X58575505Y-142545464D01*
X59246525Y-142267518D01*
X59850427Y-141864004D01*
X60364004Y-141350427D01*
X60767518Y-140746525D01*
X61045464Y-140075505D01*
X61187159Y-139363154D01*
X61187159Y-138636846D01*
X61045464Y-137924495D01*
X60767518Y-137253475D01*
X60364004Y-136649573D01*
X59850427Y-136135996D01*
X59246525Y-135732482D01*
X58575505Y-135454536D01*
X57863154Y-135312841D01*
X57136846Y-135312841D01*
X56424495Y-135454536D01*
X55753475Y-135732482D01*
X55149573Y-136135996D01*
X54635996Y-136649573D01*
X54232482Y-137253475D01*
X53954536Y-137924495D01*
X53812841Y-138636846D01*
X50685000Y-138636846D01*
X50685000Y-128136846D01*
X53812841Y-128136846D01*
X53812841Y-128863154D01*
X53954536Y-129575505D01*
X54232482Y-130246525D01*
X54635996Y-130850427D01*
X55149573Y-131364004D01*
X55753475Y-131767518D01*
X56424495Y-132045464D01*
X57136846Y-132187159D01*
X57863154Y-132187159D01*
X58575505Y-132045464D01*
X59246525Y-131767518D01*
X59850427Y-131364004D01*
X60364004Y-130850427D01*
X60767518Y-130246525D01*
X61045464Y-129575505D01*
X61187159Y-128863154D01*
X61187159Y-128136846D01*
X61045464Y-127424495D01*
X60767518Y-126753475D01*
X60364004Y-126149573D01*
X59850427Y-125635996D01*
X59246525Y-125232482D01*
X58575505Y-124954536D01*
X57863154Y-124812841D01*
X57136846Y-124812841D01*
X56424495Y-124954536D01*
X55753475Y-125232482D01*
X55149573Y-125635996D01*
X54635996Y-126149573D01*
X54232482Y-126753475D01*
X53954536Y-127424495D01*
X53812841Y-128136846D01*
X50685000Y-128136846D01*
X50685000Y-117591409D01*
X53771659Y-117591409D01*
X53771659Y-118325829D01*
X53914937Y-119046136D01*
X54195987Y-119724651D01*
X54604008Y-120335298D01*
X55123321Y-120854611D01*
X55733968Y-121262632D01*
X56412483Y-121543682D01*
X57132790Y-121686960D01*
X57867210Y-121686960D01*
X58587517Y-121543682D01*
X59266032Y-121262632D01*
X59876679Y-120854611D01*
X60395992Y-120335298D01*
X60804013Y-119724651D01*
X61085063Y-119046136D01*
X61228341Y-118325829D01*
X61228341Y-117591409D01*
X61085063Y-116871102D01*
X60804013Y-116192587D01*
X60395992Y-115581940D01*
X59876679Y-115062627D01*
X59266032Y-114654606D01*
X58587517Y-114373556D01*
X57867210Y-114230278D01*
X57132790Y-114230278D01*
X56412483Y-114373556D01*
X55733968Y-114654606D01*
X55123321Y-115062627D01*
X54604008Y-115581940D01*
X54195987Y-116192587D01*
X53914937Y-116871102D01*
X53771659Y-117591409D01*
X50685000Y-117591409D01*
X50685000Y-108783872D01*
X57805618Y-108783872D01*
X57805618Y-109216128D01*
X57889947Y-109640078D01*
X58055364Y-110039430D01*
X58295512Y-110398837D01*
X58601163Y-110704488D01*
X58960570Y-110944636D01*
X59359922Y-111110053D01*
X59783872Y-111194382D01*
X60216128Y-111194382D01*
X60640078Y-111110053D01*
X61039430Y-110944636D01*
X61398837Y-110704488D01*
X61704488Y-110398837D01*
X61944636Y-110039430D01*
X62110053Y-109640078D01*
X62194382Y-109216128D01*
X62194382Y-108783872D01*
X62110053Y-108359922D01*
X61944636Y-107960570D01*
X61704488Y-107601163D01*
X61398837Y-107295512D01*
X61039430Y-107055364D01*
X60640078Y-106889947D01*
X60216128Y-106805618D01*
X59783872Y-106805618D01*
X59359922Y-106889947D01*
X58960570Y-107055364D01*
X58601163Y-107295512D01*
X58295512Y-107601163D01*
X58055364Y-107960570D01*
X57889947Y-108359922D01*
X57805618Y-108783872D01*
X50685000Y-108783872D01*
X50685000Y-98783872D01*
X51305618Y-98783872D01*
X51305618Y-99216128D01*
X51389947Y-99640078D01*
X51555364Y-100039430D01*
X51795512Y-100398837D01*
X52101163Y-100704488D01*
X52460570Y-100944636D01*
X52859922Y-101110053D01*
X53283872Y-101194382D01*
X53716128Y-101194382D01*
X54140078Y-101110053D01*
X54539430Y-100944636D01*
X54898837Y-100704488D01*
X55204488Y-100398837D01*
X55444636Y-100039430D01*
X55610053Y-99640078D01*
X55694382Y-99216128D01*
X55694382Y-98783872D01*
X55610053Y-98359922D01*
X55444636Y-97960570D01*
X55204488Y-97601163D01*
X54898837Y-97295512D01*
X54539430Y-97055364D01*
X54140078Y-96889947D01*
X53716128Y-96805618D01*
X53283872Y-96805618D01*
X52859922Y-96889947D01*
X52460570Y-97055364D01*
X52101163Y-97295512D01*
X51795512Y-97601163D01*
X51555364Y-97960570D01*
X51389947Y-98359922D01*
X51305618Y-98783872D01*
X50685000Y-98783872D01*
X50685000Y-87313334D01*
X55566452Y-87313334D01*
X55566452Y-88186666D01*
X55736831Y-89043218D01*
X56071041Y-89850072D01*
X56556238Y-90576222D01*
X57173778Y-91193762D01*
X57899928Y-91678959D01*
X58706782Y-92013169D01*
X59563334Y-92183548D01*
X60436666Y-92183548D01*
X61293218Y-92013169D01*
X62100072Y-91678959D01*
X62826222Y-91193762D01*
X63443762Y-90576222D01*
X63928959Y-89850072D01*
X64263169Y-89043218D01*
X64433548Y-88186666D01*
X64433548Y-87313334D01*
X64263169Y-86456782D01*
X63928959Y-85649928D01*
X63443762Y-84923778D01*
X62826222Y-84306238D01*
X62100072Y-83821041D01*
X61293218Y-83486831D01*
X60436666Y-83316452D01*
X59563334Y-83316452D01*
X58706782Y-83486831D01*
X57899928Y-83821041D01*
X57173778Y-84306238D01*
X56556238Y-84923778D01*
X56071041Y-85649928D01*
X55736831Y-86456782D01*
X55566452Y-87313334D01*
X50685000Y-87313334D01*
X50685000Y-73983872D01*
X51305618Y-73983872D01*
X51305618Y-74416128D01*
X51389947Y-74840078D01*
X51555364Y-75239430D01*
X51795512Y-75598837D01*
X52101163Y-75904488D01*
X52460570Y-76144636D01*
X52859922Y-76310053D01*
X53283872Y-76394382D01*
X53716128Y-76394382D01*
X54140078Y-76310053D01*
X54539430Y-76144636D01*
X54898837Y-75904488D01*
X55204488Y-75598837D01*
X55444636Y-75239430D01*
X55610053Y-74840078D01*
X55694382Y-74416128D01*
X55694382Y-73983872D01*
X55610053Y-73559922D01*
X55444636Y-73160570D01*
X55204488Y-72801163D01*
X54898837Y-72495512D01*
X54539430Y-72255364D01*
X54140078Y-72089947D01*
X53716128Y-72005618D01*
X53283872Y-72005618D01*
X52859922Y-72089947D01*
X52460570Y-72255364D01*
X52101163Y-72495512D01*
X51795512Y-72801163D01*
X51555364Y-73160570D01*
X51389947Y-73559922D01*
X51305618Y-73983872D01*
X50685000Y-73983872D01*
X50685000Y-62563334D01*
X55566452Y-62563334D01*
X55566452Y-63436666D01*
X55736831Y-64293218D01*
X56071041Y-65100072D01*
X56556238Y-65826222D01*
X57173778Y-66443762D01*
X57899928Y-66928959D01*
X58706782Y-67263169D01*
X59563334Y-67433548D01*
X60436666Y-67433548D01*
X61293218Y-67263169D01*
X62100072Y-66928959D01*
X62826222Y-66443762D01*
X63443762Y-65826222D01*
X63928959Y-65100072D01*
X64263169Y-64293218D01*
X64433548Y-63436666D01*
X64433548Y-62563334D01*
X64263169Y-61706782D01*
X63928959Y-60899928D01*
X63443762Y-60173778D01*
X62826222Y-59556238D01*
X62100072Y-59071041D01*
X61293218Y-58736831D01*
X60436666Y-58566452D01*
X59563334Y-58566452D01*
X58706782Y-58736831D01*
X57899928Y-59071041D01*
X57173778Y-59556238D01*
X56556238Y-60173778D01*
X56071041Y-60899928D01*
X55736831Y-61706782D01*
X55566452Y-62563334D01*
X50685000Y-62563334D01*
X50685000Y-40685000D01*
X54629155Y-40685000D01*
X54573164Y-40714928D01*
G37*
%TD.AperFunction*%
M02*
